<svg width="129" height="154" viewBox="0 0 129 154" fill="none" xmlns="http://www.w3.org/2000/svg">
<path d="M93.7273 23.1646C93.883 23.4394 93.6188 24.4661 94.0866 24.9963C94.9974 26.0401 96.8362 25.6645 97.0784 28.1455C97.4324 31.7225 95.5376 41.1717 95.5271 45.9823C95.5177 49.3715 96.271 52.9426 96.325 56.3994C96.4843 67.6524 95.5472 81.7222 94.8354 93.4348C94.6373 96.7333 92.9868 106.735 93.3108 108.933C93.4415 109.851 94.7762 111.373 95.0777 113.138C95.4467 115.308 95.0592 119.683 95.4884 121.503C96.1507 124.319 100.017 126.786 93.1679 128.636C90.4285 129.372 89.7627 129.926 87.5331 130.747C73.0134 136.127 56.7067 136.688 42.8818 136.353C34.6047 136.149 27.3455 137.575 21.9931 128.601C20.3885 125.911 21.6711 120.727 21.2516 118.138C21.042 116.833 19.648 116.473 19.8082 115.064C19.9303 114.01 20.5615 112.887 20.7128 111.953C20.8069 111.358 20.0085 111.136 20.1048 109.486C20.272 106.637 21.857 102.264 22.2886 98.8139C23.444 89.5545 22.9276 78.948 24.1917 69.0472C25.3063 60.3659 27.3782 54.792 29.0395 46.8142C30.4123 40.2324 29.5755 21.1836 35.9702 18.5837C37.9063 17.7972 39.9333 18.8729 41.7158 18.3098C44.9474 17.288 48.8319 14.2967 53.1443 13.2264C65.4151 10.1841 87.0613 11.0088 93.7387 23.1473L93.7273 23.1646Z" fill="#C14F4E"/>
<path d="M85.2301 46.7149C85.5311 49.1811 81.6802 47.9671 81.1188 47.9909C78.8594 48.0722 75.4306 48.1379 73.1866 48.7716C71.4385 49.2626 69.3151 51.1773 67.5901 51.1668C66.0995 51.1574 65.0616 49.5722 63.3273 49.6303C62.2186 49.6714 61.3313 50.9594 59.775 50.8513C55.8398 50.5695 50.4037 46.8941 46.4347 48.8373C45.6539 49.2193 40.22 55.0899 40.8827 51.2443C40.9641 50.7683 43.7488 47.7697 44.2195 47.4173C46.2117 45.945 50.0445 45.2756 51.8471 45.7739C54.195 46.4168 57.5802 48.2587 60.0823 48.4043C60.7797 48.447 62.0581 46.9074 62.9419 46.7761C65.1039 46.4456 66.153 48.6938 68.0586 48.5492C69.1512 48.4632 71.5528 46.6222 73.2663 46.2235C75.0833 45.8016 84.9791 44.7088 85.2272 46.7243L85.2301 46.7149Z" fill="#FEF0EF"/>
<path d="M64.2283 68.8384C64.9351 68.7923 67.4175 69.1763 66.999 70.487C66.7751 71.1893 64.8541 71.2282 64.1832 71.5276C61.929 72.5242 59.1167 75.0484 57.144 75.6423C54.9162 76.3209 53.1618 75.3176 51.2944 75.5332C48.8902 75.8097 45.8776 78.2807 41.9711 78.3721C40.9408 78.3934 36.1825 78.9595 36.5408 76.8916C37.4845 74.4508 38.9919 75.998 40.1648 75.9637C41.9101 75.9086 44.927 75.9672 46.6036 75.3963C48.2801 74.8254 49.6869 73.0659 51.76 72.9251C53.3218 72.8213 54.4934 73.5483 56.1187 73.2786C58.4937 72.8827 61.8031 69.0078 64.2283 68.8384Z" fill="#FEEFEE"/>
<path d="M50.89 106.418C51.1431 108.262 46.2319 109.884 45.4814 110.071C42.2471 110.869 35.1698 109.825 33.0466 111.059C32.1721 111.569 31.0112 114.632 30.3479 111.451C30.5551 110.297 31.035 109.876 31.6904 109.258C34.0042 107.079 40.7353 108.346 43.7015 107.771C45.4253 107.436 50.609 104.353 50.8956 106.419L50.89 106.418Z" fill="#FDEEED"/>
</svg>
