<svg width="83" height="123" viewBox="0 0 83 123" fill="none" xmlns="http://www.w3.org/2000/svg">
<path d="M63.1777 1.63025C63.2697 1.23126 63.4339 1.24393 63.6704 1.63025C64.5442 0.623268 65.3785 0.490263 66.3836 1.39592C69.1034 0.401597 73.5576 0.148274 76.0014 1.63025C76.8226 1.69992 82.2819 2.71957 82.6235 2.9349C83.2082 3.30223 83.0242 5.15153 82.6629 5.70252C82.0651 6.61451 80.5541 6.18385 80.1336 8.71081C79.4701 12.7261 81.2965 19.4077 81.3819 23.5939C81.5264 31.0165 80.8234 39.1167 80.4424 46.6153C80.0614 54.1138 80.0548 62.4294 77.6109 69.2883C75.4824 75.2479 75.3773 95.1596 75.016 102.379C75.016 102.443 74.543 102.905 74.5101 103.475C74.3787 105.806 74.635 108.181 74.5233 110.511C68.1311 110.106 60.5762 108.687 55.5242 113.209C53.895 114.666 49.9073 119.929 48.8759 121.804C48.462 121.918 48.0547 122.013 47.6342 122.044C42.4771 122.431 19.0765 107.915 13.3282 104.108C11.6924 103.025 8.80177 100.79 8.43387 99.2129C8.92659 98.8519 9.485 88.9467 9.43901 87.7054C9.29448 83.5888 7.93459 79.4658 5.18196 76.2105C4.15712 75.0009 0.596432 72.5752 0.294234 72.1003C-0.132785 71.4289 0.0248806 70.5866 0.0445892 69.8519C0.267953 61.2957 3.88119 51.3842 5.40532 42.9103C6.62725 36.1148 6.17396 28.0715 7.42874 21.7193C7.64553 20.6173 8.72293 20.8453 8.92001 20.2817C9.46528 18.73 8.59154 17.2607 8.61782 16.7794C8.6441 16.3297 9.49157 15.8104 9.67551 15.2024C10.3719 12.9034 9.85946 10.9275 13.2296 10.3258C14.9311 10.0218 16.5866 10.5031 18.275 9.97747C23.1759 8.45749 29.6863 1.45925 35.4215 0.388933C42.2932 -0.896715 55.4322 1.39592 63.1777 1.64291V1.63025Z" fill="#221185"/>
<path d="M45.498 21.2513C44.9914 26.5512 46.1446 32.2766 45.9846 37.4514C45.8513 41.7501 45.1247 47.438 44.4647 51.7555C44.0914 54.2084 43.3515 56.705 43.0182 59.1766C35.2054 57.3808 27.0194 57.5435 19 56.9365L25.7462 18.9925C26.3328 18.3042 27.8593 18.5106 28.7459 18.5607C34.1255 18.8423 40.0651 20.8196 45.498 21.2576V21.2513Z" fill="#FFF2F1"/>
</svg>
