<svg width="518" height="394" viewBox="0 0 518 394" fill="none" xmlns="http://www.w3.org/2000/svg">
<g clip-path="url(#clip0_57_357)">
<path d="M0 134.474C1.47272 133.595 0.725688 132.03 0.964737 130.814C4.56756 112.307 4.91333 91.8464 10.2023 73.8417C10.6335 72.3692 12.4349 67.0072 13.3356 66.0397C14.0741 65.246 16.8701 65.2952 18.0184 65.5543C18.9234 65.7577 20.1058 67.2039 20.5113 67.8631C26.1674 77.0589 30.163 90.1705 34.5171 100.055C34.7177 100.508 35.0678 101.662 35.7593 101.734C39.8659 89.5539 44.8091 77.5246 49.8419 65.551C56.1383 50.5668 62.2426 35.4515 68.6458 20.4968C69.6105 18.2405 70.8869 14.7576 72.351 12.7833C75.2282 8.90364 80.4361 12.5308 82.5448 14.9577C91.966 25.8031 97.8611 40.4265 107.829 51.1637C108.162 51.5212 110.1 53.443 110.275 53.5119C111.039 53.807 111.009 53.0954 111.167 52.8101C115.696 44.8375 118.654 35.9828 123.111 27.82C126.176 22.2054 129.736 16.686 133.3 11.2551C135.247 10.2023 138.137 10.222 140.07 11.2682C143.306 13.0227 145.902 22.4481 147.426 25.685C150.691 32.6376 155.207 39.2525 161.162 45.054C164.787 37.5405 166.912 29.6336 170.14 22.0316C171.484 18.8636 174.571 11.1665 177.661 9.1496C179.33 8.0608 182.779 8.11655 184.346 9.3103C186.135 10.6746 188 16.4859 189.14 18.6537C191.846 23.796 195.103 28.8498 197.468 34.0839C199.299 38.1407 200.439 42.4434 202.433 46.4674L221.446 19.5326C222.829 16.7942 227.704 17.0598 229.919 19.0276C233.078 21.825 235.725 28.0266 238.081 31.4176C244.471 40.6233 253.606 48.6713 261.354 57.1981C259.783 58.0737 257.606 57.8212 256.069 57.0308C254.883 56.4208 249.141 50.5865 247.852 49.2583C241.291 42.5025 235.422 35.2449 230.551 27.6921C230.154 27.0788 226.457 19.959 225.591 20.4181C218.957 31.2471 209.83 41.1415 203.995 52.2689C206.539 57.1489 207.355 66.079 211.435 70.1785C214.641 73.399 215.205 70.6999 217.113 70.4113C217.762 70.3129 221.992 70.29 221.454 71.2771C219.969 73.9958 213.877 74.0286 210.778 73.1464C205.685 71.6936 204.038 68.4698 202.433 64.7705C202.023 63.826 202.296 62.4355 201.494 61.6222C200.384 60.494 197.387 60.8744 196.913 58.7919C196.584 57.362 198.941 54.358 198.552 52.6428C194.881 38.4916 187.616 25.216 180.427 11.9766C173.213 23.2975 170.396 35.9139 164.744 47.7038C164.829 48.691 168.061 48.9336 167.817 49.806C167.519 50.862 163.754 49.7568 163.31 50.9243L151.754 74.4222L153.146 75.5044C149.974 77.5935 145.769 76.3374 147.887 72.8775L160.018 48.2417C158.669 47.9465 157.321 46.4937 156.369 45.582C145.65 35.2711 144.134 28.7448 138.807 16.8237C138.547 16.24 137.108 12.8161 136.237 14.305C132.16 21.766 127.196 28.9514 123.452 36.5239C120.357 42.7878 118.219 49.3698 114.723 55.5189C113.395 57.854 110.356 62.9602 108.614 64.9115C107.423 66.2496 103.624 66.1545 103.816 64.7508C104 63.4193 110.044 56.4831 109.109 55.6403C109.032 55.5714 107.624 55.4894 106.847 55.086C102.86 53.0331 91.9446 36.6747 89.076 32.4737C85.5372 27.2953 82.5534 21.4544 78.784 16.4367C78.4596 16.0071 76.829 13.5803 76.1204 14.0853C71.7065 24.488 68.0055 35.0776 63.6044 45.4868C56.4756 62.3568 48.1216 78.9807 41.949 96.0966C40.9032 99.0023 37.7187 107.073 38.1626 109.569C38.867 113.518 41.71 118.988 42.965 123.136C46.0982 133.487 49.0223 145.805 48.1643 156.489C48.1045 157.207 47.8015 159.841 47.6136 160.29C46.9861 161.769 41.2873 161.7 40.4464 159.569C39.6482 157.549 41.33 157.814 41.7868 156.817C42.3417 155.61 42.2307 152.544 42.2051 151.18C41.9106 136.969 37.2534 121.569 32.4254 107.998C27.8579 95.1652 21.9456 82.6112 16.281 70.0538C14.2832 76.2587 12.644 82.5751 11.5256 88.9276C7.50019 111.802 5.45119 134.959 0.92205 157.876C0.798256 158.5 0.836675 159.096 0.0085375 159.464V134.47L0 134.474Z" fill="#FFF2F1"/>
<path d="M330.31 34.3531C335.979 39.6398 343.014 45.9758 351.376 48.5339C352.649 48.3436 363.303 36.2356 364.695 34.4712C368.37 29.8241 371.495 23.8029 375.512 19.5428C376.25 18.759 378.048 16.9683 379.149 16.706C386.419 14.9613 385.428 22.5403 386.107 25.8329C387.49 32.5232 389.087 38.2492 392.463 44.5394C395.84 50.8295 400.873 57.7166 407.596 62.3112C410.093 57.4771 413.171 52.83 415.86 48.0616C418.093 44.1098 419.864 39.9382 422.187 36.0224C424.667 31.8509 429.17 23.8324 436.256 29.5716C440.653 33.1332 447.18 47.0351 450.612 52.3447C456.2 60.9863 462.53 69.4343 470.184 77.0953C471.345 75.3998 472.272 73.5534 473.446 71.8579C476.775 67.0534 482.308 57.7756 486.26 53.8861C492.01 48.2289 495.139 55.8997 496.412 59.4219C501.047 72.2613 504.535 87.9014 517.401 97.517C519.079 98.7698 516.859 98.9895 515.241 98.855C508.876 98.3336 501.816 86.2157 499.643 82.0146C495.306 73.6354 492.903 64.7216 490.128 55.9751L473.689 79.4697C473.403 80.9914 477.646 82.5722 479.14 83.2641C479.439 83.4019 480.796 83.5199 480.045 84.1332C478.726 85.2089 473.71 83.9397 472.259 83.0838C471.298 85.1433 474.799 84.6809 475.004 85.3762C475.482 87.0028 469.642 86.1501 468.323 84.8711C466.406 83.0083 468.831 80.9652 468.387 80.2765C463.704 76.6362 459.858 72.3662 456.298 68.0536C447.069 56.8672 442.023 45.3986 434.527 33.7268C434.177 33.1791 432.171 30.2832 431.68 30.2865C430.178 31.2868 429.281 32.7331 428.372 34.0777C424.329 40.0727 421.192 47.327 417.572 53.5975C415.506 57.182 413.124 60.7468 410.827 64.2527C410.866 64.702 420.667 66.5779 414.733 66.9091C412.983 67.0075 410.298 66.0892 409.645 66.5024L403.127 78.4104C402.209 80.3585 405.338 79.004 406.234 80.6143C400.689 81.526 397.658 81.1882 399.579 76.3869C401.133 72.4974 404.211 68.5587 405.803 64.6331C398.64 60.9174 393.407 54.3616 389.659 48.465C383.977 39.5315 381.16 30.3784 380.562 20.425C379.55 20.1987 379.26 21.1465 378.825 21.7204C372.042 30.6473 365.967 39.8136 357.378 47.855C355.658 49.4685 351.325 53.8828 348.444 51.5937C346.881 50.3507 349.456 50.8853 349.84 49.9965C342.254 48.4191 336.047 43.749 330.81 39.4364C322.925 32.9462 315.148 24.7343 309.782 16.8601C308.416 14.853 301.663 2.54494 300.553 2.1186C290.777 12.5738 282.859 24.0587 273.015 34.481C270.561 37.0784 267.986 39.8267 265.254 42.2535C264.196 43.1948 260.119 45.7922 259.714 46.4743C259.436 46.9367 260.734 47.2253 260.435 47.8812C258.173 48.1534 256.124 48.5765 254.484 47.0023C259.287 43.5982 263.346 39.6988 267.231 35.6748C277.036 25.5115 284.647 14.207 294.175 3.91251C296.493 1.41022 297.492 -0.587016 302.183 0.167277C304.928 0.610014 305.867 2.4236 307.071 4.15847C315.101 15.7549 319.015 23.8127 330.323 34.3564L330.31 34.3531Z" fill="#FFF2F1"/>
<path d="M46.1471 201.049C49.2633 200.248 50.1128 202.101 50.4329 204C52.2386 214.626 50.4628 227.239 51.3336 238.156C51.9312 245.634 55.0901 253.839 55.4956 261.392C55.628 263.881 50.7531 263.53 50.3561 261.435C45.3488 243.351 46.1727 225.816 45.8654 207.493C45.844 206.24 44.7427 201.406 46.1428 201.049H46.1471Z" fill="#FFF2F1"/>
<path d="M485.899 242.256C486.924 242.164 489.216 242.436 489.221 243.404C487.914 246.178 486.715 248.982 485.391 251.75C481.264 260.356 476.32 269.506 471.1 277.741C470.511 278.665 470.771 279.99 469.268 280.217C462.349 281.256 467.202 275.763 468.346 273.513C473.567 263.248 478.553 252.826 484.192 242.735C484.713 242.538 485.327 242.308 485.899 242.256Z" fill="#FFF2F1"/>
<path d="M440.154 307.669C440.679 308.211 429.926 312.789 428.914 313.291C420.889 317.272 413.32 321.794 405.368 325.838C399.507 328.819 391.217 333.328 385.271 335.755C383.051 336.66 378.394 336.736 380.387 335.093C380.925 334.65 384.822 332.623 385.898 332.01C397.996 325.123 413.863 316.311 426.707 310.539C430.553 308.811 435.842 305.83 440.154 307.666V307.669Z" fill="#FFF2F1"/>
<path d="M82.3525 303.573C87.9489 307.568 93.1013 312.038 98.736 315.989C104.392 319.954 110.364 323.739 116.908 326.848C114.227 328.97 109.002 326.064 106.411 324.703C92.4695 317.393 81.0506 305.498 68.0736 297.112C67.0704 296.463 60.4154 293.643 64.9104 293.61C65.8837 293.603 67.6254 293.974 68.4834 294.331C72.0136 295.801 79.0741 301.235 82.3483 303.573H82.3525Z" fill="#FFF2F1"/>
<path d="M10.1513 251.389C10.6251 251.163 14.3902 251.163 14.5524 251.852C14.6634 252.327 13.8054 254.154 13.8054 255C13.7883 262.281 15.1585 272.562 16.055 280.026C16.2428 281.581 18.1979 290.245 17.6856 290.79C17.0624 291.459 14.4201 291.265 13.7883 290.567C13.1565 289.868 12.1277 284.739 11.9271 283.548C10.6892 276.107 9.83541 266.79 9.60917 259.277C9.57502 258.106 9.36585 251.766 10.1513 251.393V251.389Z" fill="#FFF2F1"/>
<path d="M499.641 308.457C500.772 308.23 503.794 308.004 503.243 309.45C503.073 309.9 499.214 312.681 498.394 313.481C492.742 318.99 483.419 330.197 479.18 336.424C478.48 337.451 479.594 338.448 477.016 338.638C473.524 338.897 473.567 337.303 474.754 335.457C478.088 330.275 485.759 321.217 490.211 316.35C491.752 314.668 497.382 308.909 499.641 308.457Z" fill="#FFF2F1"/>
<path d="M484.567 190.846C484.926 191.286 484.537 198.704 484.636 200.121C484.909 204.046 485.536 208.47 486.01 212.442C486.172 213.806 487.009 215.767 486.962 217.023C486.885 219.03 482.86 218.725 482.079 216.515C480.473 211.97 479.436 203.551 479.112 198.73C479.026 197.458 478.873 191.912 479.359 191.145C480.051 190.052 484.175 190.354 484.571 190.843L484.567 190.846Z" fill="#FFF2F1"/>
<path d="M36.8512 340.976C41.7261 347.043 46.3193 354.048 51.8857 359.876C52.4023 360.417 55.5014 362.513 55.0147 362.926C50.1185 364.422 46.6352 359.269 44.2788 356.564C38.4477 349.877 33.9399 342.491 28.3436 335.709C28.1558 335.48 25.5347 333.486 26.8239 333.358C32.0617 332.541 34.5418 338.1 36.8512 340.976Z" fill="#FFF2F1"/>
<path d="M267.306 349.904C266.871 349.461 267.767 348.949 268.454 348.854C271.972 348.362 277.811 349.034 281.743 348.848C294.985 348.221 311.936 345.188 325.169 343.115C329.075 342.505 334.543 340.268 337.903 342.338C337.928 343.118 321.895 345.64 320.119 345.925C307.633 347.919 292.12 350.271 279.476 350.628C277.854 350.674 267.895 350.507 267.306 349.904Z" fill="#FFF2F1"/>
<path d="M444.279 359.06C444.774 359.585 442.448 360.673 441.927 360.946C433.466 365.301 422.807 370.653 413.873 374.254C410.837 375.477 407.128 377.333 403.683 377.025C401.544 376.835 402.01 376.199 403.517 375.454C406.957 373.755 411.986 372.208 415.793 370.45C423.746 366.783 431.302 362.569 439.259 358.896C440.86 358.404 442.695 358.729 444.279 359.057V359.06Z" fill="#FFF2F1"/>
<path d="M154.108 337.893C153.925 337.667 154.104 337.201 154.049 336.883C154.996 336.123 165.959 339.251 168.067 339.671C180.656 342.186 195.912 344.075 208.906 344.564C211.634 344.666 214.627 343.636 216.855 345.151C216.377 345.584 216.027 345.905 215.246 346.02C209.145 346.929 195.336 345.318 188.732 344.571C182.129 343.823 175.2 342.898 168.708 341.642C166.881 341.288 154.557 338.435 154.108 337.89V337.893Z" fill="#FFF2F1"/>
<path d="M150.384 387.224C150.209 387.752 149.313 388.097 148.681 388.198C141.902 389.294 128.05 387.473 120.947 386.411C114.249 385.411 104.73 383.771 98.8944 381.164C98.1047 380.809 96.6448 380.331 96.743 379.475C100.675 379.009 103.53 380.97 107.052 381.941C116.507 384.555 130.001 386.368 140.054 386.88C143.477 387.054 147.063 386.476 150.388 387.221L150.384 387.224Z" fill="#FFF2F1"/>
<path d="M309.031 388.972C308.596 388.471 309.227 387.634 310.171 387.556C311.178 387.474 313.607 388.336 315.69 388.293C328.42 388.028 342.417 385.266 355.112 384.758C359.385 384.588 363.889 385.575 356.884 386.47C345.572 387.913 330.332 389.192 318.883 389.681C317.287 389.75 309.748 389.799 309.035 388.972H309.031Z" fill="#FFF2F1"/>
<path d="M256.758 391.439C256.511 391.691 250.641 392.406 249.651 392.495C242.07 393.167 232.981 393.725 225.375 393.921C219.488 394.072 213.46 394.092 207.706 393.2C207.57 392.524 208.065 392.259 208.854 392.147C211.621 391.76 215.339 392.452 218.019 392.426C229.622 392.318 241.489 390.668 252.844 390.373C253.424 390.356 257.911 390.261 256.763 391.439H256.758Z" fill="#FFF2F1"/>
<path d="M460.788 151.898C456.229 147.713 447.799 148.281 441.361 148.156C438.706 145.218 437.011 142.276 432.277 141.049C425.943 139.409 416.624 139.377 411.267 142.738C404.992 146.68 405.175 150.868 402.422 156.014C401.325 158.063 400.181 158.962 399.455 156.04C398.409 151.816 397.5 148.592 393.718 145.132C393.551 144.978 391.784 143.588 391.357 143.256C388.006 140.629 384.685 138.944 380.433 137.278L370.466 131.125C373.279 130.683 377.834 130.63 378.875 128.082C379.2 127.288 378.982 126.534 379.196 125.924C379.298 125.635 380.002 125.688 380.083 125.429C381.21 121.815 377.411 118.912 376.92 115.607C376.34 111.694 378.525 111.504 383.037 111.973C388.723 112.563 394.905 114.964 401.094 113.104C404.321 112.134 402.396 111.196 400.919 109.507C399.438 107.818 396.659 104.902 395.472 103.128C394.499 101.672 393.871 98.3038 392.732 97.1363C392.07 96.4541 383.644 92.2793 382.239 91.8136C375.162 89.472 361.817 88.0684 354.987 91.0888C354.189 91.4397 354.01 92.1448 353.395 92.3481C351.282 93.0467 346.745 91.3643 344.098 91.1774C334.95 90.5313 322.472 92.2399 317.367 98.8023C313.021 104.384 315.975 106.958 323.954 106.673C329.217 106.483 331.975 103.951 337.426 107.214C341.426 109.612 337.985 111.202 337.481 113.54C337.02 115.672 338.233 117.466 338.19 118.804C338.181 119.112 337.067 121.12 336.764 121.438C335.326 122.936 325.414 125.248 323.808 124.527C323.638 124.448 323.416 123.884 322.959 123.619C316.961 120.136 311.041 117.912 304.001 116.331C299.114 115.233 292.787 114.859 288.292 113.609C286.632 113.147 285.168 111.993 286.09 110.71C295.016 108.129 302.96 105.653 301.649 97.0215C301.24 94.329 297.18 86.6385 295.473 84.1624C295.195 83.7623 293.394 82.1783 292.864 81.9422C290.222 80.7616 279.093 79.699 276.366 80.7025C273.783 81.6536 272.609 87.137 268.383 89.0096C265.856 90.1312 257.318 91.1249 254.219 91.1872C249.186 91.2889 240.944 86.3433 234.519 85.9006C231.659 85.7038 226.481 85.3135 224.936 87.3305C222.409 90.6264 224.099 100.442 227.181 103.505C228.846 105.161 233.943 108.526 236.171 109.963C236.905 110.435 238.079 110.494 238.425 111.238C233.533 112.157 228.889 113.678 224.103 114.856C217.909 116.377 211.365 116.951 206.072 120.018C203.34 119.578 199.404 120.037 196.933 119.69C193.735 119.237 198.632 115.485 199.682 114.751C200.057 114.488 200.766 114.505 201.108 114.275C202.563 113.301 210.81 108.149 210.938 107.539C211.314 105.778 208.01 104.217 206.922 102.515C205.009 99.527 206.503 97.4937 202.444 95.3916C197.991 93.0926 176.157 90.3968 170.364 90.4591C164.631 90.5214 162.676 93.1418 158.766 93.9059C156.427 94.3651 153.942 93.6468 151.223 94.4503C149.101 95.0767 147.927 97.2248 146.028 97.5036C141.021 98.2415 132.936 95.3522 128.85 98.7465C126.272 100.888 126.75 103.512 124.919 105.939C122.289 109.425 115.092 110.907 124.257 113.531C124.39 113.75 121.675 114.049 121.969 114.931C122.306 116.036 129.179 116.099 130.669 116.702C131.501 117.04 133.012 119.28 134.118 120.037C136.376 121.579 142.835 123.809 145.797 124.448C147.612 124.838 153.216 125.209 154.198 125.662C154.608 125.852 155.069 127.262 155.009 127.567C154.954 127.852 150.28 128.905 149.366 129.282C145.601 130.837 142.31 134.372 138.677 136.212L131.365 142.207C130.626 141.318 126.477 138.114 127.075 137.33C127.335 136.989 129.418 137.124 127.433 136.077C123.843 134.982 118.503 134.687 115.131 133.555C108.54 131.342 102.67 125.786 95.0334 124.694C92.5746 124.343 82.543 123.146 83.2345 126.406C83.448 127.423 86.8075 133.611 86.197 134.116C83.3071 133.398 79.8665 131.329 77.0363 130.768C74.9489 130.355 68.1658 129.853 66.4882 130.781C65.0497 131.575 65.7967 136.045 66.215 137.314C66.4882 138.14 68.6269 140.774 68.6226 140.98C68.6226 141.216 67.3975 142.069 67.8542 142.564C67.9609 142.679 70.4069 142.987 71.3076 143.611C72.0675 144.135 72.2297 144.991 72.8956 145.559C80.4086 152.006 91.6226 156.558 103.157 154.538C103.648 154.886 99.2082 161.261 98.7258 162.219C95.1315 169.322 92.9545 176.839 91.6909 184.303C89.1596 199.231 88.929 215.016 89.8468 230.023C90.1456 234.893 92.2715 239.98 91.2171 244.807C90.9909 245.847 89.1254 246.349 91.9599 247.086C94.7602 247.814 101.795 247.824 103.895 246.063C104.886 245.233 104.843 242.702 105.684 241.833C106.205 241.295 108.121 241.446 109.086 240.931C110.17 240.35 110.401 238.405 111.763 237.697C114.469 232.732 115.814 227.419 116.924 222.119C118.665 222.572 117.786 223.897 118.05 224.595C118.657 226.206 122.003 230.236 123.818 231.082C128.244 233.152 134.387 231.44 138.925 233.742C138.438 234.457 136.893 234.178 135.932 234.782C133.397 236.369 132.816 248.857 132.453 251.822C131.13 255.433 131.121 260.3 129.657 263.756C129.175 264.898 127.433 265.012 126.584 265.622C123.117 268.112 114.87 274.149 113.547 277.425C113.12 278.481 112.335 283.237 112.578 284.122C112.612 284.247 113.995 286.215 114.166 286.372C117.402 289.356 131.975 289.494 136.829 288.976C139.642 288.674 145.272 285.988 147.603 284.575C148.756 283.876 149.584 282.899 150.852 282.315V292.698C150.852 292.924 151.321 295.919 151.406 296.145C151.475 296.329 153.793 299.264 154.027 299.411C157.43 301.546 172.161 301.241 176.315 299.923C177.651 299.5 181.791 296.578 182.598 295.604C189.253 287.572 183.623 269.338 182.953 259.955C182.675 256.033 183.042 252.091 182.953 248.165C190.602 251.511 198.948 253.78 206.887 256.715C210.379 258.007 214.341 260.323 218.05 261.172C221.849 262.041 232.649 262.943 236.03 261.638C237.499 261.07 236.436 259.968 237.968 260.136C239.125 263.671 238.374 267.436 238.698 271.099C238.92 273.618 239.556 276.474 240.081 278.986C239.957 279.626 235.599 282.433 234.754 283.191C229.286 288.113 222.195 297.535 219.309 303.714C218.708 305.003 216.987 309.194 216.919 310.355C216.714 313.697 217.99 316.104 222.293 317.059C244.811 322.053 253.921 310.339 266.731 299.31C267 299.077 266.701 298.631 267.777 298.86C267.333 300.631 268.648 302.16 269.113 303.642C270.594 308.332 271.559 314.655 273.89 318.993C274.79 320.673 276.447 320.892 278.692 321.283C284.335 322.263 295.968 323.273 299.874 319.449C306.294 313.159 303.916 301.95 301.231 294.823C298.555 287.717 292.254 274.654 295.396 267.433C296.518 264.855 297.389 265.744 299.737 264.783C303.895 263.084 308.138 262.281 311.911 260.752C314.11 259.86 316.261 257.643 318.105 257.059C319.834 256.512 320.944 256.791 322.46 256.528C326.895 255.761 332.44 250.199 336.393 248.195C338.408 248.959 340.478 251.258 340.708 252.894C341.912 261.405 338.668 271.817 337.477 280.377C336.546 287.054 334.993 295.988 335.701 302.527C336.09 306.111 337.042 306.528 341.494 307.207C345.421 307.804 352.494 308.305 355.069 305.501C356.298 304.163 358.979 298.565 359.448 296.87L363.154 274.215C363.773 274.418 364.554 275.438 364.861 275.891C367.461 279.708 369.049 284.139 371.525 288.022C371.951 288.694 372.98 290.176 373.697 290.576C376.135 291.937 385.569 292.482 388.565 292.141C393.889 291.54 393.457 287.854 393.218 284.663C392.053 269.158 383.063 249.458 390.888 234.431C392.638 231.069 395.763 227.986 398.388 225.051C398.96 224.412 398.793 223.044 400.287 223.172L399.583 240.432C402.277 241.518 412.581 243.223 414.549 241.334C415.476 240.445 414.353 237.841 414.511 236.372C415.552 226.517 417.836 216.534 418.626 206.443C418.792 204.298 418.058 199.536 418.976 197.91C419.552 196.887 422.344 195.87 423.403 194.971C427.274 191.695 426.348 186.766 428.235 182.84C430.719 182.427 433.319 182.853 435.82 182.68C440.917 182.322 450.309 179.764 453.485 176.531C456.012 173.956 455.423 172.631 453.322 170.129C452.981 169.719 451.841 169.916 452.174 168.86C452.23 168.689 454.304 166.403 454.539 166.252C455.645 165.534 457.177 164.767 458.564 163.885C459.474 163.307 462.701 161.884 463.136 161.323C465.194 158.657 463.23 154.102 460.814 151.885L460.788 151.898ZM400.706 190.196C400.629 190.442 399.98 190.426 399.848 190.721C397.952 195.001 396.288 197.916 393.308 201.826C391.34 204.407 386.149 209.231 385.027 211.661C384.574 212.648 384.882 213.599 384.438 214.376C384.143 214.888 381.415 216.813 380.621 217.781C380.088 218.43 375.665 226.573 375.025 222.316C374.291 217.42 379.08 215.013 379.187 211.015C379.306 206.512 369.249 206.771 365.19 206.991C363.866 207.063 362.112 207.778 361.066 207.693C360.118 207.617 358.215 205.954 356.554 205.515C354.091 204.866 345.229 204.239 343.543 205.686C342.749 206.368 341.695 209.473 341.571 210.506C336.606 209.523 332.004 208.214 326.711 208.778C321.431 209.339 324.581 211.72 325.486 213.878C325.998 215.091 326.886 217.144 327.053 218.335C327.095 218.633 327.531 218.83 326.916 219.145C323.868 220.466 312.266 216.744 308.744 219.66C308.262 220.365 312.723 225.402 313.61 226.166C315.425 227.731 320.18 230.089 322.771 230.748C325.362 231.41 330.177 231.312 332.077 232.053C332.355 232.161 335.466 234.486 335.513 234.67C335.876 236.11 332.568 238.455 331.24 239.363C328.811 241.026 319.51 245.912 316.633 245.696C313.785 245.483 310.059 244.46 306.968 244.289C303.481 244.095 301.176 244.597 298.025 244.863C295.712 245.056 297.3 241.823 297.919 240.885C299.519 238.474 303.801 237.267 303.895 233.929C303.984 230.787 301.41 229.095 297.961 227.973C290.226 225.451 284.472 226.97 277.693 225.917C276.297 225.701 276.532 225.022 275.691 224.671C270.278 222.418 254.672 221.326 249.447 223.739C247.957 224.428 246.642 226.835 245.891 227.019C244.952 227.245 242.237 226.422 240.922 226.356C233.964 226.019 228.107 226.153 226.694 232.319C225.986 235.415 230.28 242.121 231.659 245.437C231.975 246.194 232.619 247.427 232.214 248.178C230.699 248.005 228.701 247.792 227.296 247.378C219.519 245.076 208.211 240.278 200.117 239.734C197.223 239.537 190.623 240.222 188.425 239.206C187.554 238.802 188.826 238.379 188.912 237.773C189.129 236.251 185.902 235.811 185.236 234.877C184.741 234.181 184.626 232.04 185.544 231.62C186.564 231.154 191.336 230.804 193.018 230.397C197.411 229.338 211.762 225.451 214.307 223.156C215.929 221.693 216.825 219.299 216.377 217.394C215.95 215.6 212.727 212.064 210.439 211.395C206.806 210.333 201.786 210.556 198.393 209.733C197.611 209.542 197.163 208.772 196.399 208.447C188.34 205.039 172.456 204.154 164.277 207.627C163.479 207.965 162.437 208.991 162.006 209.05C161.532 209.119 160.495 208.542 159.731 208.431C155.82 207.853 141.64 206.574 139.599 209.805C137.904 212.484 142.109 219.443 143.859 222.024C144.188 222.51 146.745 224.333 144.197 223.88C143.313 223.723 142.421 223.034 141.913 222.464C137.986 218.03 136.201 212.773 135.732 207.466C135.621 206.191 136.146 203.924 135.992 202.649C135.552 198.969 130.588 197.192 128.394 194.122C126.08 192.64 124.607 194.26 124.223 190.639C123.946 188.019 124.3 176.409 124.996 174.34C125.713 172.198 129.41 166.229 130.865 164.032C132.201 162.015 140.449 151.731 142.16 150.881L146.702 149.268C147.215 159.785 144.064 169.867 144.85 180.433C145.285 186.277 145.537 189.068 153.485 190.701C159.334 191.905 168.985 192.256 171.154 186.871C171.781 185.313 172.708 179.571 172.755 177.888C172.767 177.354 171.943 177.101 171.905 176.55C171.892 176.334 172.742 176.429 172.84 176.14C173.386 174.53 172.443 171.254 173.301 169.332L178.022 176.268C183.362 181.847 201.001 184.847 209.432 183.172C213.991 182.266 211.242 178.288 209.756 176.016C205.978 170.231 199.541 164.967 194.393 159.907C193.718 159.241 189.731 155.128 189.774 154.758C189.791 154.62 192.041 153.367 192.476 152.921C196.647 148.654 198.96 143.394 201.855 138.635C202.542 137.507 205.197 133.031 205.991 132.483C208.676 130.63 211.754 132.031 214.785 132.053C220.458 132.093 227.096 130.558 232.44 129.21L226.029 164.941C225.807 168.565 226.169 170.88 227.971 174.005C228.692 175.258 231.779 175.832 233.435 176.147C238.459 177.101 247.355 177.78 252.111 176.163C253.899 175.556 254.612 174.015 255.368 172.69C257.634 168.725 258.048 164.085 260.196 160.182C260.426 159.766 260.196 159.313 261.092 159.48C261.412 159.539 262.646 163.468 263.077 164.298C263.495 165.101 265.993 169.178 266.488 169.594C266.915 169.952 267.832 169.866 268.114 170.096C268.191 170.158 267.76 170.644 268.165 170.919C269.348 171.723 271.977 173.464 273.296 174.051C279.388 176.767 294.58 178.288 301.333 176.996C306.217 176.062 307.382 173.707 308.04 170.175C310.144 158.818 299.135 149.399 294.67 139.692C293.522 137.196 292.506 132.722 293.573 130.256C293.688 129.987 293.159 129.695 294.115 129.905C295.921 130.299 299.737 132.844 301.675 133.608C306.819 135.638 312.859 134.962 317.375 136.34C318.609 136.717 319.292 137.789 321.29 138.262C325.311 139.213 330.741 138.996 334.681 138.012C335.236 138.488 333.546 148.638 333.191 150.065C330.169 162.137 318.908 169.948 311.391 180.145C310.861 180.863 308.958 183.139 309.504 183.749C313.094 184.234 316.347 185.589 319.911 186.143C328.816 187.533 335.133 186.973 342.651 183.008C343.214 182.709 347.363 179.417 347.982 179.905C347.227 184.326 347.188 190.544 353.929 192.059C356.819 192.708 363.952 193.417 366.884 193.181C371.029 192.846 374.534 192.23 376.284 189.137C380.284 182.066 378.487 169.748 376.664 162.314C375.132 156.069 372.549 149.973 371.593 143.65C374.316 146.234 377.71 149.176 379.913 152.046C380.485 152.79 380.707 154.18 381.095 154.485C381.787 155.027 386.111 155.273 386.435 155.666C386.61 155.879 387.259 159.992 387.212 160.644C387.14 161.648 386.764 163.514 386.269 164.422C385.454 165.918 384.062 165.679 384.877 167.951C385.646 170.093 390.41 173.759 392.185 175.714C395.186 179.016 401.974 186.103 400.689 190.223L400.706 190.196Z" fill="#FFF2F1"/>
<path d="M269.764 266.964C268.099 268.098 267.873 268.708 265.239 268.941C263.668 269.082 254.012 268.656 254.482 267.029C254.58 266.691 255.831 266.137 255.831 265.95C255.831 265.714 252.155 263.215 251.511 262.582C250.392 261.48 248.45 259.106 247.575 257.863C247.34 257.528 246.939 257.289 247.127 256.804C247.84 255.915 249.389 256.525 250.333 256.092C250.708 255.921 250.879 255.311 251.276 255.056C253.568 253.586 258.281 255.18 260.087 254.81C260.821 254.659 262.063 253.275 263.015 252.806C266.456 251.107 276.739 250.615 278.084 254.498C278.967 257.056 277.136 258.375 275.77 260.487C273.866 263.428 273.213 264.612 269.76 266.964H269.764Z" fill="#221185"/>
<path d="M268.997 126.623C267.956 127.708 263.964 130.024 262.278 130.437C258.312 131.408 256.81 130.657 253.156 130.092C252.524 129.994 251.815 130.279 250.804 130.092C246.138 129.236 237.067 115.997 249.22 116.856C251.184 116.994 255.538 119.142 255.832 118.981C255.922 118.932 256.148 118.112 256.989 117.578C261.347 114.816 272.13 113.79 272.369 119.523C272.442 121.254 270.35 125.209 268.997 126.619V126.623Z" fill="#C14F4E"/>
<path d="M348.913 143.273C348.482 143.227 348.418 143.397 348.456 143.624C348.371 143.843 348.73 144.247 348.192 144.345C347.654 144.444 346.13 144.388 345.686 144.165C345.114 142.604 343.94 141.164 343.184 139.751C342.023 137.573 338.805 131.46 339.381 129.443C340.474 125.629 349.993 127.659 351.436 130.591C354.13 127.921 358.513 127.288 362.547 128.403C367.751 129.843 365.049 134.438 363.213 137.176C360.234 141.623 356.225 145.873 348.913 143.27V143.273Z" fill="#221185"/>
<path d="M367.573 248.415C365.285 249.661 361.55 248.231 359.706 248.503C359.211 248.575 360 249.762 358.25 249.825C356.901 249.874 350.746 246.496 350.088 245.689C349.764 245.292 347.314 241.213 347.207 240.865C345.79 236.175 352.923 236.556 356.705 237.966C356.496 233.152 369.008 231.817 371.129 235.165C372.162 236.792 371.159 242.242 370.493 244.115C370.16 245.046 368.5 247.913 367.578 248.415H367.573Z" fill="#C14F4E"/>
<path d="M154.349 237.051C154.626 237.215 154.379 237.727 154.742 237.612C157.405 234.569 163.693 232.804 168.291 233.9C173.831 235.221 166.724 243.266 164.585 245.171C160.944 248.411 157.397 250.415 151.651 248.434C142.755 245.368 139.694 228.501 154.349 237.051Z" fill="#C14F4E"/>
<path d="M100.098 182.942C99.7481 182.634 95.9531 177.632 95.7867 177.242C95.3 176.098 94.8049 174.012 96.0471 173.189C98.5016 171.555 102.254 173.497 104.743 174.241C106.505 171.424 108.593 168.466 113.37 169.053C120.661 169.952 118.317 178.436 116.324 182.063C113.391 187.389 104.521 186.838 100.102 182.942H100.098Z" fill="#221185"/>
<path d="M169.188 141.863L169.175 142.912C166.58 143.293 165.44 141.266 164.352 139.767C163.904 139.151 160.984 134.569 160.937 134.264C160.856 133.762 161.492 131.234 161.812 130.83C162.785 129.604 168.202 130.378 169.641 131.303C169.09 126.639 180.923 125.662 183.04 128.938C186.891 134.9 178.656 145.496 169.193 141.859L169.188 141.863Z" fill="#62B788"/>
<path d="M403.802 171.51C405.198 171.267 406.521 171.421 407.853 171.769C409.249 172.136 411.686 174.136 411.951 174.15C412.408 174.179 416.083 172.821 417.919 172.815C419.417 172.808 423.191 173.51 423.882 174.599C425.543 177.216 419.204 184.214 416.292 185.674C413.086 187.284 406.555 186.799 404.267 184.378C403.392 183.45 401.215 176.494 401.155 175.133C401.087 173.54 401.497 171.91 403.802 171.51Z" fill="#62B788"/>
<path d="M425.943 147.143C424.035 146.923 421.786 147.362 420.006 147.346C419.446 147.34 419.16 147.254 419.066 146.802C420.595 146.782 420.727 145.339 421.495 144.791C424.287 142.791 425.363 145.234 425.943 147.143Z" fill="white"/>
<path d="M246.208 93.2928C246.341 93.8864 245.073 93.6863 244.638 93.6207C241.97 93.2042 239.622 91.9678 236.356 92.5877C235.81 92.5352 235.818 91.0791 237.611 91.2365C240.121 91.4562 243.455 93.1878 246.208 93.2928Z" fill="#FFFDFD"/>
<path d="M343.409 93.6439L338.573 94.6769L336.08 94.6933C335.969 94.1915 336.878 94.2145 337.356 94.0964C339.2 93.6504 341.586 93.1322 343.409 93.6439Z" fill="#FFFBFA"/>
<path d="M378.714 228.813C378.983 229 378.129 230.253 377.813 230.407C376.131 231.227 376.473 229.649 375.504 228.816H378.71L378.714 228.813Z" fill="#FFFDFD"/>
<path d="M177.897 94.6933C176.877 94.6572 174.704 94.913 174.234 93.9948C175.464 93.716 177.82 93.0273 177.897 94.6933Z" fill="#FFFDFC"/>
<path d="M348.913 143.273C348.713 143.332 348.516 143.466 348.456 143.624L348.004 143.447V142.568C348.538 142.512 348.717 143.201 348.917 143.273H348.913Z" fill="#C2BDD8"/>
<path d="M268.215 256.62C268.057 256.86 267.438 256.414 267.767 255.919C267.925 255.679 268.544 256.125 268.215 256.62Z" fill="#443999"/>
<path d="M249.878 118.985C250.48 119.444 250.228 119.565 249.421 119.336C248.674 119.273 247.88 119.385 247.129 119.332C248.089 117.978 248.529 118.184 249.878 118.985Z" fill="#F4E2E1"/>
<path d="M249.879 118.985C250.195 119.172 250.805 119.27 250.796 119.687C250.101 119.916 249.644 119.355 249.422 119.339L249.879 118.988V118.985Z" fill="#E3A4A3"/>
<path d="M347.074 130.952C346.899 131.122 345.861 130.339 346.165 129.896C346.34 129.725 347.377 130.509 347.074 130.952Z" fill="#796DB2"/>
<path d="M345.25 129.194C345.467 129.253 345.877 129.154 346.163 129.197C346.3 129.837 345.216 129.571 344.793 129.194H345.25Z" fill="#8F91C3"/>
<path d="M359.457 129.548C359.769 129.669 359.188 130.145 358.544 129.892C358.232 129.771 358.813 129.295 359.457 129.548Z" fill="#6B5BA9"/>
<path d="M345.246 129.193H344.79C344.636 129.183 344.482 129.206 344.333 129.193C343.932 129.095 343.94 128.977 344.333 128.843C344.811 128.908 345.012 129.131 345.251 129.193H345.246Z" fill="#A1C0D9"/>
<path d="M344.329 128.84V129.19C343.97 129.161 343.402 129.335 343.407 129.013C343.385 128.725 344.073 128.803 344.329 128.836V128.84Z" fill="#7F73B3"/>
<path d="M364.96 235.503V236.205H363.586C363.74 235.697 364.324 235.398 364.96 235.506V235.503Z" fill="#E4BAB9"/>
<path d="M358.543 241.134C359.042 241.518 358.129 242.22 357.629 241.836C357.13 241.452 358.043 240.75 358.543 241.134Z" fill="#CA6867"/>
<path d="M353.037 238.671V239.016C351.128 239.189 351.128 238.498 353.037 238.671Z" fill="#E7D9D7"/>
<path d="M149.929 237.609H147.641C147.756 236.091 149.22 236.399 149.929 237.609Z" fill="#F1D8D7"/>
<path d="M161.852 236.562C162.394 236.658 163.047 236.153 163.444 236.205C165.002 236.405 162.919 238.314 161.852 236.562Z" fill="#F9EEEE"/>
<path d="M156.344 246.064C156.656 246.185 156.075 246.66 155.43 246.408C155.119 246.287 155.699 245.811 156.344 246.064Z" fill="#CE7877"/>
<path d="M101.784 174.96L98.5742 175.304L98.5785 173.9L101.784 174.96Z" fill="#DBDBE6"/>
<path d="M112.788 172.487C112.673 172.576 111.401 172.438 110.957 172.487C111.316 170.126 113.706 171.782 112.788 172.487Z" fill="#DFDFE8"/>
<path d="M166.432 132.008C166.782 132.021 168.268 132.546 167.807 132.71C166.902 132.854 166.654 132.706 165.976 132.362C165.72 132.208 165.873 132.09 166.432 132.011V132.008Z" fill="#8CC6A3"/>
<path d="M166.433 132.008C166.378 132.008 166.147 132.296 165.977 132.358C165.878 132.309 165.447 132.407 165.52 132.011H166.438L166.433 132.008Z" fill="#D2DFD0"/>
<path d="M414.941 176.714C415.731 175.488 416.551 174.937 418.373 174.599C419.564 176.354 417.131 176.088 415.398 176.714C415.262 176.901 415.108 176.895 414.941 176.714Z" fill="#ECEDE8"/>
<path d="M407.144 174.602C406.315 174.497 405.265 174.681 404.395 174.599L405.539 172.851C406.717 173.186 406.695 173.52 407.148 174.251C407.391 174.356 407.383 174.474 407.148 174.602H407.144Z" fill="#EFEDE9"/>
<path d="M407.145 174.251C407.209 174.353 407.892 174.36 407.606 174.776L407.367 174.957C407.166 174.861 407.166 174.609 407.141 174.606V174.255L407.145 174.251Z" fill="#C5DAC5"/>
<path d="M415.398 176.714C415.27 176.76 415.257 177.288 414.715 177.069L414.484 176.888C414.651 176.642 414.928 176.731 414.941 176.711H415.398V176.714Z" fill="#D0DECD"/>
</g>
<defs>
<clipPath id="clip0_57_357">
<rect width="518" height="394" fill="white"/>
</clipPath>
</defs>
</svg>
