<svg width="554" height="405" viewBox="0 0 554 405" fill="none" xmlns="http://www.w3.org/2000/svg">
<g clip-path="url(#clip0_57_341)">
<path d="M240.425 202.381C240.809 202.298 241.17 201.848 241.063 201.33C240.49 198.541 239.468 195.767 239.048 192.916C238.83 191.415 239.261 189.707 238.977 188.403C238.658 186.912 236.573 187.109 236.703 185.95C236.726 185.743 238.694 182.674 239.013 182.348C241.14 180.164 245.459 180.123 243.45 176.35C243.22 175.92 239.751 172.241 239.279 171.873C238.599 171.351 236.98 171.382 236.691 170.559C236.437 169.85 237.666 167.366 236.974 165.233C236.366 163.355 231.29 163.681 235.29 161.28C235.911 160.907 237.169 160.772 237.228 160.7C237.678 160.172 231.668 150.37 231.284 148.631C229.352 147.995 226.823 146.416 224.732 146.442C221.635 146.479 221.435 151.043 215.024 149.915C214.38 149.801 212.27 148.937 211.981 148.518C211.756 148.197 211.118 142.576 211.159 141.733C211.49 135.466 217.795 130.43 223.857 127.905C237.376 122.269 251.486 127.424 262.547 134.752C263.369 134.881 271.464 128.459 273.384 127.584C284.628 122.445 299.849 124.779 310.727 129.618C319.673 133.598 322.231 139.911 327.762 146.732C327.791 149.972 317.297 148.828 314.745 149.071C312.34 149.304 302.437 151.83 300.511 152.865C291.866 157.522 308.889 169.498 306.845 171.889C304.446 170.119 303.382 171.439 301.208 171.775C298.774 172.153 296.735 171.045 295.961 173.783C295.293 176.132 296.558 177.933 292.357 178.518L299.902 201.869C305.314 200.937 330.22 197.537 332.678 201.869C333.156 202.712 334.498 211.143 334.698 212.804C335.608 220.303 337.056 249.977 333.458 255.416C332.855 256.327 331.691 256.829 331.224 257.776C335.295 256.695 339.313 259.458 342.51 259.836C350.132 260.736 359.444 259.018 367.19 259.303C366.499 255.887 364.78 252.151 366.647 248.911C366.919 232.081 366.015 215.391 364.916 198.639C365.441 197.17 372.018 197.93 373.891 197.827C380.556 197.459 387.428 196.631 394.081 197.837C395.682 196.549 393.638 195.198 393.354 193.438C392.19 186.25 394.353 177.576 395.044 170.362H392.143L393.023 171.889C388.775 175.02 384.337 173.524 379.729 173.462C378.033 173.436 376.13 174.156 373.85 173.928C371.864 173.726 365.908 170.502 365.111 169.12C363.527 166.393 369.631 163.909 370.718 161.502C371.338 160.131 371.492 157.797 371.285 156.353C370.83 153.191 363.74 153.853 364.396 149.382C364.555 148.305 370.422 143.772 370.777 141.733C373.655 138.933 375.941 129.333 379.528 128.055C384.828 126.166 389.543 130.958 392.881 130.12C395.369 129.499 395.416 124.329 399.665 123.325C402.584 122.631 405.827 123.744 407.452 123.48C408.191 123.356 409.887 121.503 411.718 121.177C421.509 119.433 424.676 124.07 430.278 129.607C436.7 129.307 448.843 128.164 454.249 131.46C456.453 132.806 457.109 135.16 458.557 136.325C460.004 137.489 461.517 136.801 461.812 139.088C462.196 142.023 459.916 144.434 459.508 147.296C459.23 149.258 459.679 151.255 459.307 153.217C458.864 155.556 456.311 158.154 455.992 159.965C455.531 162.522 455.709 166.056 455.555 168.706C452.211 172.179 446.332 169.586 442.32 169.343C440.275 169.218 438.916 169.751 437.173 169.803C435.058 169.865 433.114 167.862 432.889 171.273C432.736 173.571 435.347 178.358 436.074 180.925C437.888 187.326 439.566 193.738 438.562 200.342L462.592 200.896C463.839 201.046 466.734 201.889 467.284 202.888C470.723 219.992 470.492 237.489 468.737 254.728C471.644 254.537 474.108 253.305 477.128 253.186C483.32 252.943 495.256 254.531 500.875 256.819C506.671 259.174 504.58 265.544 500.042 268.178C485.689 272.35 469.275 270.828 454.237 271.511C454.604 275.957 451.129 281.603 450.881 285.619C450.633 289.531 457.907 304.902 459.585 309.782C468.188 334.856 475.432 360.664 479.686 386.716C479.858 387.767 480.59 391.229 480.082 391.964C477.577 395.586 456.944 394.06 452.772 390.934C446.343 367.081 444.134 342.504 439.726 318.269L416.209 379.238C414.141 381.66 403.446 380.692 400.25 380.045C398.17 379.626 393.685 378.767 394.459 376.49C402.891 349.853 415.807 324.376 426.236 298.267C425.633 296.906 424.729 295.576 423.748 294.406C419.861 289.8 416.38 284.77 412.191 280.123C411.163 278.979 411.712 277.318 408.817 278.11C408.285 278.254 403.966 285.51 403.346 286.649C401.236 290.514 396.616 303.784 394.193 305.569C392.261 306.987 384.402 310.046 381.862 310.522C376.467 311.536 362.93 311.686 364.035 304.462C364.88 298.929 374.83 300.358 375.309 299.949C375.439 299.835 375.587 297.76 376.065 296.797C379.906 289.122 387.375 279.998 390.748 272.049C390.914 271.651 391.345 271.03 390.701 270.988L312.671 271.506C317.274 279.823 320.435 288.698 322.373 297.817C323.247 299.468 326.095 298.924 327.886 299.592C331.242 300.839 327.632 302.097 327.277 303.375C327.07 304.11 327.827 304.782 327.342 305.911C324.866 311.645 308.44 309.047 303.394 307.329C300.759 306.433 299.028 305.295 298.011 302.852C297.137 300.761 300.062 300.347 300.387 299.871C300.995 298.981 295.488 282.446 294.655 279.916C293.757 277.209 291.636 274.326 292.363 271.506C287.63 271.402 282.861 271.63 278.129 271.527C274.944 271.454 267.605 270.067 264.923 271.475C264.45 271.723 262.701 274.326 262.813 274.756C263.044 275.631 265.525 275.895 266.022 276.573C266.518 277.25 262.742 284.491 262.187 285.976C260.645 290.095 256.904 304.679 253.087 306.464C249.595 308.105 243.764 307.484 239.84 307.567C238.28 307.598 236.88 308.152 235.225 308.141C232.791 308.12 223.609 306.376 222.847 304.182C221.606 300.606 226.599 295.912 229.884 294.277C231.237 293.604 234.629 292.916 234.83 292.766C235.403 292.331 239.013 282.312 240.053 280.309C241.902 276.754 244.112 273.255 246.535 269.984C242.227 269.395 237.796 269.757 233.488 269.467C215.077 268.23 196.287 267.65 177.805 267.418C169.899 267.319 161.975 267.475 154.069 267.506C151.21 269.591 157.946 268.515 158.802 269.581C159.068 269.912 160.693 276.086 161.213 277.375C163.488 282.979 168.67 291.606 169.367 297.185C169.97 302.029 163.6 299.048 160.445 300.032C159.216 300.415 159.878 303.028 156.315 303.033C146.896 303.049 143.304 285.852 140.633 279.647C139.942 278.037 136.006 269.001 135.422 268.458C131.752 265.042 134.074 273.721 136.278 274.813C135.179 276.464 132.839 275.067 131.906 275.206C130.972 275.346 126.245 288.507 125.4 290.426C125.885 291.958 127.374 293.501 128.018 294.763C134.866 308.229 141.425 321.586 148.048 335.156C157.42 354.345 166.3 373.975 174.998 393.992C175.843 395.928 179.755 401.331 178.543 403.059C178.289 403.422 174.413 404.395 173.562 404.534C168.244 405.419 161.774 404.917 156.451 404.027C154.66 403.727 149.467 402.826 148.249 402.061C146.754 401.119 147.221 400.027 146.524 399.24C146.063 398.723 143.983 397.579 143.924 397.444C143.706 396.953 144.438 396.285 144.326 395.804C144.19 395.234 143.002 395.146 142.648 394.634C141.259 392.605 139.717 388.972 138.589 386.638C131.652 372.277 127.208 358.796 122.186 344.083C116.821 328.376 111.669 312.281 106.108 296.409C105.104 296.632 104.832 298.645 104.631 299.426C97.5408 327.201 91.5021 355.039 83.7499 382.783C77.6285 386.882 68.6355 383.818 62.1004 381.722C61.545 380.972 62.9986 371.682 63.3294 369.974C68.1096 345.63 77.1972 321.633 85.0735 298.044C88.1933 288.693 90.9999 279.233 94.5156 269.979C89.4045 270.311 84.2699 270.305 79.147 270.486C67.6369 270.9 53.3142 272.365 41.9872 271.516C37.8925 271.211 31.3279 268.411 38.0875 267.045C46.0938 265.43 56.8062 265.725 65.2084 264.882C72.4407 264.157 79.6138 262.605 86.9229 262.305C87.0115 258.04 87.1829 253.646 86.9938 249.367C86.3557 235.062 85.3571 219.371 83.484 205.176C83.4013 204.565 82.9641 201.579 82.8282 201.429C82.5918 201.175 79.9152 201.144 79.4425 200.088C79.4425 199.426 84.1222 197.879 85.0026 197.801C86.6156 197.656 88.1814 198.665 90.1372 198.841C95.6146 199.333 102.268 197.553 107.869 197.801C108.058 191.291 109.24 184.739 109.63 178.254C109.908 173.638 109.535 175.087 106.569 172.898C106.026 172.499 105.813 171.837 105.187 171.449C102.102 169.534 92.7252 166.817 102.339 165.756C103.172 165.663 104.046 166.222 103.798 165.021C99.857 160.441 96.4064 153.512 94.9055 147.907C94.232 145.381 92.1816 133.473 92.867 131.548C92.9675 131.269 93.452 130.71 93.6529 130.71H102.935C104.413 130.71 118.995 138.69 122.641 139.88C124.455 140.475 126.836 140.491 128.319 141.008C129.661 141.474 130.163 142.784 131.085 143.156C134.854 144.667 141.33 141.008 144.373 139.057C145.714 138.193 150.111 134.86 151.121 133.784C152.131 132.707 153.372 129.908 154.424 129.525C156.451 128.785 170.307 128.986 171.559 130.322C173.432 139.979 181.208 151.25 181.019 160.948C180.794 172.738 166.017 176.929 156.025 181.282C161.148 185.619 161.449 193.014 163.624 198.769C166.454 198.417 169.337 199.379 171.979 199.374C175.512 199.374 184.47 197.102 185.953 201.341L185.675 257.217C196.842 260.504 208.808 258.956 220.436 259.303L219.839 205.196C219.981 203.39 224.365 202.376 225.943 202.376C229.275 202.376 237.908 202.94 240.449 202.376L240.425 202.381Z" fill="#FFF2F1"/>
<path d="M270.672 0.160586C271.977 -0.232729 276.19 0.0415563 276.628 1.44403C276.444 6.42774 273.579 11.7064 273.762 16.628C273.957 21.8912 276.976 27.7392 277.667 33.0334C278.471 39.1815 276.604 46.1577 277.342 52.637C278.418 62.0145 282.702 66.7342 281.26 77.54C281 79.4911 279.913 84.9923 278.471 86.2757C276.917 87.6627 272.982 87.4091 272.621 85.1993C272.237 82.8498 274.01 83.3052 274.648 82.415C275.481 81.2558 276.226 72.339 276.102 70.4914C275.747 65.0575 272.533 59.5511 271.552 54.1533C270.217 46.8097 271.629 39.5334 270.884 32.3761C269.827 22.2121 265.265 19.521 268.149 7.60251C268.55 5.94127 269.295 2.22549 269.838 0.95239C270.027 0.507323 270.128 0.326192 270.672 0.160586Z" fill="#FFF2F1"/>
<path d="M154.118 11.9135C157.184 14.8065 155.022 27.9463 155.441 32.3607C155.885 37.0494 158.597 42.1211 158.691 46.6856C158.803 52.2386 156.298 57.7243 157.226 63.8362C157.763 67.3916 160.564 71.7129 161.533 75.3096C163.601 82.9999 161.285 87.2229 160.151 94.4371C159.832 96.4813 161.072 98.6135 158.047 98.7429C156.422 98.8101 155.193 98.4065 154.868 96.8953C154.1 93.34 157.303 86.162 157.179 81.6751C156.966 74.1297 151.293 67.7073 150.809 60.3119C150.502 55.6905 152.611 50.6447 152.481 46.1422C152.357 41.8882 149.036 35.7194 148.552 30.7771C148.061 25.783 149.657 20.8149 149.06 16.1003C148.682 13.0883 145.255 10.4076 150.508 10.7439C151.353 10.7957 153.616 11.4322 154.13 11.9135H154.118Z" fill="#FFF2F1"/>
<path d="M514.99 34.26C515.988 34.0582 517.247 33.9909 518.222 34.26C521.017 35.0156 518.736 36.1024 517.938 37.36C510.724 48.7454 512.041 62.6252 504.715 73.5552C502.203 77.3021 496.318 85.2512 493.098 88.2838C489.139 92.0048 483.396 94.7269 479.461 98.7015C476.412 101.781 469.316 113.71 464.429 113.44C463.691 113.399 461.646 112.737 462.048 111.924C462.379 111.262 465.499 109.057 466.397 108.1C469.546 104.725 471.715 100.347 474.888 97.2421C479.248 92.9674 485.429 89.9244 489.612 85.2356C494.203 80.0915 501.169 70.5588 502.924 64.3693C505.051 56.8601 505.766 49.2008 509.069 41.8003C510.038 39.6215 512.231 34.8293 514.984 34.2755L514.99 34.26Z" fill="#FFF2F1"/>
<path d="M549.244 104.881C550.314 104.725 553.694 105.238 553.995 106.123C554.19 106.692 552.199 115.345 551.75 116.727C548.541 126.601 542.296 135.13 537.279 144.243C535.17 148.073 532.08 157.409 529.031 159.888C525.604 162.672 522.248 160.912 519.795 161.963C518.023 162.724 514.72 169.001 510.359 170.466C508.569 171.066 505.154 171.221 504.705 169.079C503.753 164.499 508.12 167.112 509.562 166.745C510.554 166.496 513.692 161.425 515.175 160.452C517.928 158.651 520.646 159.727 522.903 159.091C524.41 158.666 528.989 147.312 530.142 145.102C536.747 132.47 545.368 120.308 547.182 106.154C547.478 105.45 548.453 104.989 549.244 104.87V104.881Z" fill="#FFF2F1"/>
<path d="M425.367 21.0683C426.679 19.9866 430.844 20.5042 430.939 21.6841C430.951 21.8601 429.751 24.0078 429.544 24.9704C425.207 45.1691 419.499 55.7783 406.288 72.7063C400.621 79.9619 390.949 83.362 392.763 93.3294C393.058 94.9648 394.364 95.8239 395.616 96.9158C394.175 98.5771 390.949 97.2522 389.53 96.1603C386.759 94.0126 387.321 88.8943 388.39 86.0065C390.411 80.5622 395.811 78.6474 399.345 74.2589C407.156 64.5554 418.471 47.6894 421.573 36.2988C422.371 33.3645 423.458 22.6467 425.361 21.0734L425.367 21.0683Z" fill="#FFF2F1"/>
<path d="M73.7709 137.707C74.1372 137.991 78.811 139.518 73.9127 139.906C66.4027 140.501 67.4545 132.221 66.3909 128.148C64.7542 121.855 58.3078 118.269 54.9399 112.768C54.1304 111.443 54.0535 109.538 52.9841 108.384C51.2646 106.526 46.2009 105.481 43.991 103.928C43.0102 99.8607 40.5817 95.5911 39.5536 91.6838C38.4723 87.6006 37.0069 83.2793 43.7429 84.4593C45.9054 84.8371 45.7755 89.5258 46.3781 91.2957C47.1817 93.6711 48.5585 95.9327 49.4329 98.277C49.9647 99.7106 49.7047 101.677 50.5142 102.919C51.3828 104.244 55.1467 105.077 56.7538 106.097C60.5295 108.498 60.2281 110.915 62.1248 114.098C64.9078 118.776 70.013 121.483 71.6142 127.134C72.211 129.235 72.4414 136.672 73.7709 137.707Z" fill="#FFF2F1"/>
<path d="M11.2907 169.555C13.0869 171.056 16.0413 172.588 16.8803 174.57C18.3752 178.094 15.6395 179.207 20.2719 182.27C22.0504 183.445 23.7935 183.487 25.4538 185.355C27.8705 188.072 28.225 193.413 32.8456 194.127C35.7645 194.577 38.1457 193.796 41.1237 195.012C44.2789 196.295 44.3085 198.629 40.9701 198.22C39.5165 198.044 38.1871 196.533 36.7453 196.305C32.7865 195.679 30.1808 196.89 26.0742 194.468C22.0268 192.083 21.9854 188.594 19.3915 186.09C16.6321 183.435 11.6629 183.502 10.4989 179.139C10.2094 178.053 10.4989 176.909 10.233 175.812C9.45305 172.557 1.28131 168.856 0.176385 165.808C-0.928542 162.76 3.67434 162.61 5.94919 163.303C6.60505 163.505 7.515 166.201 8.39539 167.257C9.32306 168.375 10.3039 168.727 11.2907 169.55V169.555Z" fill="#FFF2F1"/>
<path d="M321.368 203.902L323.708 227.01C323.442 236.837 324.346 246.644 323.075 256.425L325.421 257.771C321.699 258.444 318.277 258.79 314.472 258.997C305.781 259.463 296.74 258.878 288.007 259.308C281.909 259.608 275.812 261.249 269.808 261.549C264.981 261.787 259.362 261.114 254.328 261.316C248.236 261.559 241.092 262.822 235.183 262.801C232.643 262.796 229.558 261.906 226.793 262.356L227.939 206.179C228.719 205.652 229.6 205.512 230.557 205.419C235.461 204.948 242.847 205.32 247.999 205.408C265.909 205.719 282.66 207.934 300.77 206.438C307.654 205.869 314.466 204.301 321.379 203.902H321.368Z" fill="#62B788"/>
<path d="M177.472 201.879L176.799 257.192C173.437 259.303 170.37 258.434 166.813 258.863C147.025 261.249 135.036 261.616 115.124 260.809C112.542 260.706 98.0064 261.399 97.4037 260.835C96.9842 260.436 98.1718 256.26 92.7653 257.274L91.5954 230.596C90.3664 220.862 89.8937 211.06 88.1211 201.372C95.2234 201.864 102.261 200.668 109.304 200.358C128.383 199.519 145.506 201.108 164.397 201.9C168.734 202.081 173.141 201.719 177.478 201.884L177.472 201.879Z" fill="#221185"/>
<path d="M454.195 204.451C457.303 220.639 457.404 237.05 456.565 253.471C456.506 256.141 454.136 256.71 451.708 257.347C438.874 260.7 426.206 258.754 413.307 258.775C401.702 258.796 389.318 261.011 377.908 261.357C374.469 261.461 374.162 259.619 373.601 256.953C371.515 247.1 373.772 230.327 373.612 219.382C373.571 216.53 371.94 202.055 373.547 201.072C374.085 200.746 384.863 200.28 386.6 200.326C397.856 200.611 409.715 202.593 420.876 203.385C431.92 204.172 443.122 203.825 454.195 204.441V204.451Z" fill="#C14F4E"/>
<path d="M386.344 170.875C386.326 171.718 383.898 171.811 383.301 171.765C382.114 171.672 379.372 170.916 378.805 169.86L386.344 170.875Z" fill="#FFFCFC"/>
<path d="M122.351 196.797L116.555 197.294C117.642 195.224 120.431 197.18 122.351 196.797Z" fill="#FFFDFD"/>
</g>
<defs>
<clipPath id="clip0_57_341">
<rect width="554" height="405" fill="white"/>
</clipPath>
</defs>
</svg>
