<svg width="714" height="652" viewBox="0 0 714 652" fill="none" xmlns="http://www.w3.org/2000/svg">
<g clip-path="url(#clip0_57_189)">
<path d="M329.381 436.165L329.48 450.741C348.091 457.098 352.01 478.745 351.742 496.797C350.909 552.416 333.17 616.308 397.189 640.446C432.646 653.809 477.667 639.493 509.642 621.96C538.511 606.128 561.389 587.957 580.992 560.776C593.165 543.893 608.215 512.456 600.715 491.177C599.276 487.105 584.633 471.674 580.784 469.367C572.926 464.667 558.551 461.614 548.948 456.805C533.759 449.203 511.12 437.53 499.562 425.369C485.981 411.074 479.135 395.35 483.887 375.1C486.02 366.003 493.173 361.184 491.685 349.337C489.294 330.224 469.581 315.052 466.02 296.404C460.266 266.245 470.008 245.692 493.014 228.538C504.542 219.94 518.303 215.121 527.479 203.263C535.188 193.311 539.196 179.168 544.503 167.614C559.573 134.812 599.127 89.1676 633.433 78.3168C636.935 77.2122 640.785 76.1076 644.446 76.2159C644.674 64.488 636.4 51.937 629.287 43.2737C616.509 27.7123 605.278 22.2111 590.119 10.8947C588.998 10.0608 582.093 4.39718 581.954 3.86656C581.309 1.40834 584.226 0.704451 585.962 0.498698C623.999 -4.00622 702.234 21.9945 712.75 65.2352C715.062 74.7432 715.121 79.8545 704.407 80.1252C701.917 80.1902 695.786 79.6271 693.305 79.2264C691.52 78.934 687.214 77.8836 685.865 76.8982C682.601 74.5266 681.331 60.9144 680.111 56.6044C675.408 40.0467 654.069 23.5431 639.217 17.1431C628.036 12.3241 614.713 7.99245 602.738 6.71461L617.907 16.8832C632.987 28.1021 654.952 52.8034 656.192 72.9888C656.321 75.1005 655.507 83.3198 654.704 84.9334C652.412 89.5249 643.324 86.3412 644.436 80.8616C635.289 83.8071 626.925 89.33 619.167 95.1994C604.177 106.537 587.272 128.716 577.083 145.024C564.801 164.69 565.367 189.564 551.309 207.129C536.051 226.188 507.657 229.416 493.362 252.092C485.99 263.787 484.304 285.792 488.074 299.025C493.887 319.427 521.695 335.693 513.838 361.379C512.281 366.469 508.531 370.855 506.844 374.981C497.35 398.35 509.91 412.818 524.592 428.758C539.414 437.8 556.904 449.052 572.649 456.167C582.242 460.498 598.84 463.487 606.627 470.147C608.502 471.75 619.177 483.857 620.606 486.001C629.415 499.245 624.743 526.588 618.731 540.45C600.119 583.333 557.658 613.297 517.975 632.93C477.637 652.888 410.93 660.133 369.838 640.24C327.149 619.578 325.313 587.275 326.365 542.356C326.871 520.621 333.22 491.708 326.395 471.706L324.678 471.306C324.47 469.432 320.393 460.173 318.775 460.509C317.039 460.877 312.605 470.678 311.682 472.833L310.005 473.255C291.096 511.666 287.703 566.364 230.867 554.159C203.208 548.225 197.345 512.023 198.258 487.495C199.2 462.123 208.843 437.172 209.448 412.233L210.192 411.464C209.26 410.803 209.28 408.475 210.192 407.598C209.498 407.381 209.25 406.612 209.448 405.28C208.823 402.281 208.694 400.007 207.345 397.029C205.847 393.737 203.099 391.289 201.194 388.344C199.012 387.033 193.456 398.512 192.503 400.462C178.297 429.733 167.344 461.202 166.948 494.458C166.888 499.916 168.575 507.215 167.553 512.088C166.332 517.914 153.673 514.763 149.824 513.041C148.882 508.861 149.209 503.696 149.13 499.104C148.554 466.476 155.201 438.277 169.785 409.309C171.134 403.19 165.38 399.379 160.777 397.419C156.431 395.556 154.318 395.502 151.917 400.104C148.604 406.461 143.971 421.167 142.007 428.455C135.241 453.568 131.203 480.38 124.913 505.731C124.377 512.099 109.516 509.998 108.236 507.908C107.82 507.226 108.077 504.172 108.206 503.078C109.903 488.892 115.994 467.505 119.516 453.015C122.294 441.591 125.776 430.242 128.842 418.893C128.306 416.077 107.036 404.891 103.464 404.252C97.5317 403.18 92.3332 413.63 89.8629 418.395C75.0412 447.038 68.6225 490.82 70.8844 523.058C71.2019 527.552 73.5729 547.575 76.4301 549.773C77.7 550.748 80.577 550.066 78.7218 552.838C76.827 555.675 64.3168 553.856 61.8862 551.701C56.1123 546.579 54.2572 521.033 54.0191 512.9C53.3345 488.892 57.8882 465.176 65.3089 442.381C66.1423 439.825 72.5015 424.708 71.6186 423.82C62.7295 423.073 63.6621 415.514 53.5032 421.643C25.7051 438.396 15.0005 511.146 17.2526 541.608C17.8478 549.665 23.3439 575.893 30.2389 579.9C32.2032 581.037 34.5247 580.225 35.8541 582.564C31.6973 587.697 18.8399 584.297 14.316 580.972C5.15912 574.226 0.724518 548.842 0.149111 537.786C-1.61679 503.457 8.06591 456.383 30.2687 430.014C43.4633 414.344 56.2512 410.435 75.3289 419.207C78.8211 411.031 84.9124 400.992 94.3273 399.898C108.782 398.209 119.824 404.739 131.58 412.244C137.076 401.436 136.282 392.654 150.211 391.419C159.934 390.553 166.61 393.618 175.142 397.592C179.845 377.926 199.557 375.804 214.994 383.698L216.115 380.601C217.206 381.045 217.752 382.074 217.762 383.687C233.129 394.04 233.179 413.554 230.5 430.242C230.421 430.729 229.439 430.848 228.774 430.816C225.629 445.608 222.474 460.715 220.897 475.8C218.635 497.382 218.913 528.148 235.52 543.752C250.302 557.646 268.755 527.011 272.584 514.048C277.316 499.353 282.376 484.799 287.733 470.396L289.846 469.432C289.301 469.053 288.705 468.349 288.973 467.862C298.577 450.633 306.563 444.872 326.801 448.435C326.841 444.406 327.089 440.367 327.545 436.317L329.331 436.219L329.381 436.165Z" fill="#FFF2F1"/>
<path d="M102.948 257.733C86.8368 257.008 62.2233 254.528 47.2329 248.691C39.0879 245.518 36.7962 238.511 35.2684 230.195C29.4945 198.899 29.3656 171.046 31.4489 139.165C32.4112 124.459 34.4748 90.5207 40.9729 78.7494C45.2289 71.0391 56.7668 69.6421 64.5447 69.2089C84.2474 68.1044 116.768 69.7612 134.754 78.3487C138.246 80.0164 141.113 82.8428 143.346 85.2685C143.832 85.7992 145.746 85.68 146.868 86.6438C153.872 92.654 153.554 113.067 154.745 122.153C155.112 124.936 156.124 128.13 156.57 131.043C158.386 132.603 158.574 133.231 158.653 135.797C158.425 138.851 158.286 141.916 158.802 144.948C158.812 151.803 160.677 159.166 161.064 166.162C162.175 186.228 164.04 221.802 155.548 239.183C155.231 239.822 155.945 240.861 155.151 241.923C154.636 242.605 150.221 247.088 149.487 247.684C140.746 254.809 124.923 257.127 114.109 257.733C113.057 260.256 107.403 259.996 105.676 258.383L102.938 257.733H102.948Z" fill="#62B788"/>
<path d="M311.504 263.917C311.643 263.234 311.891 263.256 312.248 263.917C313.567 262.195 314.827 261.967 316.345 263.516C320.452 261.816 327.179 261.383 330.869 263.917C332.109 264.036 340.354 265.779 340.869 266.147C341.752 266.775 341.475 269.938 340.929 270.88C340.026 272.439 337.744 271.703 337.109 276.024C336.107 282.889 338.865 294.314 338.994 301.472C339.213 314.164 338.151 328.014 337.576 340.836C337 353.658 336.99 367.876 333.3 379.604C330.086 389.794 329.927 423.841 329.381 436.186C329.381 436.295 328.667 437.085 328.617 438.06C328.419 442.045 328.806 446.106 328.637 450.091C318.984 449.398 307.575 446.972 299.946 454.704C297.486 457.195 291.464 466.194 289.906 469.399C289.281 469.594 288.666 469.757 288.031 469.811C280.243 470.471 244.906 445.651 236.225 439.143C233.755 437.291 229.389 433.468 228.834 430.772C229.578 430.154 230.421 413.218 230.352 411.095C230.133 404.056 228.08 397.007 223.923 391.44C222.375 389.372 216.998 385.224 216.542 384.412C215.897 383.264 216.135 381.824 216.165 380.568C216.502 365.938 221.959 348.99 224.26 334.501C226.106 322.881 225.421 309.128 227.316 298.267C227.643 296.382 229.27 296.772 229.568 295.808C230.391 293.155 229.072 290.643 229.112 289.82C229.151 289.051 230.431 288.163 230.709 287.123C231.76 283.192 230.987 279.814 236.076 278.785C238.646 278.265 241.146 279.088 243.695 278.189C251.096 275.59 260.928 263.624 269.588 261.794C279.966 259.596 299.807 263.516 311.504 263.938V263.917Z" fill="#221185"/>
<path d="M341.771 42.526C342.168 42.775 342.257 43.9446 343.299 44.3777C345.333 45.2332 348.17 44.3128 349.837 46.8901C352.248 50.6045 353.954 61.217 356.394 66.35C358.111 69.967 361.176 73.5622 363.031 77.2333C369.043 89.1887 374.688 104.458 379.5 117.149C380.859 120.723 383.25 131.855 384.907 134.108C385.591 135.05 388.568 136.295 389.966 138.093C391.683 140.302 393.28 145.078 394.917 146.897C397.447 149.713 405.076 151.25 394.738 155.16C390.601 156.719 389.788 157.499 386.534 159.004C365.363 168.848 338.785 174.057 315.838 177.608C302.098 179.731 290.868 183.305 277.465 175.248C273.447 172.833 272.911 166.942 270.897 164.299C269.885 162.968 267.405 162.978 266.948 161.43C266.611 160.271 267.077 158.896 266.849 157.856C266.7 157.196 265.272 157.185 264.587 155.398C263.407 152.312 263.784 147.2 262.732 143.399C259.905 133.198 253.635 122.033 250.659 111.118C248.059 101.545 248.625 95.0147 247.285 86.0374C246.184 78.6303 235.073 58.5531 244.279 53.9724C247.067 52.5862 250.956 53.1602 253.605 52.0556C258.407 50.0522 263.278 45.7639 269.835 43.4031C288.496 36.6891 324.578 31.4478 341.781 42.5043L341.771 42.526Z" fill="#C14F4E"/>
<path d="M114.131 257.733C113.932 260.17 115.212 263.624 117.156 265.021C120.053 266.591 139.29 273.381 140.173 274.767C140.55 275.352 140.232 276.912 139.488 277.464C137.325 279.056 135.083 275.818 133.04 274.822C128.218 272.461 122.91 270.609 117.851 268.941C118.426 272.201 119.428 275.45 120.5 278.547C123.823 288.141 133.823 302.457 140.56 310.265C148.447 319.405 168.348 328.372 179.687 333.028C181.175 333.645 195.967 337.392 187.505 338.129C182.485 338.573 147.851 322.99 142.206 319.373C131.611 312.594 115.966 290.784 111.333 278.774C110.361 276.24 109.388 273.555 108.902 270.858L106.908 277.659L105.182 291.715C102.553 291.682 99.9041 292.57 99.9338 289.051C99.9735 284.091 102.702 272.948 104.071 267.772C105.341 262.964 109.319 259.206 102.95 257.722C107.424 257.928 109.656 257.971 114.121 257.722L114.131 257.733Z" fill="#FFF2F1"/>
<path d="M314.49 259.282C314.778 260.083 315.968 264.306 317.456 263.137C321.682 253.542 326.97 245.182 329.153 234.7C331.643 222.733 331.722 204.703 330.036 192.553C329.659 189.835 326.891 180.922 327.248 179.384C327.724 177.316 331.722 177.576 332.913 180.294C338.24 192.401 338.796 220.784 336.643 233.963C335.016 243.894 330.502 252.99 325.661 261.578C327 262.65 343.171 254.419 346.336 254.008C347.705 253.824 349.5 253.705 349.5 255.784C349.5 256.834 332.873 262.292 330.869 263.906C324.976 263.364 318.289 264.133 312.248 263.906C312.148 262.595 311.652 261.307 310.76 260.04C310.7 259.802 310.819 259.509 310.76 259.271L310.016 257.722C309.668 256.412 309.579 255.037 309.271 253.856L308.527 252.308C308.418 251.864 308.637 251.214 308.527 250.759L307.783 249.211C307.684 248.756 307.883 248.128 307.783 247.662L307.039 246.114C306.95 245.637 307.109 245.052 307.039 244.565C306.097 242.28 306.355 239.399 309.271 240.699C309.51 240.84 309.877 241.23 310.016 241.468L310.76 244.554C310.829 244.792 310.7 245.085 310.76 245.323L311.504 246.872C311.861 248.269 311.871 250.131 312.248 251.506L312.992 253.055C313.111 253.488 312.873 254.181 312.992 254.604L313.736 256.152C313.805 256.38 313.656 256.694 313.736 256.921L314.48 259.238L314.49 259.282Z" fill="#FFF2F1"/>
<path d="M156.578 131.054C157.154 131.39 157.213 133.361 158.086 132.18C164.128 124.004 168.255 121.037 177.283 116.608C193.503 108.638 213.087 103.537 231.073 104.014L216.926 88.1816C219.129 86.4381 220.478 87.077 222.512 88.5822C227.71 92.4266 232.333 100.137 236.996 104.447C238.097 105.465 240.31 105.649 240.697 106.829C241.232 108.475 239.655 111.172 240.726 113.219C237.472 114.323 234.02 117.106 231.46 119.489C228.157 122.564 225.905 128 221.391 127.188C219.734 125.715 231.937 114.735 233.355 113.727C234.665 112.796 236.183 111.984 237.77 111.735C236.768 110.533 232.671 108.161 231.411 107.912C217.69 105.227 178.285 117.713 167.412 127.21C161.122 132.7 158.81 136.36 158.82 144.948C157.402 140.497 157.282 135.646 156.588 131.043L156.578 131.054Z" fill="#FFF2F1"/>
<path d="M210.212 411.453C209.994 411.962 209.746 411.951 209.468 411.453C209.279 411.193 208.803 410.922 208.724 410.684C209.071 410.023 209.071 409.503 208.724 409.135C208.724 408.886 208.704 408.615 208.724 408.366C209.249 407.067 209.746 406.807 210.212 407.597C210.371 408.8 210.013 410.305 210.212 411.463V411.453Z" fill="#7B6CB3"/>
<path d="M309.272 240.742C306.037 240.158 307.148 241.836 307.039 244.608C307.029 244.543 306.365 244.738 306.285 243.439C306.107 240.526 306.762 239.27 309.272 240.742Z" fill="#FFF2F1"/>
<path d="M210.211 407.587L208.723 408.355C208.802 407.348 209.318 406.287 209.467 405.269C209.576 405.789 210.042 406.32 210.211 407.587Z" fill="#BAA8D1"/>
<path d="M310.758 260.051C311.909 261.902 314.121 261.35 312.246 263.917C311.998 263.917 311.75 263.917 311.502 263.917C311.442 262.585 311.095 261.318 310.758 260.051Z" fill="#FFF2F1"/>
<path d="M310.76 244.608L310.016 241.522C311.008 243.276 310.462 243.558 310.76 244.608Z" fill="#FFF2F1"/>
<path d="M314.49 259.282L313.746 256.964C313.994 257.712 314.242 258.578 314.49 259.282Z" fill="#FFF2F1"/>
<path d="M310.76 259.282C310.74 259.195 310.264 258.664 310.016 257.733L310.76 259.282Z" fill="#FFF2F1"/>
<path d="M313.744 256.195L313 254.647C313.02 254.733 313.466 255.307 313.744 256.195Z" fill="#FFF2F1"/>
<path d="M313.002 253.098L312.258 251.55C312.278 251.636 312.724 252.07 313.002 253.098Z" fill="#FFF2F1"/>
<path d="M308.525 250.781C308.505 250.694 308.039 250.38 307.781 249.232L308.525 250.781Z" fill="#FFF2F1"/>
<path d="M307.783 247.695C307.763 247.608 307.267 247.381 307.039 246.146L307.783 247.695Z" fill="#FFF2F1"/>
<path d="M208.724 410.684C208.615 410.37 208.724 409.612 208.724 409.135L209.468 409.525L208.724 410.673V410.684Z" fill="#4E3D9B"/>
<path d="M210.213 411.453C210.233 411.561 211.155 411.604 210.957 412.211H209.469V411.453H210.213Z" fill="#B0AAD1"/>
<path d="M311.502 246.926L310.758 245.377C310.778 245.464 311.234 245.886 311.502 246.926Z" fill="#FFF2F1"/>
<path d="M309.271 253.878C309.252 253.791 308.795 253.423 308.527 252.329L309.271 253.878Z" fill="#FFF2F1"/>
<path d="M97.7402 128.747C99.2481 120.994 92.9484 123.485 88.5634 125.791C67.8587 136.718 58.9697 189.51 89.1984 191.307C111.183 192.618 118.455 154.889 98.0576 151.987C92.7203 151.229 90.1905 152.355 87.7698 157.401C86.1825 160.704 85.3789 164.505 86.2023 168.155C87.3233 173.158 88.7023 170.483 91.4306 170.58C98.4743 170.851 94.3572 175.161 88.9107 175.41C71.3013 176.201 75.2795 149.778 89.9127 148.045C109.764 145.706 124.705 158.463 115.002 179.471C108.504 193.538 96.1529 196.711 82.0852 193.246C45.8048 184.301 69.208 116.207 97.3235 121.07C102.661 121.99 103.584 129.484 97.7402 128.747Z" fill="#FFF2F1"/>
<path d="M66.4508 243.839V244.597C65.0916 244.706 63.2067 244.847 62.7305 243.071L66.4508 243.839Z" fill="#7EC59F"/>
<path d="M88.0558 247.705V248.463C84.9606 248.842 84.9606 247.326 88.0558 247.705Z" fill="#85CAA7"/>
<path d="M76.8768 222.214C77.3828 222.484 76.4403 223.524 75.3986 222.972C74.8926 222.701 75.8351 221.661 76.8768 222.214Z" fill="#99D5B8"/>
<path d="M283.912 296.393C283.158 305.565 284.874 315.474 284.636 324.43C284.438 331.869 283.356 341.713 282.374 349.185C281.818 353.43 280.717 357.751 280.221 362.029C268.594 358.921 256.411 359.202 244.477 358.152L254.516 292.484C255.389 291.293 257.661 291.65 258.981 291.737C266.987 292.224 275.826 295.646 283.912 296.404V296.393Z" fill="#FFF2F1"/>
<path d="M292.139 271.638C292.793 271.854 292.783 272.114 292.139 272.407C290.928 272.515 289.589 272.244 288.418 272.407C287.297 272.547 286.801 272.288 286.93 271.638C289.46 270.706 289.728 271.367 292.148 271.638H292.139Z" fill="#B0B0D7"/>
<path d="M284.697 273.186H285.441L281.354 275.515C280.719 274.031 283.695 273.446 284.697 273.186Z" fill="#4A3F9D"/>
<path d="M288.416 272.417C288.168 272.45 286.302 273.002 285.439 273.186C285.201 273.24 284.923 273.132 284.695 273.186C285.251 272.374 286.054 271.963 286.927 271.638L288.416 272.407V272.417Z" fill="#828AC3"/>
<path d="M339.807 70.0428C341.563 72.5876 334.598 72.3819 333.686 72.566C330.005 73.2915 324.39 74.3311 321.017 75.6414C318.388 76.6594 315.868 79.3017 313.021 79.7782C310.56 80.1897 308.04 78.7927 305.213 79.345C303.407 79.7024 302.604 81.3267 299.985 81.6516C293.357 82.4638 282.524 80.0814 276.978 83.276C275.887 83.9041 269.934 91.701 269.061 87.4127C268.952 86.8821 272.008 82.8969 272.603 82.388C275.133 80.2546 281.105 78.457 284.33 78.4787C288.526 78.5003 295.044 79.5074 299.241 78.9552C300.411 78.8035 301.731 76.8001 303.12 76.4103C306.512 75.4465 309.39 77.5474 312.455 76.8543C314.211 76.4536 317.227 73.8113 319.846 72.9017C322.624 71.9379 338.368 67.9744 339.807 70.0536V70.0428Z" fill="#FEF0EF"/>
<path d="M316.514 99.5738C317.655 99.3247 321.941 99.0323 321.921 100.548C321.911 101.361 318.766 101.945 317.814 102.454C314.61 104.155 311.266 107.642 308.32 108.833C304.996 110.186 301.593 109.612 298.627 110.37C294.808 111.345 291.107 114.832 284.718 116.034C283.032 116.348 275.482 118.297 275.016 115.991C275.323 113.121 278.597 114.345 280.512 113.977C283.359 113.424 288.359 112.634 290.829 111.551C293.3 110.468 294.718 108.194 298.062 107.457C300.582 106.905 302.883 107.349 305.423 106.602C309.133 105.508 312.606 100.44 316.514 99.5738Z" fill="#FEEFEE"/>
<path d="M313.735 143.421C315.094 145.316 307.832 148.435 306.691 148.846C301.771 150.611 289.578 151.499 286.711 153.416C285.53 154.207 285.183 157.802 282.465 154.597C282.217 153.308 282.792 152.723 283.556 151.878C286.254 148.9 297.991 148.348 302.584 146.897C305.253 146.052 312.217 141.298 313.745 143.421H313.735Z" fill="#FDEEED"/>
<path d="M300.331 39.1473V40.685H297.364C296.462 40.2627 299.924 38.725 300.331 39.1473Z" fill="#D07E7D"/>
<path d="M302.564 39.1473C303.07 39.418 302.128 40.4576 301.086 39.9053C300.58 39.6346 301.523 38.595 302.564 39.1473Z" fill="#D28B8B"/>
</g>
<defs>
<clipPath id="clip0_57_189">
<rect width="714" height="652" fill="white"/>
</clipPath>
</defs>
</svg>
