<svg width="550" height="394" viewBox="0 0 550 394" fill="none" xmlns="http://www.w3.org/2000/svg">
<g clip-path="url(#clip0_57_275)">
<path d="M0 375.925C8.23193 375.9 16.3285 377.823 24.4872 378.687C38.7126 380.183 53.0565 380.851 67.3552 381.54L66.0471 380.543L66.9493 379.766C152.291 351.85 214.82 288.9 256.78 217.748C270.96 193.704 277.957 169.813 284.441 143.455C284.729 142.277 286.026 139.485 285.755 138.272C285.597 137.572 283.742 138.2 285.095 136.395L246.101 106.308C249.8 105.403 252.872 107.079 255.928 108.782C265.914 114.35 273.616 121.58 282.665 127.746C283.111 128.049 287.283 130.584 287.48 130.378C287.576 128.044 287.362 125.679 287.464 123.344C287.841 114.71 287.136 105.933 288.411 97.33C288.518 96.5947 289.273 92.4604 289.431 92.2444C289.933 91.5708 294.844 91.7251 295.312 92.3524C295.515 92.625 295.47 93.5711 295.735 94.1625C295.949 94.6407 297.066 95.3811 296.699 95.8542C296.451 96.173 295.301 95.5868 295.38 97.6642C295.622 103.681 297.426 109.882 298.447 115.77C298.96 118.747 298.684 121.863 299.806 124.763C307.581 119.189 315.74 114.026 323.537 108.478C326.368 106.468 329.322 102.806 333.077 102.328C334.363 102.164 338.941 101.994 339.387 103.331C339.764 104.452 336.562 105.48 335.372 106.313C333.151 107.871 330.85 110.592 328.618 112.309C323.464 116.289 317.685 119.673 312.464 123.57C310.823 124.794 300.922 132.404 300.725 133.345C304.311 167.16 308.929 201.525 324.124 232.784C333.963 253.023 347.038 272.877 362.041 289.908C390.199 321.871 429.036 346.122 462.2 373.359C466.373 376.789 470.207 380.538 474.808 383.541C476.054 385.356 471.571 385.598 470.421 385.567C465.572 385.449 461.388 383.788 457.639 381.129C448.415 374.583 439.433 365.996 430.502 358.936C410.632 343.227 389.838 328.484 371.536 311.536C338.191 280.652 311.979 240.039 301.227 197.478C300.714 195.452 300.561 194.285 299.794 192.161C298.565 191.935 298.639 191.297 299.794 190.958L300.161 190.233C303.053 189.832 302.168 189.318 297.511 188.685C295.436 187.981 296.107 184.854 298.114 184.309C297.037 184.067 296.423 183.61 296.276 182.931L296.028 182.103C296.964 181.167 297.342 179.974 297.161 178.519L296.18 177.722L293.231 153.559C291.828 160.933 292.132 168.456 293.339 175.84L292.763 177.717C292.459 178.74 289.973 179.116 288.788 179.254L281.549 179.403L285.208 180.247C286.031 180.643 285.941 181.275 285.445 181.969C284.007 182.756 281.459 184.762 284.227 185.276L284.842 186.145C286.353 187.549 285.332 188.788 281.786 189.868L281.758 190.963L281.983 191.817C277.066 203.407 271.592 214.514 264.809 225.595C223.407 293.204 162.428 354.889 80.4417 380.975C81.045 381.119 81.5017 381.474 81.7329 382.008C119.143 385.073 156.863 387.84 194.888 390.292C189.024 388.225 189.002 381.88 189.723 377.072C185.658 369.636 188.201 360.684 194.888 355.28C188.663 352.904 184.908 348.204 185.675 341.926C183.939 342.429 178.013 342.455 178.87 339.817C179.129 339.02 186.075 332.994 187.35 332.078C194.465 326.972 202.522 326.401 210.63 329.626C214.763 325.358 222.014 323.563 228.12 323.681C236.471 323.846 232.603 326.895 227.776 328.772C227.235 329.281 227.382 330.428 227.934 330.993C238.856 337.123 233.95 352.164 222.465 355.059L227.275 360.298C235.022 367.595 235.591 377.704 233.099 387.094L272.99 385.274C272.392 384.981 272.246 384.61 272.505 383.957C272.415 382.302 276.181 381.767 276.768 383.644C280.472 385.392 285.755 383.88 289.127 381.993L290.113 382.348C289.848 383.191 293.169 385.556 293.418 385.556H322.252V384.754H311.906C311.06 384.754 309.757 383.15 311.026 383.15H330.179C330.112 382.368 328.617 382.636 328.189 381.957C327.76 381.278 328.144 380.414 327.952 379.766C327.76 379.119 327.202 378.656 327.101 378.106C326.774 376.306 330.1 366.885 331.955 366.114C332.733 365.79 333.658 366.068 334.369 365.507C335.243 364.818 335.874 361.856 336.72 360.874C335.22 359.707 333.5 358.828 332.153 357.486C331.583 356.92 331.087 355.598 330.986 355.542C330.1 355.028 327.806 356 327.197 353.578C326.909 352.426 326.96 349.315 327.14 348.081C327.388 346.363 329.683 342.733 329.57 341.627C329.542 341.365 327.326 338.413 326.898 337.406C325.59 334.356 323.746 323.908 330.354 327.039C332.023 327.831 335.942 332.063 338.141 333.58C339.206 334.315 345.453 338.074 346.282 338.198C348.459 338.521 351.458 337.796 353.099 336.434C354.999 334.86 357.164 328.921 358.36 328.391C359.555 327.862 362.013 328.237 363 328.983C364.24 329.914 366.862 339.946 366.648 341.53C366.473 342.81 362.047 349.032 360.942 350.4C360.553 350.883 359.921 351.048 359.538 351.464C359.318 351.701 359.718 352.745 358.365 352.673C359.741 354.627 361.996 358.288 360.587 360.509C359.967 361.491 358.202 362.186 357.486 363.091C366.349 364.659 366.637 372.958 365.746 379.653C365.672 380.188 364.917 381.427 364.985 381.52C365.126 381.72 366.642 381.705 366.287 382.754C364.071 383.222 361.664 382.903 359.459 383.155C358.811 383.227 358.1 383.464 358.811 383.957C393.402 384.065 427.902 385.736 462.505 385.546C490.178 387.793 519.982 384.574 547.474 386.343C547.925 386.374 549.763 386.631 549.876 386.77C550.88 388.035 545.613 388.344 544.835 388.39C537.911 388.791 529.826 388.441 522.784 388.39C463.007 387.937 403.37 385.7 343.604 386.749C313.293 387.284 282.468 387.001 252.055 388.374C245.757 388.657 235.506 388.889 229.631 390.004C229.163 390.092 225.978 391.059 225.859 391.208C225.741 391.362 226.282 392.077 226.09 392.396C225.318 393.676 214.408 394.036 212.412 394C182.535 393.455 151.727 388.745 121.742 387.963C90.3877 384.034 58.4974 383.947 27.0864 380.738C23.3426 380.358 6.26416 377.463 4.27384 378.018C3.21947 378.311 2.18203 379.869 0.00563831 379.139V375.93L0 375.925Z" fill="#FFF2F1"/>
<path d="M0.440964 172.303C2.69065 169.958 4.99108 167.762 7.34225 165.546C7.59598 165.309 7.53959 164.636 7.923 164.286C8.41353 163.839 9.5863 163.746 9.6596 163.643C9.71034 163.576 9.18598 162.923 9.43406 162.476C9.71598 161.967 10.6519 161.823 10.9902 161.437C13.6064 158.47 15.6475 157.133 18.0607 154.629C18.5174 154.156 18.0043 153.642 18.2637 153.256C18.6471 152.685 20.316 152.238 20.9193 151.647C23.169 149.456 24.8492 147.415 27.5669 145.27C30.7581 142.751 35.421 139.182 39.0634 136.786C43.0778 134.148 47.6336 132.338 51.6312 129.988C84.8803 110.438 116.359 99.3101 155.742 91.1598C165.181 89.2058 176.334 87.5654 185.992 88.2493C188.061 88.3933 190.08 88.671 191.501 90.0439C190.756 91.7511 184.571 91.6586 182.671 92.0288C174.338 93.6589 166.81 96.3945 159.013 98.9553C138.585 105.666 122.899 111.667 104.496 121.874C92.9769 128.265 81.3619 134.431 70.7619 141.594C68.501 143.121 64.7233 144.833 63.0036 146.062C62.9472 146.098 63.3137 146.659 62.9923 147.024C62.265 147.841 59.1865 150.037 58.1039 150.988C53.4354 155.112 49.6634 157.57 46.427 162.44C46.0492 163.011 43.5233 164.168 43.2526 164.579C42.9651 165.021 43.2639 165.767 42.7114 166.291C42.2998 166.682 41.189 166.687 41.0029 166.955C40.6421 167.474 40.8733 167.716 39.8922 168.94C35.9849 173.825 30.6285 177.825 26.5407 182.253C24.8717 184.057 24.3248 186.037 21.7087 187.672C16.4989 190.932 6.42885 190.305 0.429688 189.344V172.292L0.440964 172.303Z" fill="#FFF2F1"/>
<path d="M431.995 22.3427C432.265 22.5946 433.754 22.6872 434.487 23.0883C435.603 23.695 441.05 26.7443 441.343 27.2688C441.58 27.7007 441.642 28.1481 441.602 28.6263C440.181 30.1227 436.003 29.2434 434.949 29.8553C434.024 30.3901 435.767 31.9687 434.239 32.4161C433.325 32.6835 429.175 32.5138 428.476 31.9739C428.155 31.727 427.963 30.7089 427.264 30.0661C426.159 29.048 422.415 27.2225 420.87 26.6672C371.873 9.11196 316.55 6.47405 264.368 10.0016C223.197 12.7834 187.839 17.9564 149.374 31.5882C139.062 35.2391 125.784 35.6402 115.359 31.8659C113.126 31.0586 110.481 30.133 113.047 28.0607C116.841 24.9857 122.959 23.8287 127.543 22.1267C169.159 6.64888 215.585 1.63531 260.427 0.396058C307.298 -0.899758 356.706 0.678875 402.551 10.0633C412.61 12.1201 424.879 15.7504 431.995 22.3478V22.3427Z" fill="#FFF2F1"/>
<path d="M475.163 104.971C476.031 105.526 477.125 105.382 477.993 105.814C487.392 110.478 497.496 117.677 505.892 123.719C513.159 128.949 519.564 133.536 526.325 140.004C535.944 149.209 544.993 158.321 546.527 171.649C547.13 176.92 539.417 176.58 535.166 176.082C534.748 176.035 530.768 175.089 531.653 174.498C533.13 173.511 532.69 173.233 531.771 171.546C523.173 155.755 498.748 141.326 483.085 131.576C470.511 123.75 458.225 114.705 444.519 107.83C443.363 107.249 439.517 105.151 438.683 105.12C437.02 105.064 435.852 106.005 433.766 105.187C431.985 104.493 432.334 102.925 431.443 102.086C430.31 101.022 420.691 97.551 418.599 96.9391C414.765 95.8181 399.626 93.2676 397.76 90.6503C397.112 89.7453 398.905 88.9637 399.581 88.6808C407.356 85.4156 431.094 88.6808 439.726 90.9228C451.189 93.9052 465.843 98.9651 475.163 104.961V104.971Z" fill="#FFF2F1"/>
<path d="M94.8127 189.107C83.5023 196.342 71.4081 205.798 60.9829 214.252C58.8009 216.02 49.9431 222.741 49.8134 224.855C49.7345 226.186 51.0764 226.212 48.0881 226.968C45.3535 227.662 41.9141 227.487 39.157 226.891C35.8924 226.186 33.8062 225.261 33.5469 221.929C36.18 219.887 38.3507 217.332 40.9331 215.234C50.3772 207.551 61.3776 199.288 71.2164 192.166C99.8759 171.418 136.796 157.457 172.041 148.556C179.173 146.756 194.549 143.136 201.185 145.836C206.282 147.903 196.533 148.448 195.885 148.623C193.658 149.219 188.657 152.13 185.9 153.163C169.966 159.128 152.634 162.573 136.688 168.497C122.266 173.855 107.55 180.972 94.8127 189.117V189.107Z" fill="#FFF2F1"/>
<path d="M398.871 44.9163L399.751 46.1093L396.058 46.9064C358.467 35.9433 319.264 36.4678 280.241 37.306C266.811 37.594 251.678 37.2906 238.456 38.9463C225.809 40.5301 208.702 46.9115 196.574 46.9526C194.471 46.9578 191.133 45.7031 189.324 47.1275C188.416 47.8422 187.232 51.2772 184.587 49.2203C182.428 47.544 186.217 46.1196 186.555 45.6054C186.803 45.2249 186.617 44.5564 186.893 44.1245C187.604 43.0035 200.611 41.2294 202.98 40.7152C219.037 37.2237 230.895 31.336 248.092 30.071C282.113 27.5668 324.395 30.9555 358.529 34.5395C370.291 35.7736 383.146 39.2394 394.817 41.5945C396.684 41.9699 403.715 42.3659 404.386 43.7131C405.011 44.9626 399.773 45.2969 398.877 44.9215L398.871 44.9163Z" fill="#FFF2F1"/>
<path d="M382.138 155.652L365.409 146.216C364.913 144.334 374.397 144.715 375.744 144.823C382.584 145.383 397.339 155.061 403.756 158.614C433.075 174.848 461.509 189.724 483.109 214.134C485.088 216.37 489.041 219.281 489.892 222.15C491.206 226.557 482.365 225.256 479.901 224.032C478.52 223.348 478.407 221.723 477.471 221.034C476.631 220.417 475.21 220.51 474.595 220.042C474.279 219.8 470.913 214.864 469.972 213.825C451.749 193.704 428.31 181.846 404.455 168.415C397.311 164.394 389.479 157.992 380.982 157.308C378.975 157.148 374.183 158.264 373.331 156.65C373.038 156.094 374.233 155.652 374.431 155.652H382.133H382.138Z" fill="#FFF2F1"/>
<path d="M203.375 180.555C204.283 181.877 200.178 182.864 199.09 183.219C183.754 188.248 167.081 191.138 151.655 196.162C120.52 206.302 96.9915 223.497 75.301 245.742C73.711 247.372 72.2055 250.658 69.7754 250.771C63.9116 251.049 70.8298 245.197 72.4198 243.515C88.2747 226.778 108.855 210.477 130.9 200.918C150.493 192.423 171.795 188.094 192.493 182.422C195.555 181.584 198.148 179.856 201.43 180.128C201.808 180.159 203.302 180.437 203.381 180.555H203.375Z" fill="#FFF2F1"/>
<path d="M402.985 209.279C415.226 220.047 422.905 232.131 433.471 243.891C434.035 244.518 436.341 245.387 433.42 245.922C429.451 246.647 427.478 244.015 425.307 241.613C414.594 229.761 406.464 216.427 393.597 206.009C386.482 200.245 369.24 189.786 360.139 187.955C357.822 187.487 354.321 188.752 353.531 185.759C359.181 184.556 366.234 187.58 371.439 189.698C383.155 194.475 393.834 201.232 402.996 209.29L402.985 209.279Z" fill="#FFF2F1"/>
<path d="M282.642 339.817C284.356 339.349 286.352 339.576 287.925 340.218C290.045 340.013 292.469 339.941 294.527 340.619C295.672 340.722 296.681 341.026 297.612 341.627C297.617 342.692 295.396 343.191 294.527 343.427L293.648 343.828C293.541 344.188 293.394 344.178 293.208 343.828C292.712 344.348 292.272 344.615 291.889 344.63C291.968 345.073 291.505 345.124 291.15 344.939C290.857 344.79 291.849 344.805 291.889 345.433C292.514 345.535 293.101 345.936 293.648 346.636C293.293 348.626 291.573 350.024 288.489 350.827C292.622 352.673 289.571 356.38 286.166 355.064C285.405 355.074 285.698 355.341 287.045 355.866C288.072 354.637 289.96 356.236 288.804 357.47C288.066 357.99 286.194 358.257 285.281 358.674L284.418 359.265C281.61 358.674 278.718 358.36 275.836 358.257L275.16 357.47L274.619 356.987C272.515 357.11 271.224 356.601 270.756 355.465C267.48 355.516 271.23 351.413 272.955 353.459C273.592 352.58 274.776 352.236 276.496 352.436C274.844 352.41 273.959 351.948 273.84 351.053C273.271 352.313 270.976 351.089 270.925 350.004C270.875 348.919 273.463 347.186 274.28 348.646C274.523 348.153 276.733 348.286 277.156 348.441C277.285 348.487 274.466 348.492 274.72 347.844C270.08 349.233 271.224 343.571 275.6 345.438C276.564 345.304 276.564 345.17 275.6 345.037C274.461 345.582 273.277 345.222 272.724 344.132L268.625 344.486C266.37 344.908 263.263 342.152 266.353 341.828C266.561 340.83 267.926 340.589 268.552 341.427L274.297 341.031L274.72 340.224C276.203 338.748 281.041 338.414 282.642 339.822V339.817Z" fill="#62B788"/>
<path d="M226.288 65.7727C225.515 64.9242 227.038 64.302 227.697 64.0501C231.317 62.6668 239.978 61.6076 244.195 61.0265C270.875 57.3756 297.849 58.7948 324.671 59.3707C335.304 59.597 347.269 59.0005 357.722 59.741C358.546 59.7975 362.334 60.2295 362.318 61.1602C361.41 62.0241 359.842 62.2143 358.585 62.1938C318.559 61.5407 276.711 57.715 237.215 64.2918C235.298 64.6106 227.263 66.8371 226.288 65.7675V65.7727Z" fill="#FFF2F1"/>
<path d="M288.803 302.1C289.097 303.565 290.422 306.137 291.408 307.222L294.966 320.555L294.205 321.188C288.865 320.396 282.477 319.614 277.735 322.35L276.918 321.758C276.721 321.815 276.523 321.856 276.337 321.835C275.469 321.733 272.909 308.111 272.633 306.332L273.394 305.715L274.42 305.067C277.572 305.555 280.91 306.044 284.005 305.18C282.759 303.278 287.27 301.041 288.803 302.1Z" fill="#FFF2F1"/>
<path d="M294.968 320.56C297.382 321.291 296.152 322.489 296.282 322.561C296.643 322.751 297.883 322.473 298.921 323.178C301.87 325.178 297.568 325.342 297.212 325.816C297.15 325.898 297.663 326.535 297.421 326.978C297.043 327.662 295.865 327.482 295.854 328.181C299.27 328.479 296.925 330.31 294.968 330.593C294.371 331.343 293.643 331.657 292.792 331.523C290.373 331.894 279.384 330.942 277.557 329.605C276.571 328.885 276.48 328.628 277.36 327.785C275.928 327.852 274.377 327.764 272.703 327.518C269.946 332.254 260.456 326.134 268.401 324.35C268.339 323.476 268.66 323.157 269.337 322.638C269.585 322.447 275.229 321.337 275.55 321.311C276.052 321.27 276.514 321.522 276.915 321.764C278.358 321.378 279.457 320.468 280.32 320.257C283.709 319.429 291.625 319.552 294.963 320.56H294.968Z" fill="#221185"/>
<path d="M294.967 330.588C293.518 331.066 294.606 332.176 294.087 333.102C293.811 333.59 293.05 333.164 293.208 333.791C296.066 334.398 299.449 334.552 300.69 337.401C299.37 338.152 297.763 337.941 296.607 338.224C296.196 338.321 295.576 339.586 293.208 339.812C292.153 340.466 289.655 340.188 288.364 339.812C286.447 339.612 284.542 339.612 282.641 339.812C279.772 339.679 277.477 339.941 274.72 340.214L274.24 341.026L268.557 341.417C267.79 341.638 267.283 341.957 266.358 341.818C264.977 343.186 262.355 340.512 264.046 339.262C266.499 338.337 269.093 337.858 271.827 337.833C270.948 335.786 272.25 334.655 275.734 334.444C274.116 334.264 273.434 333.421 274.099 332.007C266.003 330.587 272.464 326.844 277.358 327.775C277.488 327.908 277.324 328.464 278.052 328.937C280.318 330.418 292.08 330.999 294.972 330.582L294.967 330.588Z" fill="#C14F4E"/>
<path d="M275.156 357.471C277.062 357.337 283.568 358.057 285.282 358.674C285.931 358.905 286.416 359.682 286.602 360.278C287.121 361.101 287.414 362.037 287.481 363.086C287.194 363.158 286.895 363.389 286.602 363.487L285.48 364.891C283.845 365.071 283.721 365.893 285.096 367.369C283.862 368.428 283.974 370.794 285.88 370.66L286.602 371.509C287.549 371.627 290.611 371.442 290.994 372.527C291.479 373.91 289.387 374.224 288.361 374.316C287.583 374.393 287.053 374.686 286.765 375.201C284.549 375.71 273.087 372.917 271.006 371.745C270.206 371.293 269.85 370.357 270.082 369.539C267.905 368.727 269.038 367.189 270.86 366.521C269.241 366.017 266.676 364.608 268.548 363.482C269.63 362.967 271.136 362.71 273.076 362.726L272.951 362.278C272.111 362.577 271.147 362.592 270.313 362.278C270.386 363.317 268.159 363.173 267.229 362.68C266.445 364.011 263.778 362.464 264.111 361.137C264.37 360.114 268.001 359.013 268.548 360.273L269.05 359.399C270.245 359.527 271.649 359.327 271.536 358.067C272.19 356.751 274.243 356.355 275.15 357.471H275.156Z" fill="#C14F4E"/>
<path d="M271.635 292.875C270.488 293.091 270.488 293.091 271.635 292.875C271.607 292.52 271.719 292.031 272.035 292.001C275.824 291.646 279.686 291.43 283.475 291.929L283.96 292.875C284.146 292.936 286.977 294.921 287.101 295.065C287.636 295.708 287.027 296.279 287.129 296.428C287.343 296.747 288.561 296.464 288.375 297.893C288.358 298.007 286.621 298.654 287.039 299.693C289.937 299.873 288.64 301.298 288.798 302.105C287.157 302.712 285.826 303.18 284.4 304.121L285.274 305.715C281.462 306.99 277.296 306.368 273.388 305.715C271.122 307.802 265.681 303.74 270.609 302.676C269.385 301.971 268.63 300.83 270.304 300.495C271.567 300.13 271.821 299.385 270.744 298.49C269.396 299.318 268.128 297.307 269.864 296.886C270.597 296.099 270.524 295.343 269.425 294.88C268.833 296.299 263.792 294.525 263.499 293.651C263.104 292.463 264.04 291.538 265.021 292.474C264.835 292.098 265.275 291.965 266.34 292.073C266.825 290.864 273.276 291.291 271.624 292.875H271.635Z" fill="#62B788"/>
<path d="M295.846 231.082C290.439 232.923 294.02 232.949 293.664 235.268C293.422 236.846 290.293 237.921 289.87 238.703C289.667 239.078 290.439 239.561 290.569 240.148C290.913 241.685 287.051 242.626 285.72 243.125C283.995 246.246 278.373 245.058 275.379 244.148C273.147 243.469 274.551 241.058 276.033 241.922C276.298 241.515 275.859 241.114 274.714 240.718C271.117 241.145 272.414 237.227 275.678 236.903C273.891 234.954 275.047 233.396 277.629 233.123C277.387 232.172 278.001 231.339 279.118 231.493C281.66 229.041 285.675 228.85 289.407 229.138C291.217 229.277 294.978 229.817 295.852 231.092L295.846 231.082Z" fill="#62B788"/>
<path d="M277.799 275.222C279.265 274.698 280.105 275.67 280.331 278.148C281.154 278.554 281.633 279.053 281.763 279.634C284.52 281.532 283.094 283.1 283.573 283.604C283.883 283.928 286.398 283.707 286.939 285.357C287.773 287.882 283.567 287.851 281.763 288.062L280.517 288.484C274.552 287.296 268.614 286.195 262.706 285.188L261.95 284.457C259.289 284.745 259.875 282.061 262.192 281.598C267.594 281.084 268.451 279.819 264.769 277.804C264.036 276.811 264.42 275.068 265.914 275.227L266.816 274.718C270.312 275.037 273.83 275.042 277.371 274.729L277.794 275.227L277.799 275.222Z" fill="#C14F4E"/>
<path d="M299.811 190.963C299.924 191.256 299.698 191.863 299.811 192.166C296.535 192.644 298.813 193.323 298.824 193.976C298.835 194.475 295.87 196.563 294.968 196.583L297.601 198.409C297.702 199.077 296.964 199.139 296.721 199.386C296.163 199.926 296.163 200.193 296.721 200.188C297.037 200.358 297.375 200.486 297.584 200.784L296.281 202.188C297.014 202.193 299.552 202.929 298.875 203.762C298.819 203.834 298.272 203.736 298.131 203.88C297.713 204.312 299.236 205.844 297.161 205.803L296.242 206.425C293.287 206.245 290.322 206.312 287.345 206.626L286.595 205.803C286.211 205.69 286.217 205.556 286.595 205.402C287.035 205.171 287.181 204.903 287.035 204.6C285.557 204.749 285.507 203.345 287.035 203.397C287.931 203.314 287.931 203.181 287.035 202.996C285.49 204.106 283.843 202.358 285.101 200.918C283.725 200.039 283.674 199.175 284.593 197.956C282.552 196.218 285.523 193.534 287.474 194.167C286.707 192.68 286.854 191.745 287.914 191.359C284.982 191.03 285.23 188.371 287.694 188.952L288.19 188.15C289.482 187.883 294.629 187.811 295.182 188.952C295.661 187.528 300.702 189.559 299.805 190.958L299.811 190.963Z" fill="#62B788"/>
<path d="M268.554 363.492C268.566 363.523 268.188 363.769 268.425 364.16C269.096 365.286 272.411 366.13 273.838 366.705C273.635 367.431 272.05 367.024 271.176 367.281C270.488 367.482 269.93 368.048 269.44 368.51C272.428 369.205 269.874 369.775 271.458 371.081C276.973 372.66 282.442 374.871 288.368 374.326C287.888 374.912 287.183 374.306 287.229 375.139C287.336 377.087 288.672 378.748 288.368 380.743C286.778 382.672 282.915 381.931 280.558 380.995C277.457 380.805 274.339 381.314 271.199 382.523L270.319 381.947C269.648 381.613 269.344 380.934 269.389 379.9C267.32 374.984 265.983 369.667 266.649 364.258L267.675 363.085C268.199 362.782 269.006 362.797 268.554 363.487V363.492Z" fill="#FFF2F1"/>
<path d="M297.174 205.809C297.444 205.881 298.189 206.801 298.933 206.616L297.614 208.611C301.549 209.238 299.57 209.799 299.542 210.822C299.491 212.622 300.822 213.805 301.577 214.931C303.342 217.553 301.014 217.394 298.719 217.857C297.834 218.037 297.163 217.399 298.053 218.643L297.185 219.276L288.823 217.533L288.367 216.638C288.091 216.047 288.153 215.718 288.79 215.548C286.495 214.545 285.125 211.866 287.617 210.581C286.963 209.454 286.478 208.4 286.162 207.413C284.149 206.77 284.736 205.588 286.602 205.809C290.12 205.989 293.701 204.909 297.168 205.809H297.174Z" fill="#C14F4E"/>
<path d="M276.039 241.916C275.813 242.081 273.947 242.389 274.72 243.114C274.951 243.33 280.358 244.297 281.119 244.328C283.763 244.431 283.837 243.824 285.726 243.12C283.583 247.907 281.987 252.324 281.762 257.564C280.775 257.708 279.642 257.461 278.356 256.829L272.509 255.898C270.914 255.543 270.04 254.895 269.876 253.949L269.16 252.838C270.209 249.018 271.664 245.315 273.53 241.736L274.72 241.109C275.289 240.821 276.541 241.243 276.039 241.911V241.916Z" fill="#FFF2F1"/>
<path d="M288.366 216.638C290.949 217.064 295.324 218.021 298.053 218.643C298.656 218.782 301.43 219.332 301.543 219.481C301.881 219.913 301.165 222.793 300.252 223.06C300.06 223.322 300.066 223.59 300.252 223.862C300.579 224.032 301.481 224.248 301.515 224.305C302.394 225.652 300.004 225.77 298.927 226.269C295.16 227.93 288.518 225.734 285.147 223.59L284.842 222.659C283.844 222.664 283.455 222.181 283.675 221.209C281.809 221.086 274.772 220.042 276.825 217.358C277.371 216.638 286.951 215.47 287.819 215.794C288.146 215.918 288.276 216.309 288.366 216.638Z" fill="#221185"/>
<path d="M267.673 264.789C268.693 262.264 280.658 260.475 281.013 263.642C281.086 264.285 280.156 265.056 279.513 265.365C280.325 265.982 280.488 266.594 279.998 267.2C279.412 268.028 279.801 268.517 281.159 268.671C281.408 269.895 281.605 271.144 281.757 272.415C281.757 272.548 281.757 272.682 281.757 272.816L281.255 273.916C279.851 274.111 278.701 274.549 277.793 275.227C274.095 275.567 269.296 276.431 265.908 275.227C263.929 276.173 264.504 273.124 266.787 273.206L267.667 272.42L267.977 271.576C269.753 271.206 270.114 269.494 268.293 268.861L268.107 268.008C267.487 267.432 266.207 265.195 267.667 264.799L267.673 264.789Z" fill="#231185"/>
<path d="M284.84 222.659C286.143 222.906 289.12 224.737 291.003 225.272C293.529 225.986 296.286 226.398 298.93 226.274C298.558 226.444 297.267 227.092 297.171 227.472C304.541 228.46 301.851 231.792 295.846 231.087C291.894 230.625 289.221 229.36 284.609 229.874C282.737 230.08 281.266 231.653 279.117 231.488C277.854 232.887 274.928 230.954 275.334 229.118C272.977 226.614 276.169 225.935 278.582 225.755C278.582 224.12 278.599 223.246 280.324 222.366C281.649 221.693 284.248 221.204 284.84 222.659Z" fill="#C14F4E"/>
<path d="M261.95 284.447C265.248 284 267.746 285.45 270.638 285.959C274.399 286.622 277.946 286.596 281.763 288.062C282.902 288.499 284.509 289.764 285.738 290.283L283.962 292.875C281.892 292.176 273.982 292.464 271.636 292.875C271.732 292.808 271.608 292.52 271.416 292.479C270.199 292.217 267.898 292.361 266.353 292.073C265.592 292.268 265 292.134 264.594 291.672C264.391 293.101 259.632 290.885 259.401 290.299C258.324 287.573 263.782 287.568 265.536 287.661C260.117 287.157 258.646 285.871 261.115 283.804L261.95 284.452V284.447Z" fill="#221185"/>
<path d="M269.872 253.954C270.651 254.062 272.094 255.019 273.103 255.224C275.956 255.811 279.655 255.61 281.764 257.564C283.258 258.947 283.658 259.605 281.764 260.768C282.965 261.385 286.043 261.271 285.727 262.979C285.688 263.205 281.549 264.11 280.884 264.388C281.2 264.989 281.679 265.215 281.764 265.987C281.566 267.231 281.217 268.383 280.004 267.19L278.245 265.19L280.439 263.781C276.678 261.23 271.637 263.693 267.679 264.784C265.582 265.123 266.884 262.002 268.559 262.778C270.504 261.837 270.526 261.369 268.559 260.372C267.166 261.271 264.313 259.503 265.847 257.975C264.708 257.266 265.706 254.057 266.472 253.445C266.85 253.142 270.092 252.792 269.884 253.954H269.872Z" fill="#C14F4E"/>
<path d="M288.366 380.744C289.076 380.821 290.125 381.597 291.005 381.551C291.23 381.808 290.339 382.209 290.125 382.348C286.731 384.585 280.241 386.297 276.373 384.348C275.86 384.091 275.81 383.299 275.353 383.202C274.766 383.073 273.238 383.813 272.517 383.952C272.359 385.947 266.867 385.166 266.867 383.351C266.867 381.926 269.433 380.661 270.312 381.942C272.308 381.32 277.011 380.024 278.944 379.977C280.946 379.931 282.767 381.062 284.177 381.176C285.586 381.289 286.9 380.579 288.366 380.738V380.744Z" fill="#231286"/>
<path d="M294.09 343.828C294.253 346.368 293.673 349.556 292.635 351.932C292.415 352.436 289.117 357.249 288.807 357.47C289.044 356.668 287.792 356.221 287.048 355.866C286.36 355.65 286.067 355.382 286.168 355.064C288.091 354.555 291.705 353.624 288.35 351.67C287.549 351.202 286.371 351.31 286.168 350.657C287.747 350.189 293.887 348.173 293.65 346.641C291.908 345.499 291.761 344.563 293.21 343.833C293.329 343.792 293.503 343.869 293.65 343.833H294.09V343.828Z" fill="#FDF2F0"/>
<path d="M286.607 363.492C285.733 365.677 285.344 369.498 286.607 371.519C285.987 371.441 283.827 371.477 283.534 371.087C283.421 370.937 283.906 370.295 283.731 369.904C283.173 368.66 281.758 369.415 284.391 367.307C283.72 366.412 282.835 366.032 281.758 365.698L286.601 363.497L286.607 363.492Z" fill="#FEEFEE"/>
<path d="M281.765 279.634C281.432 279.408 280.451 279.526 279.797 278.821C279.007 277.978 279.363 277.073 279.024 276.307C278.771 275.736 277.987 275.566 277.801 275.217C277.682 274.991 277.959 274.152 277.801 274.024C277.479 273.772 275.951 274.461 276.047 273.612C278.06 273.679 279.966 273.726 281.77 272.805C281.815 275.073 281.736 277.356 281.77 279.624L281.765 279.634Z" fill="#FDEFEF"/>
<path d="M287.484 363.091L285.285 361.687C286.142 361.749 286.514 360.34 286.605 360.283C287.067 359.995 293.647 360.262 293.641 361.286C292.209 363.214 289.424 362.618 287.484 363.091Z" fill="#65B88A"/>
<path d="M281.761 272.409L280.002 271.602C283.842 269 278.666 269.226 277.803 268.393C276.941 267.56 279.534 267.375 280.002 267.195C280.814 266.886 281.243 266.83 281.761 265.992C281.919 267.462 281.733 270.686 281.761 272.409Z" fill="#F7EBED"/>
<path d="M293.21 339.817L294.529 340.62C292.398 340.424 289.974 340.357 287.927 340.218C287.577 339.997 287.724 339.864 288.367 339.817C289.788 339.895 291.834 339.951 293.21 339.817Z" fill="#D6D4BD"/>
<path d="M300.253 223.06V223.862C299.886 223.672 298.984 223.816 298.934 223.065C299.34 222.993 299.932 223.158 300.253 223.065V223.06Z" fill="#B1E5F1"/>
<path d="M296.725 200.188C296.59 200.111 296.111 200.24 295.846 200.188C295.801 199.694 296.528 199.587 296.725 199.391V200.193V200.188Z" fill="#CDD5BD"/>
<path d="M294.528 343.427C294.381 343.535 294.229 343.787 294.088 343.828C293.959 343.869 293.789 343.792 293.648 343.828C293.806 343.427 294.201 343.52 294.528 343.427Z" fill="#F9F1EE"/>
<path d="M296.287 182.936C296.896 182.931 298.655 183.425 298.914 183.954C299.501 185.153 297.781 185.009 297.375 185.744C297.324 185.831 297.076 187.688 297.167 187.744C297.556 188.012 302.771 188.593 303.775 189.359C304.152 189.822 300.583 191.375 299.811 190.958C299.58 190.372 295.684 188.953 295.187 188.953H287.705C287.514 188.953 286.29 190.135 286.606 190.552L288.365 190.963C288.438 191.411 287.948 191.339 287.925 191.359C287.401 191.832 287.108 191.832 287.046 191.359C285.788 191.369 282.236 190.835 281.763 190.958C278.605 189.127 284.43 188.171 284.807 187.713C284.858 187.652 284.232 186.556 284.841 186.145C285.433 185.471 286.538 184.803 287.48 184.942C287.136 184.458 287.739 184.026 288.36 184.14C288.202 183.677 288.771 183.564 289.239 183.738C290.102 182.957 291.438 182.684 293.259 182.916C294.691 182.232 295.695 182.242 296.281 182.936H296.287Z" fill="#C1504E"/>
<path d="M292.769 177.722C293.835 177.722 296.26 178.128 297.173 178.524C298.983 179.311 297.68 182.15 296.293 182.936C295.386 182.947 294.371 183.615 293.395 183.708C292.042 183.836 290.61 183.744 289.251 183.738H287.932C287.695 184.176 287.548 184.577 287.492 184.942C286.635 185.8 287.672 186.299 284.853 186.145C282.666 186.027 281.363 185.127 282.632 183.116C283.196 182.227 284.746 181.748 285.293 180.936C284.086 180.921 282.919 180.669 281.786 180.314C281.25 180.144 279.813 179.872 280.016 179.136C280.574 178.046 286.595 178.632 288.152 178.524C289.708 178.416 291.067 177.722 292.781 177.727L292.769 177.722Z" fill="#231285"/>
<path d="M270.759 355.465L275.602 356.673L275.162 357.47C274.209 357.537 273.296 357.445 272.49 358.082C272.157 358.344 272.478 358.848 272.354 358.977C270.578 360.864 270.494 359.918 268.56 360.278C268.255 357.805 270.494 357.912 270.759 355.465Z" fill="#FDF0EF"/>
<path d="M273.834 351.053C275.278 351.511 277.223 351.608 278.559 352.159C279.157 352.405 279.253 352.205 279.112 353.053C278.864 353.223 273.88 353.31 272.949 353.454L273.829 351.048L273.834 351.053Z" fill="#F8EFEC"/>
<path d="M274.713 340.218L276.033 341.817C273.659 341.591 270.755 342.332 268.551 341.422C271.15 340.671 271.877 340.496 274.713 340.218Z" fill="#F3EEED"/>
<path d="M288.367 339.817L287.928 340.218C286.219 340.1 284.212 339.889 282.645 339.817C284.81 338.424 286.135 339.699 288.367 339.817Z" fill="#E7DDD5"/>
<path d="M274.717 347.845C275.58 348.066 276.448 348.266 277.356 348.251V348.642C276.358 348.729 275.253 348.539 274.277 348.642L274.717 347.839V347.845Z" fill="#AED5BC"/>
<path d="M291.89 344.63C292.341 344.692 292.301 345.278 291.89 345.433C291.58 345.247 290.604 345.381 290.57 344.636C290.959 344.558 291.619 344.733 291.89 344.636V344.63Z" fill="#BFDDCC"/>
<path d="M293.65 346.636C293.024 346.276 292.505 345.803 291.891 345.432V344.63C292.173 344.522 292.601 344.054 293.21 343.828C291.27 345.427 293.514 345.746 293.65 346.636Z" fill="#F9F1EE"/>
<path d="M275.602 345.032C276.098 345.14 277.084 344.769 277.366 345.232C277.366 345.644 276.058 345.361 275.602 345.433V345.032Z" fill="#C0E3D6"/>
<path d="M286.16 355.064L287.04 355.866C286.459 355.588 285.134 355.753 285.281 355.069C285.563 355.023 285.929 355.126 286.16 355.069V355.064Z" fill="#CFE6DB"/>
<path d="M272.957 362.289C273.544 362.366 274.158 362.443 274.277 363.086L268.554 363.492C268.323 362.957 267.888 363.209 267.674 363.091C267.511 362.998 267.387 362.767 267.234 362.69C268.317 363.034 269.546 362.345 270.319 362.289C271.17 362.587 272.106 362.571 272.957 362.289Z" fill="#EAD5D4"/>
<path d="M272.955 362.288C272.538 362.931 270.756 362.947 270.316 362.288C271.044 362.237 272.273 362.196 272.955 362.288Z" fill="#F4F0EF"/>
<path d="M270.758 298.49C271.723 298.737 272.737 298.958 273.69 299.251C274.367 299.462 274.953 298.891 274.722 300.095L270.324 300.496C270.499 300.074 271.948 300.233 270.764 298.49H270.758Z" fill="#F2EEEA"/>
<path d="M269.434 294.88C270.415 295.096 271.497 295.215 272.512 295.281L269.873 296.886C269.947 296.192 270.68 295.888 269.434 294.88Z" fill="#F4F0EE"/>
<path d="M266.353 292.073L265.034 292.474C265.09 292.346 264.695 291.878 264.594 291.672C265.163 291.831 265.772 291.965 266.353 292.073Z" fill="#CADBC4"/>
<path d="M271.636 292.875C271.185 292.957 270.368 293.662 269.438 293.271V292.88H271.636V292.875Z" fill="#D0D5BE"/>
<path d="M274.715 240.713C275.403 241.114 277.455 240.883 276.034 241.917C275.843 241.341 275.358 241.12 274.715 241.114V240.713Z" fill="#E8EDE7"/>
<path d="M286.607 205.407V205.808C285.626 206.261 285.479 206.559 286.167 207.413C285.643 207.233 284.983 207.413 284.244 206.965C281.882 205.525 285.423 205.536 286.607 205.407Z" fill="#79BA92"/>
<path d="M287.925 191.364C286.437 193.061 287.525 192.573 287.869 193.637C288.055 194.213 287.615 194.048 287.485 194.172C286.628 193.308 286.251 192.398 287.046 191.364C287.339 191.364 287.632 191.364 287.925 191.364Z" fill="#B36B63"/>
<path d="M287.045 204.605C289.064 204.898 288.19 205.232 286.605 205.407C286.696 205.15 287.011 204.831 287.045 204.605Z" fill="#CFFAF6"/>
<path d="M287.047 203.001C287.498 203.186 288.958 203.176 287.047 203.402V203.001Z" fill="#CBF5EF"/>
<path d="M268.114 267.997L271.632 269.596C269.946 270.059 269.54 270.424 270.752 271.602L267.668 272.409C267.539 271.648 268.086 269.149 268.108 267.997H268.114Z" fill="#F6ECEE"/>
<path d="M268.551 260.372C269.323 260.809 270.411 261.03 270.75 261.971L268.551 262.778C269.791 261.374 270.885 262.115 268.551 260.372Z" fill="#F4DCDB"/>
<path d="M288.365 184.14C288.055 184.345 287.751 184.674 287.486 184.942C286.431 184.566 287.39 184.062 287.925 183.738C288.444 183.558 288.613 183.656 288.365 184.14Z" fill="#C5B5C6"/>
<path d="M289.245 183.738C288.975 183.887 288.614 183.97 288.366 184.139L287.926 183.738C289.104 183.029 288.963 183.738 289.245 183.738Z" fill="#D2D6DC"/>
</g>
<defs>
<clipPath id="clip0_57_275">
<rect width="550" height="394" fill="white"/>
</clipPath>
</defs>
</svg>
