<svg width="794" height="217" viewBox="0 0 794 217" fill="none" xmlns="http://www.w3.org/2000/svg">
<g clip-path="url(#clip0_57_255)">
<path d="M236.466 54.5025L237.564 80.8684L235.053 81.1823C226.892 63.1342 220.301 57.1705 210.885 57.1705C200.997 57.1705 194.092 64.2328 194.249 74.5908C194.249 86.3613 203.508 93.8944 212.925 102.526C222.184 111.158 231.915 120.731 231.915 137.367C231.915 158.868 216.221 170.324 194.563 170.324C184.362 170.324 174.945 167.813 167.726 163.576L166.628 134.385L168.982 133.914C176.829 154.944 185.931 164.047 198.329 164.047C211.199 164.047 218.104 154.473 218.104 143.174C218.104 130.304 209.001 122.614 199.899 114.297C190.796 105.822 181.38 97.661 181.38 81.967C181.38 61.7217 197.231 50.7359 216.064 50.7359C223.911 50.7359 231.758 52.4623 236.466 54.5025ZM234.736 171.894L246.192 117.749C248.703 105.508 247.134 97.504 242.426 93.5805V93.2667L267.379 85.4197L260.317 117.278C269.89 98.1318 280.719 86.2044 294.059 86.2044C305.516 86.2044 313.206 94.6791 313.206 111.786C313.206 142.232 290.293 170.324 265.025 170.324C259.375 170.324 254.667 168.912 250.901 166.558L248.86 177.073C246.506 188.686 245.722 195.435 247.448 202.654V202.968H225.319V202.654C230.028 194.179 231.911 186.018 234.736 171.894ZM288.723 97.3471C281.818 97.3471 271.931 103.939 257.649 133.129L255.766 142.546C253.098 157.141 256.237 164.047 265.182 164.047C284.172 164.047 297.983 133.129 297.983 111.943C297.983 100.8 293.745 97.3471 288.723 97.3471ZM330.607 134.699C330.607 152.904 338.61 158.868 347.556 158.868C354.618 158.868 361.681 155.101 367.33 145.998L369.685 146.94C363.878 162.006 352.892 170.324 339.552 170.324C323.544 170.324 314.128 157.926 314.128 139.721C314.128 111.943 336.099 86.2044 362.151 86.2044C371.411 86.2044 379.729 89.657 379.729 100.486C379.729 113.669 367.644 126.381 331.077 127.48C330.763 129.834 330.607 132.188 330.607 134.699ZM359.483 92.482C347.242 92.482 335.315 104.723 331.705 122.928C362.465 118.848 367.174 107.391 367.174 100.172C367.174 94.5222 364.349 92.482 359.483 92.482ZM430.656 142.389L433.167 143.331C428.302 159.338 417.63 170.324 402.25 170.324C385.143 170.324 374.942 156.827 374.942 137.995C374.942 111.158 395.658 86.2044 420.769 86.2044C429.714 86.2044 436.933 89.1862 438.503 90.4417L437.875 110.53L435.992 110.844C432.382 103.154 427.674 92.482 417.002 92.482C404.447 92.482 390.793 107.548 390.793 132.031C390.793 149.922 398.169 158.083 409.626 158.083C417.944 158.083 425.163 153.689 430.656 142.389ZM478.575 169.696L485.324 143.174C476.535 158.711 465.078 170.324 452.366 170.324C442.165 170.324 435.26 162.163 439.654 145.842L448.913 111.158C451.581 100.486 452.837 93.5805 444.205 89.0293V88.5585H469.316L454.563 145.057C452.523 153.218 454.563 158.711 460.527 158.711C470.414 158.711 482.969 142.546 492.543 115.238L493.641 111.158C496.309 100.486 497.565 93.5805 488.933 89.0293V88.5585H514.044L499.134 145.371C496.152 156.827 495.995 162.006 503.058 166.715V167.028L478.575 169.696Z" fill="#FEF1F1"/>
<path d="M527.339 58.7673H559.041C564.377 58.7673 565.005 60.0228 565.005 63.3185C565.005 70.0669 548.212 63.6324 548.212 73.9904V159.837L591.057 159.994C603.141 159.994 596.393 143.201 602.827 143.201C610.831 143.201 603.612 134.569 611.459 134.569C613.499 134.569 615.539 135.04 615.539 136.923C615.539 140.376 606.751 141.004 606.751 150.42V161.72C606.751 166.271 606.437 168.625 599.061 168.625H522.317C515.882 168.625 514.47 166.742 514.47 163.917C514.47 159.994 517.452 159.68 524.043 159.68C528.281 159.68 531.262 156.384 531.262 153.245V74.6182C531.262 72.578 530.478 67.242 527.339 67.242C524.2 67.242 522.631 65.5157 522.631 63.6324C522.631 60.9644 524.2 58.7673 527.339 58.7673ZM621.048 141.945C625.285 136.923 630.464 141.318 633.132 136.139C633.132 132.529 635.016 129.861 640.038 129.861C650.239 129.547 651.965 126.565 653.849 124.525C656.046 122.799 659.498 112.127 655.261 104.123C654.476 101.141 640.038 98.1592 635.487 102.867C632.348 106.163 635.016 113.696 631.563 116.364C630.935 118.248 625.913 119.817 622.304 119.503C619.95 119.503 617.125 119.189 615.398 117.62C614.143 116.835 613.515 114.795 614.457 112.912C615.084 111.499 616.183 109.93 619.322 109.93C621.676 108.831 623.402 108.831 623.402 105.221C623.402 102.867 624.658 101.141 628.581 100.513C630.778 100.042 633.132 98.0023 633.132 95.6482C633.289 93.451 635.33 91.7247 640.038 91.0969C641.921 90.6261 653.849 90.4691 655.732 91.0969C659.185 91.8816 662.166 93.2941 662.166 95.8051C662.166 98.1592 664.52 100.356 666.09 100.513C670.327 100.513 671.897 104.751 671.897 109.145V150.577C671.897 153.088 672.524 155.913 675.035 157.796C678.645 159.209 681.313 160.15 681.313 162.662C681.47 164.231 679.116 167.841 674.722 167.841H634.545C629.523 167.841 624.658 167.37 621.519 162.975C619.479 159.523 616.811 148.694 621.048 141.945ZM633.446 148.851C633.446 157.169 638.782 158.581 643.961 158.581C648.983 158.581 656.83 156.855 656.83 149.008C656.83 142.73 655.575 139.277 645.374 139.277C637.37 139.277 633.446 140.69 633.446 148.851ZM704.501 61.9061C709.209 61.9061 709.366 67.0851 709.366 74.3043C709.366 82.1513 709.837 85.7609 717.998 85.7609C728.827 85.7609 731.181 89.6844 731.181 95.1773C731.181 99.4147 729.454 102.71 721.45 102.71H707.797C703.402 102.71 698.537 104.751 698.537 108.203C698.537 110.244 698.537 113.382 701.362 113.382C704.815 113.382 707.483 117.777 707.483 123.897V147.909C707.483 151.833 714.545 157.483 719.724 157.483C727.728 157.483 731.495 157.796 731.495 162.818C731.495 165.643 730.71 168.625 724.118 168.625H697.125C693.201 168.625 690.847 165.643 690.847 160.935V110.714C690.847 103.338 686.296 103.024 682.843 103.024C679.391 103.024 676.566 100.513 676.566 95.1773C676.566 88.5859 678.763 85.7609 683 85.7609C695.085 85.7609 686.767 74.3043 694.928 74.3043C703.245 74.3043 696.34 61.9061 704.501 61.9061ZM742.97 100.199C745.951 100.513 750.974 98.3161 750.974 95.3343C750.974 91.8816 757.565 90.1553 762.587 90.1553C770.434 90.1553 777.183 93.451 779.851 95.6482C782.989 98.3161 790.365 104.123 790.052 121.543C790.052 126.408 787.227 129.39 781.734 129.39C771.062 129.39 751.444 129.233 749.247 129.704C743.44 130.175 741.243 132.372 741.557 136.453C742.97 149.479 749.404 157.953 757.251 158.581C762.901 159.209 768.394 158.895 771.69 157.953C780.478 155.285 777.026 153.088 782.675 150.106C786.442 148.223 788.325 149.479 789.267 152.46C789.738 154.344 790.522 157.483 790.365 159.523C789.738 165.173 786.442 169.253 776.712 168.782C773.887 168.468 765.726 170.352 765.726 173.49C765.726 175.688 764.941 178.512 763.215 178.512C761.645 178.512 760.547 176.629 760.547 173.177C760.547 171.136 756.623 169.253 751.915 168.939C725.549 168.625 722.254 135.825 731.67 109.459C732.925 105.535 735.593 100.356 742.97 100.199ZM750.974 109.459C750.66 114.167 755.054 120.445 761.645 119.66C768.865 118.718 770.434 116.05 770.434 110.244C770.434 103.181 767.923 100.042 758.193 100.356C754.897 100.356 750.817 103.966 750.974 109.459Z" fill="#FEF1F1"/>
<path d="M47.0346 37.1459C49.4757 39.0418 51.8587 41.1322 54.0936 43.0183C54.3744 43.2531 55.461 43.8984 55.5811 44.0651C55.8076 44.3828 55.7238 44.8441 55.9445 45.1624C56.1508 45.4591 56.8854 45.5269 57.1617 45.774C57.4381 46.0211 57.6063 46.6271 57.9424 46.9781C61.4168 50.6092 69.5516 57.1808 74.3069 58.3703C80.355 59.881 87.1277 57.3319 92.3056 54.3875C106.903 46.0853 115.66 38.4313 133.406 37.484C141.661 37.0423 150.219 37.3892 156.575 43.4945C157.737 44.6106 157.619 45.0293 158.414 46.3019C160.438 49.5199 162.567 53.4512 162.715 57.4622C162.733 57.9402 162.456 58.4018 162.485 58.6384C163.038 63.3783 161.073 71.3505 159.654 76.1869C153.604 96.755 140.567 114.833 128.243 132.29C126.683 136.324 123.059 139.897 120.926 143.363C120.697 143.737 120.849 144.169 120.62 144.542C119.991 145.569 119.633 145.091 118.807 146.944C118.092 148.555 115.23 151.905 114.097 153.503C111.636 156.968 109.383 160.308 106.797 163.619C98.9891 173.604 88.9192 188.863 75.3312 189.949C63.2394 190.915 58.8902 186.314 54.061 175.67C50.1723 167.1 47.3488 157.62 44.0007 148.732C36.9365 129.965 28.9238 111.437 22.5234 92.4472C20.3572 86.0257 15.3009 72.1063 18.0075 65.7822C18.8034 63.9215 21.8046 60.7061 23.5554 59.7997C25.9558 58.5556 32.8329 57.5222 35.5768 57.5946C39.6363 57.6984 45.9048 58.9536 49.5651 60.8108C50.034 61.0518 50.891 61.9244 51.1208 62.0308C59.1849 65.6478 64.2713 72.2898 70.1508 78.9046C71.6054 80.5412 75.5102 83.8616 77.5232 84.9434C79.3727 85.934 80.1948 86.1901 82.1885 85.3065C86.9986 83.1804 91.5607 78.8477 96.0075 75.9581C105.643 69.6893 123.511 62.2615 134.703 67.4087C134.92 67.505 136.551 68.5752 136.626 68.6655C136.681 68.7291 137.353 70.0461 137.397 70.1695C138.826 74.1167 136.178 81.9679 134.931 85.8284C134.397 87.4812 133.408 91.4388 132.603 92.8496C132.406 93.2018 131.829 93.4133 131.716 93.8255C131.636 94.1282 131.917 94.4099 131.837 94.7183C131.773 94.9547 130.617 96.9884 130.428 97.4451C129.068 100.675 127.728 104.161 126.068 107.375C125.103 109.239 124.167 111.152 123.134 113.136C121.071 117.12 118.661 121.194 116.233 125.065C109.74 135.415 100.472 152.667 88.7247 157.719C80.3646 161.313 69.3864 160.239 64.2242 151.791C60.5569 145.782 56.1991 134.828 54.549 128.079C54.5119 127.92 54.1296 128.002 54.0679 127.834C54.017 127.706 53.6683 125.728 53.5346 125.165C52.389 120.328 51.1897 114.958 50.688 110.118C50.2818 106.198 50.015 99.9816 52.4117 96.8992C53.3419 95.7013 55.5417 95.255 56.9821 94.9665C63.0744 93.7427 67.9626 94.4883 73.0726 98.2754C74.7356 99.5115 76.8721 101.597 78.3948 103.026C78.7986 103.404 79.136 104.147 79.7611 104.135C80.4741 104.123 84.3424 100.625 85.3834 99.9469C89.6555 97.1608 95.2739 95.3686 100.273 94.9234C102.486 94.7273 107.136 94.5828 109.005 95.9224C109.275 96.1176 110.328 97.5342 110.403 97.7651C110.508 98.0919 110.32 98.4722 110.378 98.8457C110.892 102.267 109.688 105.665 108.224 108.762C107.992 109.253 107.312 109.87 107.223 110.191C107.086 110.7 107.316 111.134 107.088 111.713C106.937 112.1 106.129 112.867 105.836 113.343C103.415 117.324 101.1 120.309 98.3081 123.938C97.4596 125.038 95.6634 128.146 94.6292 128.689C92.7924 129.659 87.8797 129.712 85.9297 128.857C84.7901 128.353 85.5798 126.727 86.0509 125.844C86.3411 125.299 87.356 124.313 87.7175 123.776C91.8115 117.686 97.3298 111.367 98.9868 103.89C99.1104 103.324 99.5892 99.9797 99.1774 99.6789C94.9408 100.897 91.9425 104.469 88.49 106.967C83.709 110.425 75.5902 111.172 70.5886 107.647C69.3833 106.799 67.5444 105.181 66.2681 104.184C65.6785 103.724 62.6094 100.008 61.8057 101.044C61.4612 106.907 62.0933 112.903 63.304 118.698C64.6311 125.059 67.1598 133.046 69.7304 139.137C71.7972 144.036 74.3463 150.475 78.3354 153.768C79.3259 154.583 79.9559 155.753 81.5532 155.17L87.3905 150.586C92.4895 144.858 96.9508 138.611 101.062 132.091C108.928 119.621 116.199 106.036 121.571 92.0985C123.241 87.7759 126.31 79.8729 126.375 75.2092C126.401 73.2381 126.366 70.0449 123.895 69.9506C120.623 69.826 113.462 73.0261 110.47 74.7001C100.104 80.5024 93.4888 89.0934 80.6495 89.9818C72.4503 90.5513 66.5793 88.4331 60.7749 82.4767C56.9212 78.5234 53.4288 74.4611 49.5627 70.5503C47.376 68.342 44.0555 65.629 41.2038 64.299C39.7502 63.6228 34.9804 61.7441 33.6018 61.7731C31.2651 61.8204 29.8851 64.0751 29.2539 66.0853C27.3228 72.191 30.525 81.5597 32.4678 87.5929C38.4322 106.133 46.2934 124.334 53.1256 142.597C55.8654 149.92 58.4069 157.25 61.1705 164.576C63.5367 170.862 65.5919 178 70.0688 183.305C71.57 185.082 72.9828 186.379 75.3192 185.377C79.4293 183.606 82.6411 179.58 85.6518 176.252C92.9559 168.168 99.6533 158.723 106.106 149.666C106.959 148.466 107.995 147.22 108.851 145.99C109.15 145.561 109.356 144.335 109.57 144.028C110.443 142.749 111.779 141.226 112.735 139.767C119.99 128.714 127.373 117.885 134.423 106.646C140.363 97.1833 145.155 87.575 148.237 76.4962C149.589 71.6331 152.16 61.2086 151.068 56.3767C151 56.063 150.639 55.8438 150.542 55.4868C145.667 37.469 131.013 39.5997 117.854 46.6531C109.283 51.2448 101.855 56.8437 92.6174 60.1587C84.3724 63.1173 73.0242 63.9863 64.5153 61.4196C57.9404 59.4349 52.273 53.8306 47.4734 49.0917C43.4539 45.1236 38.8322 41.212 34.1756 37.8259C30.9985 35.517 30.2815 34.592 26.0318 35.513C22.7348 36.229 19.5996 39.4492 17.8233 42.2914C13.6243 49.004 12.2392 55.7394 12.196 63.8149C12.1383 75.2947 14.4245 86.3573 17.2096 97.4288C18.9967 104.529 20.9695 111.76 23.62 118.69C23.9987 119.674 25.3521 121.106 24.1584 121.686C23.1416 122.18 21.9242 122.043 21.2527 121.06C19.211 118.078 17.5791 112.382 16.3357 108.892C10.6598 92.8877 3.15601 69.2607 5.99129 52.4144C7.07447 45.9855 11.1883 37.1048 16.9837 34.0376C21.7506 31.5127 31.9107 30.6025 37.1376 31.7691C41.6417 32.7728 43.5583 34.4521 47.0353 37.1517L47.0346 37.1459Z" fill="#FEF1F1"/>
</g>
<defs>
<clipPath id="clip0_57_255">
<rect width="794" height="216.228" fill="white"/>
</clipPath>
</defs>
</svg>
