<svg width="170" height="114" viewBox="0 0 170 114" fill="none" xmlns="http://www.w3.org/2000/svg">
<g clip-path="url(#clip0_57_247)">
<path d="M0 94.5253C2.64023 88.6691 10.2841 86.4905 15.5988 83.4924C25.6545 77.8246 33.4696 69.8954 38.0365 59.1908C41.8926 50.1508 41.7785 47.3383 30.8607 48.2035C23.4453 48.7917 14.8938 56.1955 8.02916 54.5594C2.9542 53.3488 4.93224 46.3847 7.13005 43.2781C10.1556 39.0008 23.7821 29.6068 28.9598 29.0871C31.6685 28.8159 34.186 29.5154 36.6236 29.4983C39.3009 29.4812 50.4527 26.6144 52.8103 25.3324C55.0595 24.1075 57.3059 16.9663 61.0022 14.3737C65.2894 11.367 76.1814 11.3899 76.2442 18.1741C76.2784 21.846 71.7087 26.3632 78.0424 27.1741C85.0326 28.0706 91.4205 28.0963 98.2651 26.3003C107.156 23.9647 103.166 9.57674 105.566 2.96953C106.206 1.21351 107.827 0.0970808 109.682 0C109.574 3.65481 106.557 5.81057 110.327 8.73442C113.653 11.3128 118.679 11.6754 121.125 7.77789C122.815 5.08818 121.277 4.48 121.194 2.0958C121.174 1.52474 120.928 0.98794 121.759 1.15069C124.211 2.27283 124.208 4.04028 124.588 6.36736C125.001 8.91431 125.227 12.1808 125.039 14.7449C124.816 17.8172 122.921 23.2423 125.438 25.8007C128.526 28.9387 140.332 29.1985 145.136 30.6376C148.532 31.6569 151.238 33.57 154.917 34.2724C158.859 35.0233 169.172 34.3723 170.191 39.312C171.273 44.5487 167.67 47.4697 162.815 47.8494C151.809 48.7146 134.769 42.8269 129.337 56.9208C126.854 63.3624 127.784 71.5286 127.727 78.2443C127.647 87.5013 125.275 96.3642 120.492 104.35C117.894 108.685 112.491 113.305 107.119 111.058C97.2062 106.909 110.459 94.8623 112.103 89.4771C113.647 84.4204 111.152 80.1231 105.618 80.026C100.434 79.9375 85.9574 86.9102 81.8929 90.328C75.5563 95.6589 73.016 104.002 67.6955 109.838C62.7947 115.212 54.7912 114.675 55.6532 106.238C56.4581 98.3543 73.5183 77.0051 53.5353 79.6348C48.6088 80.283 43.6823 85.6139 39.475 88.1837C32.2422 92.598 13.8091 100.502 5.56304 100.296C3.2796 100.239 1.23021 99.5992 0.0028543 97.592V94.5311L0 94.5253ZM71.2406 43.3152C66.0515 44.2831 68.0923 54.3824 69.0628 57.9458C69.7935 60.627 72.8647 69.053 74.4602 70.929C77.914 74.9864 82.3124 70.9718 85.1439 68.3135C90.393 63.3881 106.574 42.096 87.8783 46.5503C85.7833 47.0499 83.8252 48.5033 81.5903 48.135C78.5847 47.6381 75.2994 42.5557 71.2377 43.3123L71.2406 43.3152Z" fill="#FEF1F1"/>
<path d="M81.3085 62.7599C81.9707 63.4452 88.1731 57.6746 88.5185 56.3526C89.2206 53.6686 85.5215 55.0106 84.2684 55.5731C83.2409 56.0328 81.3998 57.7831 80.7262 57.7888C79.3191 57.8031 78.7853 54.2796 77.107 53.7257C75.2117 53.1004 75.1033 55.4446 75.1689 56.8123C75.2231 57.9145 77.4466 67.5026 77.832 67.9452C79.1792 69.4928 81.2885 67.2913 82.4645 66.3976C85.2189 64.3047 93.7961 56.0128 93.5706 52.6378C93.4621 51.0417 91.8466 50.1937 90.4366 49.9824C86.7431 49.4285 83.9687 52.358 80.789 53.5515C79.3191 51.6185 75.5057 46.2676 72.7085 48.2463C71.758 48.9202 72.0292 52.4722 72.1091 53.7628C72.2861 56.6124 73.0539 59.3364 74.0272 61.9919C74.7151 62.0204 74.4553 60.2787 74.384 59.9103C74.2641 59.2793 73.8245 58.7739 73.7389 58.2571C73.2936 55.536 72.4602 52.0496 73.6133 49.5284C75.5257 48.1378 79.8071 54.1169 80.7633 55.4817C81.3142 55.6074 87.1655 50.6134 90.6193 51.3529C94.3812 52.161 91.2272 55.5217 89.9456 57.0236C87.0342 60.4357 83.0925 63.962 79.1992 66.1949C78.4799 66.1521 76.2878 56.8637 76.3306 55.4874C78.0546 56.0214 78.38 59.5791 79.9898 59.719C81.4284 59.8447 84.5539 55.7301 86.6803 56.2555C87.7221 57.1521 80.4008 60.9325 81.3142 62.7571L81.3085 62.7599Z" fill="#FEF1F1"/>
<path d="M81.3064 62.7599C80.3902 60.9353 87.7143 57.1549 86.6725 56.2583C84.546 55.7329 81.4206 59.8475 79.982 59.7218C78.3722 59.5819 78.0468 56.0242 76.3228 55.4902C76.2828 56.8665 78.4721 66.152 79.1914 66.1977C83.0846 63.9648 87.0293 60.4385 89.9378 57.0264C91.2194 55.5245 94.3734 52.1609 90.6114 51.3557C87.1577 50.6162 81.3093 55.6102 80.7555 55.4845C79.8022 54.1197 75.5179 48.1378 73.6055 49.5312C72.4552 52.0524 73.2858 55.5416 73.7311 58.2599C73.8167 58.7767 74.2534 59.2821 74.3762 59.9131C74.4447 60.2815 74.7044 62.0232 74.0194 61.9947C73.046 59.3392 72.2782 56.6152 72.1013 53.7656C72.0214 52.475 71.7502 48.923 72.7007 48.2492C75.4979 46.2704 79.3112 51.6213 80.7812 53.5543C83.9609 52.3608 86.7353 49.4313 90.4288 49.9852C91.8388 50.1965 93.4572 51.0445 93.5628 52.6406C93.7883 56.0156 85.214 64.3103 82.4567 66.4004C81.2807 67.2941 79.1714 69.4956 77.8242 67.948C77.4388 67.5054 75.2153 57.9173 75.1611 56.8151C75.0954 55.4474 75.201 53.1032 77.0992 53.7285C78.7775 54.2824 79.3112 57.8059 80.7184 57.7916C81.392 57.7831 83.2359 56.0356 84.2606 55.5759C85.5136 55.0134 89.2128 53.6714 88.5107 56.3554C88.1653 57.6746 81.9658 63.448 81.3007 62.7627L81.3064 62.7599Z" fill="#FEF1F1"/>
</g>
<defs>
<clipPath id="clip0_57_247">
<rect width="170" height="113.333" fill="white"/>
</clipPath>
</defs>
</svg>
