<svg width="794" height="189" viewBox="0 0 794 189" fill="none" xmlns="http://www.w3.org/2000/svg">
<g clip-path="url(#clip0_57_260)">
<path d="M243.504 31.4243L244.619 58.182L242.071 58.5005C233.788 40.1842 227.099 34.1319 217.543 34.1319C207.509 34.1319 200.501 41.2991 200.66 51.8111C200.66 63.7565 210.057 71.4015 219.613 80.1615C229.01 88.9214 238.885 98.637 238.885 115.52C238.885 137.34 222.958 148.967 200.978 148.967C190.626 148.967 181.069 146.419 173.743 142.118L172.628 112.494L175.017 112.016C182.981 133.358 192.218 142.596 204.801 142.596C217.861 142.596 224.869 132.88 224.869 121.413C224.869 108.353 215.631 100.548 206.394 92.1069C197.156 83.5062 187.6 75.2241 187.6 59.2969C187.6 38.7508 203.686 27.6017 222.799 27.6017C230.762 27.6017 238.726 29.3537 243.504 31.4243ZM240.156 150.56L251.782 95.6109C254.331 83.1876 252.738 75.0648 247.96 71.083V70.7644L273.284 62.8008L266.117 95.133C275.832 75.7019 286.822 63.5972 300.36 63.5972C311.987 63.5972 319.791 72.1979 319.791 89.5585C319.791 120.457 296.538 148.967 270.895 148.967C265.161 148.967 260.383 147.534 256.561 145.144L254.49 155.816C252.101 167.602 251.305 174.45 253.057 181.777V182.096H230.599V181.777C235.377 173.176 237.289 164.894 240.156 150.56ZM294.945 74.9055C287.937 74.9055 277.903 81.5949 263.409 111.22L261.498 120.776C258.79 135.588 261.976 142.596 271.054 142.596C290.326 142.596 304.342 111.22 304.342 89.7178C304.342 78.4095 300.042 74.9055 294.945 74.9055ZM335.858 112.812C335.858 131.288 343.981 137.34 353.059 137.34C360.227 137.34 367.394 133.518 373.128 124.28L375.517 125.235C369.624 140.526 358.475 148.967 344.937 148.967C328.691 148.967 319.134 136.384 319.134 117.909C319.134 89.7178 341.433 63.5972 367.872 63.5972C377.269 63.5972 385.71 67.1012 385.71 78.091C385.71 91.4698 373.446 104.371 336.336 105.486C336.017 107.875 335.858 110.264 335.858 112.812ZM365.164 69.9681C352.741 69.9681 340.636 82.3913 336.973 100.867C368.19 96.7258 372.968 85.0989 372.968 77.7724C372.968 72.0386 370.102 69.9681 365.164 69.9681ZM435.801 120.617L438.35 121.572C433.412 137.818 422.582 148.967 406.973 148.967C389.612 148.967 379.26 135.27 379.26 116.157C379.26 88.9214 400.284 63.5972 425.767 63.5972C434.846 63.5972 442.172 66.6234 443.765 67.8975L443.128 88.2844L441.216 88.6029C437.553 80.7986 432.775 69.9681 421.945 69.9681C409.203 69.9681 395.346 85.2582 395.346 110.105C395.346 128.262 402.832 136.544 414.459 136.544C422.9 136.544 430.227 132.084 435.801 120.617ZM482.84 148.33L489.689 121.413C480.769 137.181 469.143 148.967 456.241 148.967C445.889 148.967 438.881 140.685 443.34 124.121L452.737 88.9214C455.445 78.091 456.719 71.083 447.959 66.4641V65.9863H473.443L458.471 123.324C456.401 131.606 458.471 137.181 464.524 137.181C474.558 137.181 487.3 120.776 497.015 93.0625L498.13 88.9214C500.838 78.091 502.112 71.083 493.352 66.4641V65.9863H518.835L503.705 123.643C500.678 135.27 500.519 140.526 507.686 145.304V145.622L482.84 148.33Z" fill="#FEF1F1"/>
<path d="M525.156 36.8915H558.444C563.541 36.8915 568.638 38.0064 568.638 41.1918C568.638 43.8994 563.859 45.3329 560.674 45.3329C555.737 45.3329 551.755 48.0405 551.755 52.6594V83.0803C551.755 86.7436 553.507 88.177 556.692 88.177H595.873C601.766 88.177 602.403 85.4694 602.403 83.3989V53.4558C602.403 50.2703 600.97 45.1736 597.147 45.1736C595.236 45.1736 593.803 42.9438 593.803 41.1918C593.803 37.3693 598.899 36.8915 603.359 36.8915H628.365C632.346 36.8915 635.85 38.962 635.85 41.3511C635.85 44.3773 631.869 45.4922 627.887 45.4922C621.994 45.4922 619.127 49.3147 619.127 53.2965V131.34C619.127 135.959 622.312 139.463 627.568 139.463C631.391 139.463 635.85 140.1 635.85 143.763C635.85 146.152 631.55 148.382 627.568 148.382H590.458C587.591 148.382 585.202 146.471 585.202 143.763C585.202 140.896 589.821 139.463 594.121 139.463C597.784 139.463 602.403 135.322 602.403 131.499V101.874C602.403 97.8926 600.173 96.2999 595.873 96.2999H556.851C552.392 96.2999 551.436 99.1668 551.436 102.512V128.154C551.436 131.977 552.233 139.463 555.737 139.463C557.966 139.463 559.878 140.896 559.878 143.285C559.878 146.471 555.099 148.382 551.118 148.382H527.545C523.564 148.382 518.148 146.789 518.148 143.763C518.148 140.578 522.289 139.463 526.271 139.463C533.598 139.463 535.19 133.41 535.19 128.314V54.8892C535.19 48.6776 531.846 45.4922 526.431 45.4922C522.767 45.4922 517.989 44.3773 517.989 41.0326C517.989 38.4842 522.289 36.8915 525.156 36.8915ZM653.976 74.3204C653.976 76.5502 656.206 79.0985 658.436 79.0985C662.577 79.0985 664.01 83.8767 664.01 87.54V129.11C664.01 134.207 668.311 138.826 673.407 138.826C681.53 138.826 683.919 132.295 683.919 129.11V106.971C683.919 103.467 686.308 98.5297 689.972 98.5297C692.201 98.5297 694.431 96.1406 694.431 93.9108C694.431 91.681 691.724 88.8141 689.175 88.8141C685.353 88.8141 683.919 83.5582 683.919 79.0985C683.919 72.7277 689.016 68.7459 694.75 68.7459C699.369 68.7459 703.988 73.0462 703.988 77.6651V130.066C703.988 133.41 706.536 138.826 709.403 138.826C711.951 138.826 713.862 141.533 713.862 143.763C713.862 146.152 711.633 148.382 706.377 148.382H661.94C657.48 148.382 653.976 146.152 653.976 143.444C653.976 141.852 652.543 138.985 649.676 138.985C645.694 138.985 644.261 133.41 644.261 129.11V98.2112C644.261 96.1406 642.827 88.9734 639.482 88.9734C635.819 88.9734 634.227 82.6025 634.227 79.4171C634.227 74.4797 638.368 68.7459 645.535 68.7459C649.835 68.7459 653.976 71.772 653.976 74.3204ZM713.869 39.5991C709.887 39.5991 707.02 34.5024 711.161 29.8835C711.48 28.4501 716.417 27.1759 718.647 25.1054C721.354 23.0348 722.947 21.2828 727.566 20.805C732.344 20.0087 737.6 22.0792 738.078 27.4944C738.397 29.8835 738.078 50.5889 738.397 61.8972C738.397 65.5604 740.945 68.7459 746.519 68.7459H757.668C784.904 68.4273 788.567 91.0439 789.841 101.556C790.319 104.104 790.956 112.068 789.841 116.209C788.089 122.261 783.152 125.924 782.515 134.525C781.719 140.737 777.1 144.081 768.658 147.585C756.872 151.727 739.511 150.134 725.336 148.7C718.965 147.426 718.965 144.559 718.965 138.188V47.8812C718.806 45.8107 717.532 39.5991 713.869 39.5991ZM738.078 102.512L738.237 128.473C738.556 133.57 741.263 136.118 745.405 136.118C759.42 136.118 764.517 136.277 767.225 134.684C770.092 132.932 771.207 130.543 772.003 127.199C772.64 124.65 775.507 123.854 776.144 119.713C776.622 114.935 776.781 113.342 776.463 108.245C776.303 106.334 775.029 101.715 774.233 100.441C772.321 98.0519 769.136 95.3443 768.499 91.8403C768.18 90.2476 764.676 88.0178 761.969 88.0178C759.42 88.0178 757.35 85.4694 757.191 81.9654C757.031 80.0542 753.05 76.0724 746.519 80.3727C744.449 81.8062 741.104 85.4694 737.122 86.5843C733.618 87.54 732.503 94.8665 734.893 96.937C737.6 98.5297 738.078 99.9632 738.078 102.512Z" fill="#FEF1F1"/>
<path d="M87.0979 9.10011C87.1546 9.15695 87.3302 9.1058 87.2849 9.17969L87.0696 9.37295C87.2056 9.54347 87.4435 9.6401 87.5681 9.8163C88.7351 11.4249 90.0495 14.1646 90.7293 15.9664C90.9219 16.478 91.1428 17.7853 91.3298 18.1775C91.8906 19.3484 92.3495 20.5704 92.7234 21.8266C92.9954 22.7474 93.2446 23.6739 93.3636 24.6175C93.5109 24.7766 93.5789 24.6061 93.5959 24.4754C93.6582 24.0888 93.5562 23.6341 93.6072 23.2306C93.8338 21.4344 94.9895 17.5295 96.723 16.4439C98.7965 15.1422 101.233 15.8016 103.504 16.4154C107.747 17.5636 110.654 19.2915 113.583 21.9687C113.973 22.3268 115.684 23.9354 115.832 24.265C115.928 24.4754 115.775 24.6459 115.809 24.697C115.837 24.7368 116.54 25.0608 116.67 25.1972C116.817 25.3564 118.086 27.1582 118.115 27.2833C118.296 28.1643 118.477 27.9085 118.959 28.5337C119.35 29.0339 119.401 29.5739 119.605 30.0116C119.656 30.1253 120.018 30.3356 120.149 30.6084C120.721 31.8248 121.27 33.3992 121.684 34.644C123.451 39.9586 123.961 45.4266 124.624 50.8719C124.681 51.355 124.584 52.2872 124.862 52.7021C124.947 52.8272 124.93 52.8215 125.026 52.7419C125.593 52.2474 126.363 51.9632 127.088 51.662C127.479 51.4971 128.119 51.3948 128.442 51.2527C130.04 50.5649 130.267 49.934 132.453 50.0022C134.181 50.0591 138.623 51.5483 139.994 52.4634C143.636 54.8905 144.764 62.0296 144.962 65.7071C145.013 66.6734 145.245 69.4245 145.013 70.2487C144.99 70.3226 144.792 70.3055 144.792 70.351C144.99 74.5401 143.721 78.3711 143.37 82.475C142.996 86.8289 143.988 91.2227 143.364 95.5539C143.155 96.9976 142.543 98.5607 142.271 100.021C141.886 102.085 141.801 104.023 141.608 106.035C141.291 109.286 140.974 112.06 141.087 115.38C141.229 119.489 141.506 123.275 141.183 127.475C140.73 133.353 140.005 139.94 138.056 145.533C137.382 147.466 136.651 149.063 135.263 150.734C134.85 151.229 133.717 152.769 133.258 153.121C132.799 153.474 132.776 153.514 132.402 153.855C131.303 154.861 129.145 155.821 127.774 156.594C127.071 156.992 125.576 157.919 125.14 158.464C124.93 158.732 124.703 159.169 124.448 159.431C122.732 161.204 117.65 162.637 114.988 163.284C111.419 164.148 107.923 165.103 104.28 165.82C91.8963 168.247 73.8924 168.389 61.9899 164.296C60.9985 163.955 60.0637 163.489 59.095 163.12C54.965 161.551 50.3706 159.993 46.8638 157.6C46.3993 157.288 46.0764 157.169 45.7308 156.953C45.5552 156.839 45.5325 156.532 45.4306 156.435C45.3003 156.316 44.7167 156.197 44.4675 156.026C44.1672 155.816 44.0652 155.503 43.7707 155.253C43.3911 154.923 42.7283 154.645 42.3147 154.332C41.7822 153.929 41.5499 153.457 41.142 153.087C40.9097 152.877 40.1449 152.519 40.0316 152.366C39.5841 151.757 38.9269 151.2 38.2981 150.672C35.7941 148.586 33.0238 146.721 30.8767 144.328C29.3131 142.583 27.5173 140.668 26.2483 138.798C25.4608 137.638 24.6054 136.342 23.7273 135.103C23.0475 134.148 21.7218 132.801 21.4329 131.693C21.093 130.385 21.2459 129.345 21.1213 128.083C20.974 126.554 19.705 124.167 19.1328 122.627C17.8638 119.222 16.7704 115.88 15.7904 112.39C14.8556 109.042 14.0172 105.382 13.0654 101.937C13.0088 101.744 12.6122 101.494 12.5555 101.295C12.4876 101.067 12.5555 100.556 12.4479 100.181C11.6095 97.3159 10.703 94.3659 9.75128 91.4671C8.92417 88.9547 7.9271 86.3856 7.07732 83.7823C5.77433 79.7864 4.45435 75.711 3.33831 71.7606C3.21367 71.3173 3.14569 70.8114 3.04938 70.4817C3.03805 70.4419 2.89076 70.3908 2.77179 69.9986C0.805975 63.7234 -0.446028 57.1754 0.148815 50.7639C0.15448 50.6957 0.30744 50.6104 0.30744 50.5479C0.30744 50.4115 -0.196761 50.1784 0.585034 50.0193C0.62469 49.9738 0.403748 49.8601 0.375422 49.7578C0.211132 49.1326 0.862627 46.1826 1.08357 45.3811C1.63309 43.3747 2.66415 41.5899 3.88783 39.7994C3.95015 39.7028 4.33538 39.2026 4.38637 39.1515C4.55066 38.998 4.8849 39.0264 5.02653 38.9127C5.21348 38.7593 5.07185 38.5376 5.16249 38.4012C5.35511 38.117 7.34359 37.253 7.8138 37.1734C9.76262 36.8324 13.6659 37.7361 15.6487 38.2363C18.487 38.9468 20.6114 39.771 22.9002 41.2148C23.1211 41.3512 23.8066 41.5785 23.9142 41.6752C24.0389 41.7888 23.9935 42.0105 24.0898 42.1071C24.1635 42.181 24.798 42.38 25.1152 42.6642C26.1746 43.6077 27.2283 44.7161 28.2651 45.7392C28.3784 45.8529 28.656 46.1314 28.724 46.2337C29.1262 46.8931 29.5397 47.3819 30.0156 48.0469C30.1063 48.1777 30.1063 48.3311 30.3669 48.2857C30.2309 47.8025 30.3669 47.308 30.3385 46.8192C30.3272 46.6657 30.2026 46.5122 30.1912 46.3645C30.0666 44.8809 30.0269 43.3065 29.6644 41.8855L29.9023 41.7036C29.5227 41.4194 29.7494 41.084 29.7154 40.7771C29.6474 40.1973 29.3981 39.3447 29.4208 38.8104C29.4321 38.6172 29.687 38.6854 29.67 38.6228C29.1942 38.0203 29.3415 37.1621 29.2735 36.5198C28.7749 31.8702 28.2594 27.0559 27.9252 22.4518C27.6589 18.7572 27.455 13.3574 28.8543 9.87314C29.3301 8.68518 30.7464 6.87767 32.3213 6.56505C38.5644 5.31456 48.3028 8.71929 53.5148 11.5897C55.6449 12.7663 57.7183 14.5056 59.1459 16.2847C59.8371 17.1487 60.7435 18.2116 61.344 19.0926C61.5536 19.3995 61.548 19.8315 61.8652 20.11C61.8652 19.4621 61.7633 18.797 61.6783 18.1491C61.1457 14.102 60.8512 9.39 62.0352 5.45666C62.0635 5.36004 62.2901 5.3714 62.3468 5.25204C62.3864 5.16678 62.2844 4.88258 62.3524 4.71774C62.6527 3.96177 63.7517 2.68287 64.3749 2.07468C64.7035 1.75638 64.7375 1.33008 65.5419 1.34713L65.423 0.966299C65.9328 1.0004 66.1934 0.602523 66.6013 0.44337C69.7908 -0.778691 74.3966 0.795779 77.4161 1.90984C80.4357 3.02391 83.6025 5.24067 85.5626 7.23007C86.1292 7.80416 86.5031 8.56013 87.0809 9.11148L87.0979 9.10011ZM76.9742 5.019C76.9346 4.95647 76.2151 4.42786 76.0678 4.27439C75.6146 3.8083 74.8441 2.62035 73.9377 2.98412C73.8414 3.02391 73.8357 3.14327 73.6998 3.19443C73.2409 3.37063 72.8047 3.54115 72.3571 3.71736C72.1588 3.79693 71.7906 3.77988 71.6207 3.88788C71.4677 3.99019 71.717 4.21187 71.3544 4.38239C70.9748 4.56428 71.1674 4.39944 70.7595 4.70638C69.5132 5.64424 68.0912 8.16794 67.6777 9.49231C67.5757 9.82767 67.2018 10.6405 67.2018 10.7087C67.2132 13.0676 66.7373 15.4946 66.7316 17.9331C66.7316 20.5136 67.0942 23.0657 67.1792 25.6178C67.1905 25.9816 67.5474 26.2374 66.7656 26.3397C66.2897 26.4022 65.8818 26.226 65.4286 26.2999C65.3606 26.7376 66.0461 27.3287 66.1141 27.5731C66.2161 27.954 66.0121 27.8005 66.2954 28.3746C66.6636 29.1078 66.6693 29.7444 66.8562 30.4095C66.8959 30.5572 67.2018 30.8414 67.3038 31.12C67.7343 32.2795 67.9836 33.9335 68.2895 35.1556C68.3745 35.5023 68.1536 36.2128 68.7031 36.2583C68.3518 36.696 68.6294 36.7017 68.6804 36.9972C68.7088 37.1621 68.8334 37.8839 68.8277 37.9294C68.8051 38.0772 68.5841 38.1909 68.6068 38.3045C68.6294 38.4353 69.0147 38.5433 69.0657 38.8047C69.1223 39.0889 69.009 39.5778 69.0996 39.9359C69.3489 40.9362 69.5019 41.9139 69.6492 42.9313C69.7115 43.3519 70.0344 44.5626 70.0117 44.8582C69.9948 45.0571 69.7908 45.2049 69.7908 45.2447C69.7908 45.3243 70.0457 45.4039 70.0854 45.546C70.2157 46.0064 70.0797 47.5865 70.1364 48.2061C70.3347 50.2751 70.3233 52.3725 70.4083 54.4869C70.4366 55.1292 70.295 55.9193 70.278 56.6468C70.2553 57.6188 70.414 58.7613 70.3347 59.665C70.312 59.9208 70.0401 60.1596 70.0344 60.2505C70.0231 60.4722 70.6123 60.9269 69.7568 61.069C70.1024 61.3532 70.142 61.5919 70.159 61.9841C70.193 62.7117 70.0004 63.5529 69.9948 64.2918C69.9778 65.3775 70.1817 66.6677 69.9948 67.7591C69.9608 67.9751 69.7625 68.1172 69.7568 68.2365C69.7511 68.3957 69.9551 68.5207 69.9721 68.6458C69.9948 68.7765 69.7851 69.4302 69.7568 69.5893C69.6775 70.0213 69.6605 70.6238 69.5415 71.0387C69.179 72.329 67.2301 71.9482 65.9668 71.8345C63.9897 71.6583 61.5933 71.1069 59.7011 70.5442C58.6757 70.243 56.4663 69.487 55.6165 68.9982C55.2313 68.7765 54.7894 68.1797 54.7214 67.8045C54.6761 67.5488 54.9141 67.4408 54.8857 67.293C54.8574 67.1566 54.5968 66.9633 54.5628 66.6848C54.3192 64.5021 54.0303 62.2228 53.8603 60.0572C53.4411 54.7654 53.9736 49.7408 53.8603 44.4831C53.849 44.1022 53.6281 43.1814 53.679 42.9313C53.7017 42.8063 53.9566 42.7267 53.9566 42.6471C53.9566 42.6073 53.7754 42.4823 53.747 42.3516C53.679 42.0048 53.6167 40.8112 53.6167 40.4304C53.6167 40.1632 53.8377 39.9813 53.8377 39.9472C53.8377 39.8904 53.6054 39.7881 53.5431 39.5891C53.4468 39.2651 53.5431 38.2477 53.5204 37.8328C53.3901 36.0139 53.1805 33.9961 52.9312 32.2511C52.3817 28.3973 52.1494 24.7596 50.5065 21.1616C50.1496 20.3829 49.8551 19.5189 49.5151 18.7118C49.2602 18.1093 49.0506 17.1373 48.7164 16.6939C48.3424 16.1994 47.8326 15.5913 47.5267 15.0513C47.3567 14.75 47.2661 14.2782 47.1131 14.0452C46.9885 13.8519 46.7505 13.8178 46.6259 13.6701C46.4729 13.4825 46.6089 13.2551 46.5126 13.1244C46.439 13.0278 46.2293 13.005 46.099 12.8572C45.9121 12.6413 45.8668 12.2832 45.7251 12.1013C45.4702 11.7716 44.5298 10.9133 44.1616 10.6007C44.0313 10.487 43.1192 9.78788 43.0455 9.7822C42.7906 9.74809 42.564 9.86746 42.3487 9.86746C42.1334 9.86746 41.9068 9.76514 41.6462 9.7822C41.4196 9.79925 39.1479 10.3108 39.0459 10.3904C38.9893 10.4359 39.0289 10.6177 38.9043 10.703C38.7343 10.8224 38.3264 10.811 38.0885 11.1123C36.4683 13.204 36.0094 16.4666 35.7544 18.8823C35.5335 20.9683 35.3919 22.9805 35.4089 25.112C35.4542 32.6831 35.9244 40.1916 36.117 47.7457C36.1623 49.6044 36.4852 52.1906 36.219 53.9924C36.1907 54.197 36.0604 54.3789 35.998 54.5665C35.7091 54.6063 35.4032 54.6688 35.1086 54.6915C34.9273 54.7029 34.6497 54.4755 34.695 54.7597C34.899 55.078 34.9726 55.4361 35.1143 55.7601C35.3352 56.2603 35.5675 56.7776 35.8168 57.2948C36.5192 58.7499 37.1707 60.4267 37.7089 61.9898C39.1195 66.088 39.8957 70.2146 40.8418 74.3298C40.9721 74.9039 41.4933 76.5807 41.4593 76.9785C41.4479 77.1263 41.2723 77.2116 41.2666 77.2627C41.2666 77.3537 41.6009 77.4901 41.6519 77.5981C41.7199 77.7345 41.5839 77.8652 41.6179 78.0017C41.7482 78.5416 41.9351 78.8997 42.0654 79.5534C42.292 80.6788 42.649 81.8554 42.7566 82.9411C42.8132 83.5208 43.0229 84.4018 42.326 84.6917C39.6917 85.7887 33.46 84.2995 30.9164 83.1627C29.6927 82.6171 30.1119 82.3215 29.7607 81.4234C29.687 81.2358 29.3585 80.9801 29.3471 80.8039C29.3358 80.6674 29.5737 80.5708 29.5511 80.4458C29.5284 80.3207 29.1772 80.2014 29.1149 80.0308C29.0469 79.8262 29.1375 79.6045 29.0695 79.3942C28.7863 78.5644 28.1744 77.5526 27.9478 76.6602C27.8628 76.3135 28.0441 76.0975 28.0158 75.836C27.9818 75.5518 27.6532 75.5689 27.5909 75.4211C27.5059 75.2165 27.5229 74.7731 27.438 74.4833C27.3756 74.2616 27.132 74.0229 27.132 73.7784C27.132 73.6079 27.3077 73.4885 27.302 73.4147C27.2963 73.2953 26.7638 73.0964 26.8658 72.5564C26.8884 72.4313 27.0584 72.3176 27.0584 72.2608C27.0584 72.1926 26.8148 72.0221 26.7695 71.8572C26.6845 71.556 26.8148 71.2036 26.7411 70.9364C26.7298 70.891 26.4296 70.8114 26.3672 70.351C25.9763 67.5601 25.4608 64.5931 24.6904 61.9273C24.4014 60.9212 24.3844 59.5116 23.9992 58.46C23.2061 56.2831 22.226 53.964 21.5745 51.7017C21.5235 51.5255 21.2969 51.3948 21.2799 51.2868C21.2573 51.1561 21.4045 51.0026 21.3536 50.8378C21.3366 50.7809 20.7814 50.2637 20.5718 49.934C19.1668 47.7229 17.8525 45.3413 16.1756 43.2553C15.949 42.9711 15.5864 42.4198 15.2522 42.1412C15.1842 42.0844 14.6233 41.8002 14.5893 41.8229C14.578 41.9309 14.5384 42.0617 14.459 42.1526C14.2211 42.4027 13.275 43.0791 13.1561 43.2894C11.4112 46.4156 10.5387 49.0303 10.0062 52.4407C9.28108 57.1186 9.62665 62.0637 10.5557 66.6905C10.5954 66.8951 10.924 67.6113 10.924 67.7477C10.924 67.8614 10.7144 67.9864 10.7484 68.1172C10.8503 68.5378 11.1223 68.7026 11.1959 69.3847C11.2865 70.2259 11.6265 71.34 11.8984 72.0789C12.1703 72.8178 12.3743 73.7614 12.5725 74.5117C13.462 77.8255 14.2834 81.2643 15.3768 84.4132C15.4674 84.6804 15.4391 85.4534 15.4674 85.5045C15.5128 85.5955 15.7337 85.6694 15.8017 85.7831C15.8357 85.8456 16.1813 86.9994 16.2039 87.1131C16.2662 87.4939 15.9716 87.6019 16.5665 87.9657C16.1643 88.375 16.6175 88.3238 16.6628 88.5398C16.9177 89.7334 17.2803 91.0067 17.5579 92.2344C17.7165 92.9506 17.8921 93.6099 18.1244 94.275C18.8779 96.4406 19.3311 98.4413 19.8806 100.618C20.1412 101.658 20.4131 102.653 20.7247 103.676C20.8607 104.12 20.8777 104.358 20.9287 104.773C20.957 105.023 21.2912 105.075 20.8947 105.455C21.3819 105.586 21.127 106.115 21.2006 106.382C21.2573 106.609 21.5745 106.842 21.6028 107.104C21.8181 108.979 22.2317 111.054 22.7925 112.862C22.8492 113.038 22.7529 113.243 22.7925 113.333C22.8662 113.51 23.2061 113.487 23.2514 113.737C23.3024 114.021 22.9965 114.192 23.0191 114.3C23.0418 114.408 23.2911 114.476 23.3137 114.595C23.7726 117.164 24.4241 119.711 25.1436 122.274C25.1832 122.411 25.3928 122.53 25.4438 122.701C25.5968 123.246 25.3928 123.781 25.9424 124.321L25.7044 124.599C26.2199 124.832 25.999 125.133 26.0783 125.349C26.1236 125.474 26.3106 125.543 26.3672 125.673C26.4409 125.838 26.2879 126.248 26.3049 126.27C26.3333 126.31 26.6392 126.31 26.7355 126.543C26.7978 126.697 26.7921 127.362 26.8828 127.669C26.9394 127.856 27.132 127.941 27.149 128.01C27.3133 128.521 27.5626 129.215 27.6872 129.703C27.8119 130.192 27.5116 130.079 27.421 130.249C27.2057 130.647 28.0101 131.863 28.2934 132.278C28.9392 133.216 29.7947 133.938 30.5595 134.739C30.9334 135.126 31.228 135.495 31.5452 135.848C33.0182 137.496 33.8736 139.417 35.4655 140.901C35.9187 141.321 36.0887 141.697 36.4569 142.009C38.4681 143.697 40.009 145.977 42.0541 147.506C42.3657 147.739 42.9832 147.977 43.2891 148.222C43.612 148.478 44.2012 149.302 44.4335 149.444C44.966 149.762 44.9037 149.666 45.4589 150.092C46.1557 150.626 46.235 150.461 46.7675 151.178C46.8015 151.223 47.4304 151.587 47.7023 151.848C47.8213 151.968 48.3085 152.042 48.5011 152.309C48.6597 152.53 48.4784 152.667 48.5917 152.797C48.7447 152.968 49.3905 153.19 49.6568 153.366C50.3479 153.832 50.9371 154.855 51.5319 155.185C51.9908 155.441 52.4157 155.259 52.6593 155.799C52.716 155.918 52.6593 156.134 52.7046 156.191C52.7386 156.225 53.4921 156.378 53.7357 156.543C54.6988 157.191 55.7978 157.839 56.8459 158.402C59.8144 159.982 63.1229 161.153 66.2104 162.529C74.7932 166.365 88.9504 165.922 98.1393 164.04C102.094 163.228 106.586 162.239 110.41 161.153C111.968 160.71 114.976 159.698 116.342 159.016C116.936 158.715 117.48 157.913 117.933 157.487C120.273 155.287 123.196 154.702 125.598 152.786C131.201 148.33 132.606 143.442 133.881 137.286C135.36 130.147 135.745 123.531 135.49 116.346C135.258 109.912 135.767 103.381 137.065 97.2022C137.235 96.3894 137.558 95.5539 137.722 94.7581C138.583 90.4667 137.393 85.9763 137.66 81.6167C137.796 79.3772 138.373 77.0354 138.696 74.7959C139.62 68.4412 139.994 61.7795 137.206 55.7033C137.014 55.2884 135.937 52.9636 135.575 52.9124C135.11 53.0489 134.646 53.2194 134.209 53.4013C134.062 53.4638 134.04 53.6173 133.921 53.6627C133.331 53.9015 132.227 53.9185 131.728 54.2425C130.533 55.0155 130.408 55.5953 129.689 56.607C129.411 56.9936 129.105 57.4312 128.833 57.7836C128.782 57.8518 128.561 57.8575 128.544 57.9428C128.527 58.0394 128.709 58.227 128.612 58.3691C128.59 58.3975 128.34 58.443 128.227 58.5794C128.063 58.767 128 59.0057 127.814 59.2046C127.321 59.7332 126.392 60.2732 125.553 60.1141C125.123 60.1937 125.655 61.4669 125.655 61.6488C125.655 61.9727 125.536 62.598 125.53 62.9561C125.479 64.8716 125.893 67.1338 125.842 69.1062C125.842 69.2767 125.995 69.4529 125.95 69.6803C125.921 69.8224 125.7 69.9588 125.723 70.0611C125.746 70.152 125.967 70.2259 126.029 70.3794C126.114 70.5954 125.944 71.4139 125.955 71.7094C126.063 74.7674 126.171 77.6777 126.193 80.7527C126.216 84.1461 126.239 87.8066 126.08 91.1431C125.95 93.7748 125.672 96.5145 125.287 99.0552C125.168 99.851 125.287 101.084 124.556 101.63C125.208 101.909 124.732 102.329 124.669 102.687C124.125 105.791 123.769 109.002 123.049 112.123C122.958 112.515 123.145 112.901 123.134 112.964C123.117 113.072 122.862 113.208 122.822 113.39C122.743 113.72 122.772 114.516 122.681 114.999C122.539 115.709 122.471 116.374 122.29 117.079C121.791 118.995 121.406 121.217 120.653 123.042C120.528 123.349 119.928 124.093 119.916 124.156C119.894 124.269 120.03 124.412 119.984 124.599C119.967 124.667 119.435 125.685 119.355 125.821C118.574 127.197 117.339 128.351 116.217 129.487C115.973 129.732 114.993 130.437 114.676 130.624C114.33 130.823 113.894 130.88 113.515 131.016C113.758 131.761 113.135 131.573 112.654 131.846C112.478 131.943 112.467 132.108 112.331 132.182C107.045 135.251 98.8815 136.03 92.4968 136.223C84.7752 136.45 73.2522 134.177 67.1565 130.192C66.7146 129.902 65.6722 129.629 65.2417 129.169C65.0887 129.004 65.151 128.777 65.0264 128.623C64.9018 128.47 64.5165 128.447 64.3749 128.294C64.2503 128.146 64.3126 127.958 64.2446 127.873C64.1766 127.788 63.2532 127.509 63.0946 127.327C62.8056 126.998 62.4827 126.23 62.1485 125.798C61.0381 124.372 60.0524 123.224 59.1459 121.734C58.6021 120.836 58.6644 120.063 58.1262 119.302C56.8006 117.437 56.1321 114.97 55.7525 112.884C55.0783 109.178 55.4013 105.171 57.4521 101.801C57.9223 101.028 58.738 100.226 59.3102 99.5781C60.8058 97.8786 65.7912 96.0938 68.2159 95.6505C71.4054 95.0707 74.1926 95.2356 77.4048 95.6391C82.0276 96.2132 89.0524 97.441 92.8934 99.6236C93.137 99.76 93.2276 99.9988 93.6072 100.192C94.0264 100.402 94.8082 100.544 95.1481 100.817C95.641 101.209 96.1112 101.619 96.6437 102.017C97.0403 102.318 97.1876 103.011 97.5218 103.313C97.6805 103.455 98.0204 103.46 98.2243 103.699C98.4962 104.006 99.9295 106.12 100.003 106.376C100.105 106.712 100.099 107.286 100.167 107.576C100.241 107.9 100.819 108.582 100.842 108.854C100.864 109.161 100.632 109.696 100.808 110.122L100.524 111.02C99.1194 111.935 95.1141 111.441 93.4542 111.083C91.5507 110.668 88.9618 109.969 87.2849 109.139C87.0073 109.002 86.5144 108.826 86.4747 108.553C86.4068 108.121 86.3048 108.064 86.2425 107.78C86.1348 107.303 86.3048 107.405 86.0725 106.865C85.5343 105.62 84.9225 104.33 84.305 103.125C84.2257 102.966 83.8971 102.778 83.8291 102.54C83.7611 102.301 84.0784 102.25 83.9707 102.062C83.8461 101.852 82.9963 101.511 82.883 101.363C82.798 101.249 82.832 101.028 82.6734 100.817C82.4638 100.533 82.0219 100.357 81.7556 100.129C80.8775 99.3735 80.8322 98.8961 79.3026 98.9984C77.7617 99.1007 74.9688 99.8624 73.5808 100.442C72.7197 100.8 71.5697 101.789 70.8162 102.301C70.6972 102.38 70.4026 102.42 70.3743 102.466C70.3063 102.557 70.3913 102.778 70.3007 102.932C70.193 103.114 69.8248 103.097 69.7058 103.222C69.6548 103.278 69.7228 103.438 69.6605 103.563C69.4056 104.046 68.8277 104.722 68.5501 105.251C66.7543 108.701 67.2755 113.447 68.6974 116.948C69.0317 117.773 69.8078 118.745 70.0571 119.478C70.1137 119.643 69.9268 119.762 69.9381 119.91C69.9947 120.598 70.6802 120.74 70.9465 121.064C71.2128 121.388 71.3034 121.962 71.479 122.263C71.8189 122.86 72.4138 123.434 72.782 124.076C73.0766 124.593 73.1502 124.514 73.3372 124.775C73.4448 124.923 73.3938 125.168 73.5298 125.389C73.7564 125.753 74.5496 125.878 73.9887 126.361C74.4872 126.674 75.286 127.077 75.6769 127.464C75.9715 127.754 76.0055 128.095 76.2491 128.339C76.6343 128.72 77.8354 129.129 78.3622 129.487C79.331 130.147 80.1127 130.624 81.2628 131.141C81.9199 131.437 85.0698 132.756 85.6023 132.761C85.9819 132.761 86.5937 132.585 87.0073 132.568C92.2079 132.329 96.9383 131.863 101.244 129.283C101.408 129.186 101.47 129.016 101.629 128.925C101.918 128.76 102.439 128.76 102.722 128.578C102.966 128.419 102.938 128.186 103.125 128.044C103.278 127.93 103.657 127.884 103.81 127.765C103.929 127.669 103.906 127.498 104.003 127.424C104.467 127.049 105.079 126.827 105.476 126.515C105.872 126.202 106.042 125.725 106.393 125.395C106.801 125.02 107.175 124.821 107.487 124.326C109.107 121.763 109.844 119.091 110.489 116.312C110.642 115.664 110.648 115.675 110.676 115.01C110.682 114.84 110.96 114.686 111.011 114.436C111.118 113.89 111.073 113.163 111.175 112.589C111.628 109.917 112.291 107.07 112.597 104.535C113.095 100.425 113.889 96.2075 114.257 91.9957C114.529 88.8922 114.506 85.6637 114.574 82.6114C114.659 78.6724 114.597 74.4946 114.517 70.476C114.506 69.9304 114.716 69.3506 114.404 68.8504L114.761 68.606C114.24 68.5776 114.546 68.0205 114.534 67.6909C114.393 60.853 113.945 54.1231 113.362 47.2966C112.637 38.8786 112.223 28.7043 106.563 21.6277C105.787 20.6614 105.13 19.8997 104.127 19.1153C103.805 18.8596 103.742 18.4219 103.17 18.5015C103.113 18.5071 102.264 18.8368 102.224 18.8652C102.111 18.9448 102.19 19.0869 102.077 19.1665C101.946 19.2518 101.618 19.2631 101.482 19.3825C101.034 19.786 100.065 21.298 99.8106 21.73C98.2356 24.4299 98.0487 26.6523 98.0147 29.5853C98.0034 30.2503 97.7428 31.1029 98.0883 31.7907C98.2243 32.0692 98.7455 32.1374 98.8758 32.4386C98.0883 32.8365 97.3689 32.5466 96.5644 32.3704L95.2558 31.91L95.9016 34.5531C96.1792 36.4004 96.5078 38.3671 96.7627 40.095C96.9723 41.4933 97.0969 42.6869 97.2442 44.0283C98.5359 55.7033 98.7228 67.2077 97.1932 78.7917C97.1083 79.4511 97.012 80.4912 97.0913 81.0767C97.1083 81.2017 96.7797 82.5659 96.706 82.7421C96.4568 83.3219 96.1395 83.3844 95.437 83.4242C93.5732 83.5379 91.3015 82.9411 89.6019 82.3499C88.2876 81.8952 87.0583 81.3041 85.7892 80.7754C85.6929 80.6959 85.574 79.9001 85.557 79.7125C85.3417 77.5299 85.6533 74.9266 85.6816 72.6871C85.8402 61.6601 85.9819 50.7127 84.9735 39.7938C84.4976 34.6554 83.6591 29.5569 82.8094 24.4526C81.6933 17.7512 80.8549 11.1918 76.9969 5.04173L76.9742 5.019Z" fill="#FEF1F1"/>
</g>
<defs>
<clipPath id="clip0_57_260">
<rect width="794" height="188.767" fill="white"/>
</clipPath>
</defs>
</svg>
