<svg width="795" height="178" viewBox="0 0 795 178" fill="none" xmlns="http://www.w3.org/2000/svg">
<g clip-path="url(#clip0_57_229)">
<path d="M246.983 19.3785L248.054 45.0831L245.606 45.3891C237.649 27.7937 231.223 21.9796 222.043 21.9796C212.404 21.9796 205.672 28.8647 205.825 38.963C205.825 50.4382 214.852 57.7824 224.032 66.1976C233.059 74.6128 242.546 83.946 242.546 100.164C242.546 121.126 227.245 132.295 206.131 132.295C196.185 132.295 187.005 129.847 179.967 125.716L178.896 97.2573L181.191 96.7983C188.841 117.301 197.716 126.175 209.803 126.175C222.349 126.175 229.081 116.842 229.081 105.825C229.081 93.2792 220.207 85.782 211.333 77.6728C202.459 69.4106 193.278 61.4545 193.278 46.1541C193.278 26.4167 208.732 15.7065 227.092 15.7065C234.742 15.7065 242.393 17.3895 246.983 19.3785ZM243.766 133.825L254.935 81.0389C257.383 69.1046 255.853 61.3015 251.263 57.4764V57.1704L275.591 49.5202L268.706 80.5799C278.039 61.9135 288.596 50.2852 301.601 50.2852C312.77 50.2852 320.268 58.5474 320.268 75.2248C320.268 104.907 297.929 132.295 273.296 132.295C267.787 132.295 263.197 130.918 259.525 128.623L257.536 138.874C255.241 150.196 254.476 156.776 256.159 163.814V164.12H234.586V163.814C239.176 155.552 241.012 147.595 243.766 133.825ZM296.399 61.1485C289.667 61.1485 280.028 67.5746 266.104 96.0332L264.268 105.213C261.667 119.443 264.727 126.175 273.449 126.175C291.962 126.175 305.426 96.0332 305.426 75.3778C305.426 64.5145 301.295 61.1485 296.399 61.1485ZM335.702 97.5633C335.702 115.312 343.505 121.126 352.226 121.126C359.111 121.126 365.997 117.454 371.505 108.58L373.8 109.498C368.139 124.186 357.428 132.295 344.423 132.295C328.817 132.295 319.637 120.208 319.637 102.459C319.637 75.3778 341.057 50.2852 366.456 50.2852C375.483 50.2852 383.592 53.6513 383.592 64.2085C383.592 77.0608 371.811 89.4541 336.161 90.5251C335.855 92.8202 335.702 95.1152 335.702 97.5633ZM363.855 56.4054C351.92 56.4054 340.292 68.3396 336.773 86.088C366.762 82.1099 371.352 70.9407 371.352 63.9025C371.352 58.3944 368.598 56.4054 363.855 56.4054ZM431.712 105.06L434.16 105.978C429.416 121.585 419.012 132.295 404.018 132.295C387.341 132.295 377.395 119.137 377.395 100.776C377.395 74.6128 397.592 50.2852 422.072 50.2852C430.793 50.2852 437.832 53.1923 439.362 54.4163L438.75 74.0008L436.914 74.3068C433.395 66.8096 428.804 56.4054 418.4 56.4054C406.16 56.4054 392.849 71.0937 392.849 94.9622C392.849 112.405 400.04 120.361 411.209 120.361C419.318 120.361 426.356 116.077 431.712 105.06ZM476.899 131.683L483.478 105.825C474.91 120.973 463.741 132.295 451.347 132.295C441.402 132.295 434.67 124.339 438.954 108.427L447.981 74.6128C450.582 64.2085 451.806 57.4764 443.391 53.0393V52.5803H467.872L453.489 107.662C451.5 115.618 453.489 120.973 459.304 120.973C468.943 120.973 481.183 105.213 490.516 78.5909L491.587 74.6128C494.188 64.2085 495.412 57.4764 486.997 53.0393V52.5803H511.478L496.942 107.968C494.035 119.137 493.882 124.186 500.767 128.776V129.082L476.899 131.683Z" fill="#FEF1F1"/>
<path d="M520.863 22.8976H588.644C596.294 22.8976 597.212 27.3347 597.212 31.6188C597.212 44.0121 605.321 40.493 605.321 50.2852C605.321 54.8753 603.179 56.0994 600.578 56.0994C591.092 56.0994 589.103 52.5803 589.103 47.0721C589.103 42.6351 586.961 39.575 584.666 39.575C582.83 39.575 580.688 38.045 580.688 35.9029C580.688 32.6898 577.168 31.4658 574.414 31.4658H551.464C548.71 31.4658 547.486 33.9139 547.486 36.9739V74.0008C547.486 77.0608 550.852 80.8859 553.912 80.8859H558.808C560.95 80.8859 564.163 78.4379 564.163 76.6018C564.163 74.0008 565.846 72.7767 567.988 72.7767C570.13 72.7767 572.425 70.6347 572.425 68.7986C572.425 65.5856 574.108 64.3615 576.403 64.3615C580.841 64.3615 580.688 68.3396 580.688 72.4707V90.6781C580.688 93.7382 580.382 97.8693 576.097 97.8693C574.108 97.8693 572.425 95.7272 572.425 93.7382C572.425 91.5961 569.365 89.1481 566.152 89.1481H553.912C549.475 89.1481 547.486 92.9732 547.486 96.3392V115.312C547.486 118.831 550.24 122.197 558.502 122.197C561.409 122.197 564.01 123.574 564.01 126.481C564.01 128.623 561.562 130 558.808 130H523.77C520.251 130 519.639 127.858 519.639 125.716C519.639 122.656 522.699 122.197 525.147 122.197C528.054 122.197 530.961 118.372 530.961 114.547V38.963C530.961 31.6188 525.3 31.1598 521.322 31.1598C518.262 31.1598 514.59 29.4768 514.59 27.1817C514.59 24.4276 517.497 22.8976 520.863 22.8976ZM626.179 8.05628C629.545 8.05628 630.769 10.3513 630.922 15.4004L630.769 110.875C630.769 115.006 633.676 120.667 638.725 120.667C641.785 120.667 644.692 121.126 644.692 124.492C644.692 128.929 641.479 130 637.348 130H607.818C603.993 130 602.463 127.246 602.463 124.186C602.463 122.35 603.381 120.208 607.053 120.208C610.419 120.208 612.102 116.689 612.102 111.334V34.3729C612.102 30.8538 609.501 25.8047 607.206 25.8047C604.605 25.8047 602.31 24.8867 602.31 21.6736C602.31 17.0835 607.818 16.4715 614.55 16.4715C616.998 16.4715 621.741 14.9414 621.741 11.7284C621.741 9.12731 622.66 8.05628 626.179 8.05628ZM659.055 58.8534C659.055 60.9955 661.197 63.4435 663.339 63.4435C667.317 63.4435 668.694 68.0336 668.694 71.5527V111.487C668.694 116.383 672.826 120.82 677.722 120.82C685.525 120.82 687.82 114.547 687.82 111.487V90.2191C687.82 86.853 690.115 82.1099 693.634 82.1099C695.776 82.1099 697.918 79.8149 697.918 77.6728C697.918 75.5308 695.317 72.7767 692.869 72.7767C689.197 72.7767 687.82 67.7276 687.82 63.4435C687.82 57.3234 692.716 53.4983 698.224 53.4983C702.661 53.4983 707.098 57.6294 707.098 62.0665V112.405C707.098 115.618 709.546 120.82 712.3 120.82C714.748 120.82 716.584 123.421 716.584 125.563C716.584 127.858 714.442 130 709.393 130H666.705C662.421 130 659.055 127.858 659.055 125.257C659.055 123.727 657.678 120.973 654.924 120.973C651.099 120.973 649.722 115.618 649.722 111.487V81.8039C649.722 79.8149 648.345 72.9297 645.132 72.9297C641.613 72.9297 640.083 66.8096 640.083 63.7495C640.083 59.0064 644.061 53.4983 650.946 53.4983C655.077 53.4983 659.055 56.4054 659.055 58.8534ZM723.323 50.4382H733.574C751.934 50.4382 743.825 79.6619 755.912 79.6619C760.043 79.6619 763.103 72.4707 763.103 63.7495C763.103 57.3234 766.776 50.4382 775.344 50.4382H784.83C788.808 50.4382 792.021 52.5803 792.021 55.0283C792.021 61.3015 774.579 78.7439 768.306 79.3559C764.634 79.6619 762.338 87.6181 762.338 91.7491C762.644 111.334 791.103 99.5523 792.021 126.787C792.021 129.235 788.196 130 784.065 130H774.12C769.377 130 764.634 125.563 764.634 120.208C764.787 112.864 755.759 101.694 748.721 101.694C745.508 101.694 743.06 108.58 743.06 113.476V118.219C742.907 123.727 738.164 130 733.115 130H720.416C717.049 130 713.53 129.235 713.53 126.787C713.53 123.421 718.12 122.044 722.405 122.044C727.148 121.891 733.421 118.219 733.421 113.629V110.875C733.421 98.3283 743.06 104.907 743.06 94.9622V90.5251C743.06 88.6891 741.071 79.3559 738.011 79.3559C734.492 79.3559 733.421 77.0608 733.421 74.1538C733.421 71.5527 731.585 69.7167 728.372 69.7167C725.312 69.7167 723.323 66.6566 723.323 63.9025C723.323 61.3015 721.487 59.4654 719.039 59.4654C715.978 59.4654 713.53 58.8534 713.53 54.8753C713.53 51.9683 718.12 50.4382 723.323 50.4382Z" fill="#FEF1F1"/>
<path d="M61.6442 0.938646C62.3752 1.26732 63.0609 1.80566 63.5539 2.52535C64.727 4.21972 65.526 9.4785 65.4183 11.5356C65.4013 11.8699 64.7836 12.1136 65.4183 12.2552C65.0613 14.2386 64.9706 16.1767 64.6476 18.1884C63.8656 23.0958 62.3412 27.8672 61.0492 32.616C59.9555 36.6281 58.0968 41.4732 61.2589 45.1566C61.6839 45.6553 62.4942 45.967 62.7096 46.2107C63.6616 47.2704 64.88 47.7974 66.1323 48.517C74.7912 53.5208 82.821 53.1695 92.2166 49.9337C93.5539 49.4747 97.192 48.075 98.2574 47.3667C98.6597 47.1003 99.8101 45.9783 100.246 45.593C100.524 45.3493 102.57 43.4509 102.649 43.3036C102.745 43.1279 102.626 42.8219 102.757 42.5896C102.847 42.4366 103.306 42.2892 103.499 41.9889C103.692 41.6886 103.692 41.2125 103.76 41.1332C103.805 41.0822 104.083 41.0879 104.304 40.8612C105.33 39.8299 106.429 36.5374 107.064 35.1207C108.191 32.5877 109.285 30.3776 109.965 27.6009C111.081 23.0505 110.86 18.6984 109.636 14.2273C109.557 13.9439 108.571 13.2696 109.529 12.9352V12.7936C109.398 12.7936 109.262 12.7256 109.172 12.6292C108.418 11.8189 107.625 8.02781 107.749 6.91145C107.772 6.72444 107.953 6.58277 107.999 6.41277C108.038 6.2541 107.931 6.07276 107.982 5.93109C108.435 4.6844 111.127 4.36139 112.283 4.28772C116.476 4.03272 122.001 4.84307 125.311 7.51213C125.724 7.84647 126.104 8.47548 126.376 8.67949C126.648 8.88349 127.345 8.95149 127.572 9.2745C127.736 9.5125 127.674 9.88085 127.725 9.93751C127.781 9.99985 128.852 10.1415 129.277 10.5495C129.595 10.8555 129.549 11.2069 129.731 11.4392C129.838 11.5809 130.926 12.3176 131.289 12.7142C132.218 13.7286 133.935 16.069 134.559 17.2307C134.888 17.8484 135.103 19.0214 135.409 19.4974C135.545 19.7127 136.146 20.0357 136.276 20.2397C136.491 20.5628 136.429 20.9254 136.542 21.0954C136.61 21.2031 136.911 21.2201 137.024 21.4298C137.239 21.8321 137.166 22.6311 137.5 23.1808C138.322 24.5408 138.503 24.7562 139.143 26.3145C142.521 34.5484 144.351 44.1139 145.286 53.1185C145.445 54.6485 145.388 56.7792 145.671 58.3036C145.717 58.5359 146 58.7229 145.989 58.8986C145.989 58.9949 145.756 59.1933 145.728 59.4936C145.671 60.1396 145.966 61.2333 146 61.9133C146.368 69.8412 145.637 78.1487 144.748 86.0369C144.663 86.7679 144.725 87.6916 144.6 88.4509C144.43 89.4936 144.357 90.6043 144.209 91.7887C143.348 98.8495 141.801 108.211 143.575 115.306C143.835 116.343 143.966 116.196 144 117.306C144 117.414 144.379 117.697 144.481 117.975C144.549 118.162 144.464 118.44 144.521 118.661C144.946 120.213 145.824 121.403 146.255 122.899C146.742 124.594 148.646 126.498 149.4 128.118C149.508 128.345 149.338 128.583 149.4 128.714C149.462 128.855 151.344 130.538 151.571 130.895C151.797 131.252 151.423 131.094 151.928 131.683C152.721 132.607 153.531 133.406 154.296 134.38C154.404 134.516 154.359 134.805 154.54 135.032C155.056 135.678 156.359 136.262 156.852 136.891C157.09 137.197 157.203 137.707 157.453 137.933C157.668 138.126 158.269 138.381 158.671 138.681C160.694 140.183 162.507 141.996 164.377 143.521C165.891 144.751 168.809 146.133 169.376 148.071C169.665 149.063 167.789 149.284 167.103 149.392C164.281 149.839 160.28 149.125 157.549 148.258C155.039 147.459 153.679 145.935 151.542 144.581C150.738 144.071 150.035 143.425 149.207 142.852C148.176 142.132 146.759 141.305 145.847 140.483C145.683 140.336 145.756 140.075 145.513 139.888C145.144 139.605 144.731 139.922 145.156 138.987C144.221 138.721 143.393 138.46 142.861 137.627C142.135 136.494 141.79 136.415 140.945 135.559C139.795 134.397 138.849 132.907 138.01 131.598C137.534 130.856 137.103 130.13 136.656 129.53C135.59 128.101 134.706 126.231 133.833 124.605C126.444 110.818 131.487 94.5031 132.91 79.7524C134.474 63.4887 133.924 46.613 129.306 30.814C129.011 29.794 128.762 28.7456 128.507 27.8616C128.155 26.6262 127.084 25.1699 126.733 23.8438C126.688 23.6625 126.863 23.4188 126.733 23.0901C126.659 22.9031 126.098 22.6141 125.872 22.1438C125.764 21.9171 125.815 21.6394 125.707 21.4128C124.721 19.3897 123.514 17.2703 122.154 15.3493C122.007 15.1396 121.406 14.76 121.304 14.59C121.032 14.1366 121.514 14.4596 120.789 13.6663C120.624 13.4906 119.502 12.0342 119.383 12.1646C119.321 12.4876 119.701 12.6236 119.752 12.8899C119.933 13.7513 119.984 13.9213 120.256 14.777C122.698 22.3761 120.267 30.4286 117.371 37.2005C116.714 38.7418 115.87 40.5892 114.912 41.9039C114.362 42.6576 113.852 43.5303 113.127 44.284C112.759 44.6693 111.863 45.202 111.62 45.6156C111.506 45.8083 111.637 46.0067 111.557 46.1313C111.438 46.3183 108.446 48.9874 108.237 49.0724C106.525 49.7694 104.825 50.8858 102.989 51.5714C88.9752 56.8359 70.6544 57.4422 57.2978 50.0357C56.8785 49.8034 54.4531 48.3414 54.2661 48.143C54.1301 47.9957 54.1584 47.7237 54.0847 47.6614C53.9997 47.5877 53.246 47.4914 52.9797 47.276C49.506 44.5163 49.1943 40.5835 49.9876 36.4128C50.6903 32.7294 52.2544 29.1309 53.2744 25.5722C54.3964 21.6734 55.4674 17.5537 55.8981 13.5983C55.9094 13.4963 56.1758 13.5189 56.2041 13.4056C56.6121 11.7112 56.7368 5.74409 56.3118 4.08372C56.2608 3.87971 55.7564 2.63302 55.6771 2.62168C55.2238 2.87669 53.042 3.18836 52.957 3.60771L53.0704 4.09505C52.4527 4.61073 51.631 4.53706 50.9907 4.78073C49.7326 5.25674 46.7236 10.0508 45.8339 11.3995C43.3915 15.117 41.5215 18.7154 39.7421 22.8918C38.9261 24.8072 37.991 26.8586 37.3564 28.8533C33.877 39.7902 34.2113 53.2148 34.5286 64.7581C34.6873 70.5609 34.9876 76.4317 34.1433 82.4101C34.0073 83.3735 32.7493 90.6157 32.4773 90.9613C31.5762 92.1174 29.8025 98.8948 28.9695 101.071C27.6095 104.613 26.1871 108.205 24.1187 111.566C23.3027 112.892 22.1977 115.119 21.2853 116.179C19.9933 117.68 18.9676 119.301 17.7209 120.882C16.6952 122.185 15.4655 123.319 14.3435 124.588C13.3292 125.733 12.5188 127.155 11.2098 128.152C10.9831 128.328 10.4504 128.459 10.3598 128.572C10.2351 128.725 10.3031 129.082 10.1331 129.241C8.87506 130.448 5.05565 130.062 3.46895 129.654C2.39792 129.377 -0.0954668 128.861 1.54224 127.574C2.59059 126.758 3.54261 125.602 4.43797 124.514C6.17767 122.406 7.67371 120.236 9.14707 118.049C9.82709 117.04 10.5978 116.275 11.2948 115.136C12.1108 113.81 13.1138 112.557 13.7315 111.282C19.625 99.2122 24.5324 85.0792 24.4587 71.2409C24.4531 70.0509 24.0961 68.1808 24.1811 67.0588C24.1981 66.8321 24.4701 66.6791 24.4417 66.5034C23.9601 63.5397 24.1244 60.1906 24.1697 57.0796C24.2604 51.0671 24.4474 45.0093 25.5468 39.1045C27.1845 30.3096 30.5335 22.8975 35.2823 15.4513C37.6794 11.6886 42.1618 5.59675 46.0209 3.09769C50.0386 0.490969 57.1788 -1.09573 61.6499 0.898978L61.6442 0.938646Z" fill="#FEF1F1"/>
<path d="M70.7401 64.2537C72.3948 66.4694 73.8852 70.4022 73.8739 73.2866C73.8739 73.6153 73.7039 73.8079 73.6245 74.1083L74.0552 74.3519C73.7945 75.0093 73.9419 75.7913 73.8795 76.4543C73.7265 78.041 73.3072 80.0244 72.5932 81.4241C69.6408 87.1872 64.5293 88.4453 58.1088 87.4082C53.2524 86.6205 45.2566 83.0165 46.1009 76.9927C46.5146 74.0403 49.4953 67.3875 51.8924 65.6364C56.3975 62.344 65.9347 65.6251 66.8867 71.3202C67.5044 74.9923 64.059 80.7271 60.1262 81.0218C56.8962 81.2654 52.6744 78.3244 53.2864 74.777C53.6321 72.7652 56.1708 69.7675 58.3355 71.0822C59.3782 71.7169 58.8059 72.8162 57.7745 72.6972C57.1682 72.6292 57.2872 72.1022 56.6468 72.7766C55.4171 74.0743 55.5361 76.2617 56.4938 77.6897C56.9245 78.33 58.7095 79.8261 59.4745 79.6391C60.7892 79.316 62.3816 76.9757 62.9313 75.78C63.685 74.1253 64.0533 71.8812 63.2826 70.1642C63.26 70.1132 62.784 69.3595 62.716 69.2575C61.2199 67.0814 57.4572 64.7297 54.9354 66.5884C53.2297 67.8465 51.0197 72.5669 50.3283 74.6239C50.0337 75.4966 49.6143 77.3043 49.6653 78.415C49.8353 82.0984 54.5898 84.8242 57.8085 85.6175C61.0272 86.4109 63.4243 86.3202 65.8837 83.7872C66.0707 83.5945 66.1387 83.5378 66.3427 83.3281C67.2721 82.3761 68.4281 79.5881 68.5527 78.2677C68.8474 75.151 68.7398 71.9039 67.7424 68.8268C67.1984 67.1438 65.7704 64.5597 64.4727 63.3074C64.28 63.1204 62.7103 61.8057 62.597 61.7547C62.1209 61.5223 59.7296 61.4827 59.7976 60.729C59.9336 59.2273 64.127 59.8733 65.1073 60.1396C65.6514 60.287 66.4107 60.6043 66.9094 60.8706C67.8387 61.3637 70.1168 63.415 70.7458 64.2594L70.7401 64.2537Z" fill="#FEF1F1"/>
<path d="M103.205 66.7982C108.084 71.5924 108.758 82.1042 101.476 84.9886C94.2454 87.8504 86.2099 83.8326 84.9009 76.0974C83.5295 67.9996 92.3131 65.0245 98.5465 68.5549C101.488 70.221 103.528 75.1794 100.944 77.8995C98.9772 79.9679 93.8091 80.6195 91.5764 78.6588C90.494 77.7068 89.6667 75.6384 90.2957 74.2614C90.715 73.3377 92.6531 73.4001 93.4238 73.8307C94.1434 74.2331 93.6334 74.5901 93.6051 75.1794C93.5711 75.9331 94.5061 78.0582 95.2938 78.1488C95.8038 78.2055 97.2092 77.4575 97.5378 77.0268C98.5692 75.6781 98.3539 73.5814 97.8722 72.057C96.0191 66.1919 87.7116 68.1866 87.757 74.7091C87.791 79.2482 92.1657 85.068 97.1922 84.4333C105.08 83.4359 105.692 72.9354 101.403 67.7786C99.3399 65.3022 96.1381 64.3219 93.3501 62.8655C92.5964 64.5372 89.2473 62.0041 91.752 61.5565C93.4634 61.2505 98.7109 63.8402 100.383 64.7752C101.369 65.3249 102.394 66.0106 103.199 66.8039L103.205 66.7982Z" fill="#FEF1F1"/>
</g>
<defs>
<clipPath id="clip0_57_229">
<rect width="795" height="177.025" fill="white"/>
</clipPath>
</defs>
</svg>
