<svg width="1314" height="304" viewBox="0 0 1314 304" fill="none" xmlns="http://www.w3.org/2000/svg">
<g clip-path="url(#clip0_57_172)">
<path d="M0 253.55C7.07261 237.842 27.5488 231.998 41.7858 223.956C68.7229 208.753 89.6578 187.484 101.892 158.771C112.221 134.522 111.916 126.978 82.6693 129.299C62.8048 130.877 39.8972 150.736 21.5084 146.348C7.91368 143.1 13.2124 124.42 19.0999 116.087C27.2047 104.614 63.7071 79.4159 77.577 78.022C84.8331 77.2944 91.577 79.1708 98.1067 79.1249C105.279 79.0789 135.152 71.3893 141.468 67.9504C147.493 64.6647 153.51 45.5096 163.412 38.5553C174.896 30.4904 204.074 30.5516 204.242 48.7494C204.334 58.5988 192.092 70.7153 209.059 72.8904C227.784 75.2954 244.896 75.3643 263.231 70.5468C287.049 64.2818 276.36 25.6882 282.79 7.96533C284.503 3.25506 288.846 0.260405 293.815 0C293.525 9.80349 285.443 15.586 295.544 23.4288C304.451 30.3449 317.916 31.3175 324.469 20.863C328.995 13.6483 324.874 12.0169 324.652 5.62169C324.599 4.08989 323.941 2.65 326.166 3.08657C332.734 6.09654 332.726 10.8374 333.743 17.0795C334.852 23.9113 335.456 32.6732 334.951 39.5509C334.355 47.792 329.278 62.344 336.022 69.2065C344.295 77.6237 375.919 78.3207 388.787 82.1808C397.886 84.915 405.135 90.0465 414.99 91.9307C425.55 93.945 453.175 92.1987 455.905 105.449C458.802 119.495 449.153 127.33 436.147 128.349C406.664 130.67 361.017 114.877 346.466 152.682C339.814 169.96 342.307 191.865 342.154 209.879C341.94 234.709 335.586 258.483 322.771 279.905C315.813 291.531 301.339 303.923 286.949 297.896C260.395 286.767 295.895 254.454 300.299 240.009C304.436 226.445 297.753 214.918 282.928 214.658C269.042 214.421 230.261 233.124 219.373 242.292C202.399 256.591 195.594 278.97 181.342 294.625C168.214 309.04 146.774 307.6 149.083 284.967C151.239 263.821 196.94 206.555 143.41 213.609C130.213 215.347 117.015 229.647 105.745 236.54C86.37 248.381 36.9917 269.581 14.9022 269.029C8.78533 268.876 3.29546 267.16 0.00764607 261.776V253.566L0 253.55ZM190.838 116.187C176.938 118.783 182.405 145.873 185.004 155.431C186.962 162.623 195.189 185.225 199.463 190.257C208.715 201.14 220.497 190.371 228.082 183.241C242.143 170.029 285.489 112.916 235.407 124.864C229.795 126.205 224.55 130.103 218.563 129.115C210.512 127.782 201.711 114.149 190.831 116.179L190.838 116.187Z" fill="#FEF1F1"/>
<path d="M1194.83 177.589L1205.79 165.449C1220.23 153.762 1248.38 154.558 1251.35 176.57C1252.77 176.846 1252.67 176.777 1253.48 175.911C1259.85 169.194 1263.33 162.868 1273.13 159.835C1290.65 154.405 1307.5 160.655 1309.8 180.269C1312.78 205.804 1305.59 234.48 1314.02 259.716H1286.28C1287.81 252.463 1289.93 245.141 1290.43 237.689C1291.29 224.852 1292.01 196.422 1290.3 184.359C1287.53 164.867 1257.78 171.354 1252.43 186.374C1253.54 210.806 1248.81 236.379 1257.51 259.724H1228.75C1229.44 256.315 1230.9 253.137 1231.55 249.69C1233.99 236.578 1234.57 197.64 1232.76 184.367C1230.17 165.388 1201.72 171.033 1195.89 185.324C1197.2 210.032 1192.38 235.851 1199.98 259.724H1171.22C1173.05 255.274 1174.32 250.349 1175.05 245.585C1177.11 232.013 1178.33 192.447 1174.07 180.392C1172.36 175.536 1168.82 172.013 1167.11 167.341L1194.85 157.07V177.604L1194.83 177.589Z" fill="#FEF1F1"/>
<path d="M632.858 175.536L642.798 166.475C689.171 137.601 720.413 187.714 706.092 230.749C695.899 261.37 661.63 269.718 633.897 257.663C633.63 273.019 633.362 288.023 637.996 302.828H609.231C612.29 295.521 613.918 286.668 614.408 278.748C615.945 254.148 616.487 213.601 614.408 189.36C613.75 181.732 610.661 174.234 605.141 168.865L632.858 157.062V175.544V175.536ZM655.23 171.714C647.011 172.587 638.929 176.723 634.096 183.44C636.237 204.272 624.799 244.589 650.788 253.596C697.176 269.68 705.847 166.33 655.23 171.714Z" fill="#FEF1F1"/>
<path d="M583.402 120.239L586.621 152.943C583.8 155.838 577.568 142.236 576.176 140.29C567.651 128.319 555.517 120.331 540.14 122.422C518.265 125.394 517.76 149.565 532.709 162.164C552.955 179.236 592.669 182.706 595.85 216.099C600.743 267.475 540.431 269.252 505.596 255.466C505.779 245.18 502.774 234.434 502.323 224.332C502.216 221.996 501.818 219.178 503.929 217.631C505.619 217.271 505.993 219.025 506.666 220.005C514.71 231.746 519.488 243.786 533.305 250.871C556.037 262.527 584.786 251.391 577.69 221.92C570.618 192.532 506.375 193.321 506.398 151.411C506.421 111.653 555.593 109.371 583.394 120.239H583.402Z" fill="#FEF1F1"/>
<path d="M936.959 161.159V226.345C936.959 226.827 938.174 233.131 938.434 234.111C943.917 254.637 970.234 249.605 977.582 233.062C977.299 216.243 979.639 196.835 977.926 180.276C977.078 172.081 974.088 166.383 967.78 161.159H996.544V233.529C996.544 235.88 998.41 244.619 999.427 247.078C1000.86 250.532 1003.18 252.592 1005.77 255.089L979.081 261.76V241.226C974.317 245.477 971.794 250.83 966.664 254.997C957.55 262.403 944.635 265.566 933.587 260.504C902.414 246.204 932.272 182.535 909.219 161.159H936.959Z" fill="#FEF1F1"/>
<path d="M1087.98 161.16V227.372C1087.98 227.87 1089.39 233.844 1089.71 234.885C1096.32 256.476 1127.44 247.515 1129.13 229.478C1130.23 217.591 1130.33 190.953 1128.97 179.235C1128.61 176.141 1127.27 172.633 1126.17 169.7L1119.83 161.16H1147.57V231.477C1147.57 234.571 1149.18 244.038 1150.45 247.078C1151.89 250.533 1154.2 252.593 1156.8 255.09L1130.1 261.761V240.201L1118.27 254.546C1109.14 262.251 1095.87 265.667 1084.62 260.497C1053.66 246.289 1083.17 182.375 1060.25 161.152H1087.99L1087.98 161.16Z" fill="#FEF1F1"/>
<path d="M804.429 202.219H739.705C734.337 239.679 774.517 261.699 802.005 235.153C808.099 236.325 802.647 242.873 800.3 245.822C788.433 260.742 771.512 265.513 753.047 261.262C713.364 252.125 709.663 193.618 737.166 169.401C765.877 144.126 808.741 163.549 804.429 202.219ZM784.916 194.017C787.164 152.321 743.237 160.83 739.705 195.028L784.916 194.017Z" fill="#FEF1F1"/>
<path d="M1047.91 259.709H1019.15C1020.95 253.819 1022.84 248.006 1023.3 241.787C1025.91 207.007 1021.24 169.049 1023.3 133.925C1023.01 130.563 1022.05 126.251 1020.7 123.18C1018.94 119.174 1015.31 116.869 1014.03 112.924L1042.79 102.654V243.801C1042.79 247.891 1045.9 255.925 1047.93 259.709H1047.91Z" fill="#FEF1F1"/>
<path d="M895.652 163.435L898.94 188.87C894.161 189.253 892.701 183.371 889.726 180.124C857.345 144.854 828.298 180.897 836.739 218.694C843.345 248.266 877.745 255.258 898.565 235.146L901.853 237.627C882.164 275.21 826.318 270.369 817.035 227.089C806.614 178.477 850.77 144.218 895.645 163.435H895.652Z" fill="#FEF1F1"/>
<path d="M611.28 75.9608H585.597C584.87 84.6154 591.736 89.1648 599.948 86.6527C604.758 85.1822 603.144 78.1359 610.247 80.066C608.298 97.7965 582.699 97.1608 579.679 79.3077C574.41 48.1817 614.017 46.0371 611.28 75.9608ZM605.117 70.8216C604.826 56.5682 585.887 56.5682 585.597 70.8216H605.117Z" fill="#FEF1F1"/>
<path d="M551.694 42.0869V59.5417C556.381 52.3346 574.296 54.1115 574.296 63.1338V91.3647H568.133V64.1601C568.133 61.219 562.421 59.266 559.661 59.7179C556.901 60.1698 551.694 64.6579 551.694 67.239V91.3647H545.531V42.0869H551.694Z" fill="#FEF1F1"/>
<path d="M542.451 42.0869V47.2184H526.012V91.3571H519.849V47.2184H503.41V42.0869H542.451Z" fill="#FEF1F1"/>
<path d="M217.806 168.344C219.58 170.182 236.195 154.704 237.12 151.158C239.001 143.958 229.092 147.558 225.735 149.067C222.983 150.3 218.051 154.995 216.247 155.01C212.477 155.048 211.047 145.597 206.551 144.111C201.474 142.434 201.184 148.722 201.36 152.391C201.505 155.347 207.461 181.066 208.494 182.253C212.102 186.404 217.753 180.499 220.903 178.102C228.282 172.488 251.258 150.246 250.654 141.193C250.363 136.912 246.036 134.637 242.259 134.07C232.365 132.585 224.933 140.443 216.415 143.644C212.477 138.459 202.262 124.106 194.769 129.414C192.223 131.221 192.949 140.749 193.163 144.211C193.637 151.854 195.694 159.161 198.301 166.284C200.144 166.361 199.448 161.689 199.257 160.701C198.936 159.008 197.758 157.652 197.529 156.266C196.336 148.967 194.104 139.615 197.193 132.853C202.316 129.123 213.785 145.161 216.346 148.822C217.822 149.159 233.496 135.763 242.748 137.747C252.825 139.914 244.377 148.929 240.943 152.957C233.144 162.11 222.585 171.569 212.156 177.558C210.229 177.443 204.357 152.528 204.472 148.837C209.09 150.269 209.962 159.812 214.274 160.187C218.128 160.524 226.5 149.488 232.196 150.897C234.987 153.302 215.375 163.443 217.822 168.337L217.806 168.344Z" fill="#FEF1F1"/>
<path d="M217.806 168.343C215.352 163.449 234.972 153.309 232.181 150.904C226.484 149.495 218.112 160.531 214.258 160.194C209.946 159.819 209.074 150.276 204.456 148.844C204.349 152.535 210.214 177.442 212.14 177.565C222.57 171.576 233.136 162.117 240.928 152.964C244.361 148.936 252.81 139.913 242.732 137.754C233.481 135.77 217.814 149.165 216.33 148.828C213.777 145.167 202.3 129.122 197.177 132.859C194.096 139.622 196.321 148.982 197.513 156.273C197.743 157.659 198.913 159.015 199.241 160.707C199.425 161.695 200.121 166.367 198.286 166.291C195.678 159.168 193.622 151.861 193.148 144.218C192.933 140.756 192.207 131.228 194.753 129.421C202.246 124.113 212.462 138.466 216.399 143.651C224.917 140.449 232.349 132.591 242.243 134.077C246.02 134.644 250.355 136.919 250.638 141.2C251.242 150.253 228.274 172.502 220.887 178.109C217.737 180.506 212.087 186.411 208.478 182.26C207.446 181.073 201.489 155.354 201.344 152.397C201.168 148.729 201.451 142.441 206.536 144.118C211.032 145.604 212.462 155.055 216.231 155.017C218.035 154.994 222.975 150.307 225.72 149.073C229.076 147.565 238.986 143.965 237.105 151.164C236.18 154.703 219.572 170.189 217.791 168.351L217.806 168.343Z" fill="#FEF1F1"/>
</g>
<defs>
<clipPath id="clip0_57_172">
<rect width="1314" height="304" fill="white"/>
</clipPath>
</defs>
</svg>
