<svg width="86" height="123" viewBox="0 0 86 123" fill="none" xmlns="http://www.w3.org/2000/svg">
<path d="M47.4453 121.764C36.9349 121.296 20.8782 119.697 11.0993 115.933C5.78585 113.887 4.29085 109.369 3.29418 104.006C-0.472446 83.8253 -0.556579 65.8648 0.802513 45.3066C1.43028 35.8236 2.77643 13.9386 7.0155 6.34804C9.79193 1.37609 17.3187 0.475273 22.3927 0.19595C35.2458 -0.516324 56.4606 0.552086 68.1941 6.08967C70.4722 7.16506 72.3425 8.98764 73.7987 10.5519C74.1158 10.894 75.3649 10.8172 76.0962 11.4387C80.6653 15.3143 80.4582 28.4774 81.2349 34.3362C81.4743 36.1309 82.1345 38.1909 82.4257 40.0693C83.61 41.0749 83.733 41.4799 83.7848 43.1349C83.6359 45.1041 83.5453 47.0803 83.8819 49.0356C83.8883 53.4559 85.105 58.2044 85.3575 62.7155C86.0823 75.6551 87.299 98.5945 81.7591 109.802C81.552 110.214 82.018 110.885 81.5002 111.569C81.1637 112.009 78.2837 114.9 77.8048 115.284C72.1031 119.879 61.7804 121.373 54.7261 121.764C54.0401 123.391 50.3511 123.224 49.225 122.183L47.4388 121.764H47.4453Z" fill="#62B788"/>
<path d="M44.3364 38.3573C45.2772 33.3971 41.3471 34.9905 38.6115 36.4661C25.6948 43.4561 20.1494 77.2284 39.0076 78.3784C52.7227 79.2167 57.2593 55.0807 44.5345 53.2241C41.2047 52.7392 39.6265 53.4596 38.1164 56.6879C37.1261 58.8009 36.6248 61.2325 37.1385 63.5671C37.8379 66.7677 38.6981 65.0565 40.4001 65.1189C44.7944 65.2921 42.2259 68.0493 38.8281 68.2086C27.8425 68.7143 30.3243 51.8109 39.4532 50.7024C51.8376 49.2061 61.1584 57.3668 55.1055 70.8065C51.0516 79.8055 43.3462 81.8353 34.57 79.6185C11.9365 73.8962 26.5365 30.3351 44.0765 33.4456C47.4062 34.0345 47.9818 38.8284 44.3364 38.3573Z" fill="#FFF2F1"/>
</svg>
